G04 Layer_Color=8388736*
%FSLAX44Y44*%
%MOMM*%
G71*
G01*
G75*
G04:AMPARAMS|DCode=50|XSize=1.7272mm|YSize=1.2032mm|CornerRadius=0.3516mm|HoleSize=0mm|Usage=FLASHONLY|Rotation=180.000|XOffset=0mm|YOffset=0mm|HoleType=Round|Shape=RoundedRectangle|*
%AMROUNDEDRECTD50*
21,1,1.7272,0.5000,0,0,180.0*
21,1,1.0240,1.2032,0,0,180.0*
1,1,0.7032,-0.5120,0.2500*
1,1,0.7032,0.5120,0.2500*
1,1,0.7032,0.5120,-0.2500*
1,1,0.7032,-0.5120,-0.2500*
%
%ADD50ROUNDEDRECTD50*%
%ADD51R,1.2032X1.2032*%
%ADD52R,2.4532X2.0032*%
%ADD53R,1.2032X1.2032*%
%ADD54R,1.2032X2.0532*%
%ADD55R,3.4032X2.0532*%
%ADD56R,3.2032X0.6032*%
%ADD57R,1.3482X0.7532*%
%ADD58R,0.7532X1.3482*%
%ADD59C,1.7272*%
%ADD60C,2.2032*%
%ADD61C,1.9032*%
%ADD62R,2.2032X2.2032*%
%ADD63O,1.4032X1.8032*%
%ADD64R,1.7032X1.7032*%
%ADD65C,1.7032*%
%ADD66R,2.2032X2.2032*%
%ADD67R,1.8032X1.8032*%
%ADD68C,1.8032*%
%ADD69O,2.2032X1.7032*%
%ADD70C,1.4031*%
D50*
X249500Y323250D02*
D03*
X227000D02*
D03*
Y223000D02*
D03*
X227250Y243250D02*
D03*
X227500Y263500D02*
D03*
X227000Y284000D02*
D03*
Y304000D02*
D03*
D51*
X400000Y85000D02*
D03*
Y70000D02*
D03*
X420000Y85000D02*
D03*
Y70000D02*
D03*
X456000Y264500D02*
D03*
Y249500D02*
D03*
X527144Y315744D02*
D03*
Y300744D02*
D03*
X-26000Y161500D02*
D03*
Y176500D02*
D03*
X-64000Y161500D02*
D03*
Y176500D02*
D03*
D52*
X536000Y231500D02*
D03*
Y260500D02*
D03*
D53*
X535500Y353000D02*
D03*
X550500D02*
D03*
X599500Y132000D02*
D03*
X584500D02*
D03*
X486500Y236000D02*
D03*
X471500D02*
D03*
X411500Y301000D02*
D03*
X426500D02*
D03*
X9500Y197000D02*
D03*
X-5500D02*
D03*
X-85000D02*
D03*
X-70000D02*
D03*
D54*
X515000Y135250D02*
D03*
X538000D02*
D03*
X561000D02*
D03*
D55*
X538000Y198750D02*
D03*
D56*
X277718Y234696D02*
D03*
Y241694D02*
D03*
Y248691D02*
D03*
Y255702D02*
D03*
Y262700D02*
D03*
Y269697D02*
D03*
Y276695D02*
D03*
Y283693D02*
D03*
Y290690D02*
D03*
Y297701D02*
D03*
Y304698D02*
D03*
Y311696D02*
D03*
D57*
X474005Y305892D02*
D03*
Y297892D02*
D03*
Y289892D02*
D03*
Y281892D02*
D03*
Y273892D02*
D03*
Y265892D02*
D03*
X495955D02*
D03*
Y273892D02*
D03*
Y281892D02*
D03*
Y289892D02*
D03*
Y297892D02*
D03*
Y305892D02*
D03*
D58*
X484980Y264917D02*
D03*
Y306867D02*
D03*
D59*
X-18000Y378000D02*
D03*
X370000Y332500D02*
D03*
X334750Y350250D02*
D03*
X219000Y447250D02*
D03*
X195250D02*
D03*
X171500D02*
D03*
X219000Y425250D02*
D03*
X195375Y425500D02*
D03*
X171750Y425250D02*
D03*
X36500Y379000D02*
D03*
X9250Y378500D02*
D03*
X312250Y350250D02*
D03*
X350000Y332500D02*
D03*
D60*
X564642Y375920D02*
D03*
X599132Y376376D02*
D03*
Y306376D02*
D03*
X434200Y39500D02*
D03*
X39000Y42000D02*
D03*
Y92800D02*
D03*
X137100Y426000D02*
D03*
X111700D02*
D03*
X86300D02*
D03*
X60900D02*
D03*
D61*
X624132Y363876D02*
D03*
Y318876D02*
D03*
D62*
X408800Y39500D02*
D03*
D63*
X-6250Y347250D02*
D03*
X13750D02*
D03*
X33750D02*
D03*
X-26250D02*
D03*
X-46250D02*
D03*
X53750D02*
D03*
D64*
X622300Y86360D02*
D03*
D65*
X596900D02*
D03*
X571500D02*
D03*
X546100D02*
D03*
X520700D02*
D03*
X495300D02*
D03*
X206023Y79513D02*
D03*
X271023D02*
D03*
X206023Y34513D02*
D03*
X271023D02*
D03*
X111023Y79513D02*
D03*
X176023D02*
D03*
X111023Y34513D02*
D03*
X176023D02*
D03*
X301023Y79513D02*
D03*
X366023D02*
D03*
X301023Y34513D02*
D03*
X366023D02*
D03*
D66*
X39000Y67400D02*
D03*
D67*
X77000Y35300D02*
D03*
D68*
Y60700D02*
D03*
D69*
X639262Y269047D02*
D03*
Y196453D02*
D03*
D70*
X606750Y257058D02*
D03*
Y208442D02*
D03*
M02*
