G04 Layer_Color=16711935*
%FSLAX44Y44*%
%MOMM*%
G71*
G01*
G75*
%ADD83C,0.1000*%
%ADD84C,0.1000*%
D83*
X955Y-10598D02*
G03*
X13955Y2402I0J13000D01*
G01*
D02*
G03*
X955Y15402I-13000J0D01*
G01*
D02*
G03*
X-12045Y2402I0J-13000D01*
G01*
D02*
G03*
X955Y-10598I13000J0D01*
G01*
X475955Y434402D02*
G03*
X488955Y447402I0J13000D01*
G01*
D02*
G03*
X475955Y460402I-13000J0D01*
G01*
D02*
G03*
X462955Y447402I0J-13000D01*
G01*
D02*
G03*
X475955Y434402I13000J0D01*
G01*
Y-10598D02*
G03*
X488955Y2402I0J13000D01*
G01*
D02*
G03*
X475955Y15402I-13000J0D01*
G01*
D02*
G03*
X462955Y2402I0J-13000D01*
G01*
D02*
G03*
X475955Y-10598I13000J0D01*
G01*
X955Y434402D02*
G03*
X13955Y447402I0J13000D01*
G01*
D02*
G03*
X955Y460402I-13000J0D01*
G01*
D02*
G03*
X-12045Y447402I0J-13000D01*
G01*
D02*
G03*
X955Y434402I13000J0D01*
G01*
X-164503Y71719D02*
G03*
X-151440Y58655I13203J138D01*
G01*
X-164519Y71802D02*
G03*
X-164503Y71719I501J54D01*
G01*
X-167576Y378350D02*
G03*
X-164519Y71802I1573578J-137596D01*
G01*
X-167501Y378575D02*
G03*
X-167576Y378350I426J-268D01*
G01*
X-154566Y391501D02*
G03*
X-167501Y378575I266J-13201D01*
G01*
X-154300Y391577D02*
G03*
X-154566Y391501I0J-504D01*
G01*
X-39295Y391577D02*
G03*
X-29799Y401073I0J9496D01*
G01*
X-29549Y401508D02*
G03*
X-29799Y401073I254J-435D01*
G01*
X-29549Y404622D02*
G03*
X-29549Y404617I504J0D01*
G01*
X-19045Y477906D02*
G03*
X-29549Y467402I0J-10504D01*
G01*
X506459D02*
G03*
X495955Y477906I-10504J0D01*
G01*
X506459Y400823D02*
G03*
X515950Y391327I9496J0D01*
G01*
D02*
G03*
X515955Y391327I5J9496D01*
G01*
Y391327D02*
G03*
X515950Y391327I0J-504D01*
G01*
X644501Y378398D02*
G03*
X631300Y391327I-13201J-275D01*
G01*
X644576Y378174D02*
G03*
X644501Y378398I-502J-44D01*
G01*
X650581Y240578D02*
G03*
X644576Y378174I-1579583J0D01*
G01*
X641519Y71625D02*
G03*
X650581Y240578I-1570521J168953D01*
G01*
X641503Y71543D02*
G03*
X641519Y71625I-485J137D01*
G01*
X630372Y58641D02*
G03*
X641503Y71543I-2071J13040D01*
G01*
X630000Y58477D02*
G03*
X630372Y58641I0J504D01*
G01*
X515955Y58477D02*
G03*
X515950Y58477I0J-9496D01*
G01*
D02*
G03*
X506459Y48981I5J-9496D01*
G01*
X495955Y-28102D02*
G03*
X506459Y-17598I0J10504D01*
G01*
X-29549D02*
G03*
X-19045Y-28102I10504J0D01*
G01*
X-29549Y48981D02*
G03*
X-29549Y48986I-9496J0D01*
G01*
D02*
G03*
X-39045Y58477I-9496J-5D01*
G01*
X-39411Y58635D02*
G03*
X-39045Y58477I366J346D01*
G01*
X-151440Y58655D02*
G03*
X-151300Y58635I140J484D01*
G01*
X-164519Y71802D02*
Y71802D01*
X-167576Y378350D02*
X-167576D01*
X-167501Y378575D02*
X-167501D01*
X-154300Y391577D02*
X-39295D01*
X-29549Y401508D02*
Y404622D01*
Y404617D02*
Y404622D01*
X-29549Y404622D02*
Y467402D01*
X-19045Y477906D02*
X495955D01*
X506459Y467402D02*
X506459D01*
X506459Y400823D02*
Y467402D01*
X515950Y391327D02*
X515955D01*
Y391327D02*
X631300D01*
X644501Y378398D02*
X644501D01*
X644576Y378174D02*
X644576D01*
X641519Y71625D02*
Y71625D01*
X515955Y58477D02*
X630000D01*
X515955D02*
Y58477D01*
X506459Y48981D02*
X506459Y-17598D01*
X-19045Y-28102D02*
X495955D01*
X-29549Y-17598D02*
Y48981D01*
X-29549D01*
X-151300Y58635D02*
X-39411D01*
D84*
X-29549Y404622D02*
D03*
M02*
