G04 Layer_Color=32896*
%FSLAX44Y44*%
%MOMM*%
G71*
G01*
G75*
%ADD21C,0.2540*%
%ADD47C,0.2500*%
%ADD48C,0.2000*%
%ADD49C,0.1270*%
%ADD82C,0.3000*%
G36*
X241250Y258750D02*
X239957D01*
Y263089D01*
X238293D01*
X238144Y263074D01*
X238026D01*
X237922Y263059D01*
X237847Y263044D01*
X237788D01*
X237758Y263029D01*
X237743D01*
X237520Y262955D01*
X237342Y262866D01*
X237268Y262821D01*
X237208Y262792D01*
X237179Y262777D01*
X237164Y262762D01*
X237045Y262688D01*
X236941Y262584D01*
X236718Y262376D01*
X236644Y262272D01*
X236569Y262182D01*
X236525Y262123D01*
X236510Y262108D01*
X236361Y261915D01*
X236213Y261707D01*
X236049Y261484D01*
X235901Y261261D01*
X235767Y261068D01*
X235663Y260919D01*
X235633Y260860D01*
X235604Y260815D01*
X235574Y260786D01*
Y260771D01*
X234281Y258750D01*
X232661D01*
X234355Y261395D01*
X234549Y261677D01*
X234742Y261930D01*
X234920Y262153D01*
X235084Y262346D01*
X235217Y262495D01*
X235321Y262613D01*
X235396Y262673D01*
X235425Y262703D01*
X235529Y262792D01*
X235663Y262881D01*
X235916Y263044D01*
X236020Y263104D01*
X236109Y263148D01*
X236168Y263178D01*
X236198Y263193D01*
X235945Y263237D01*
X235708Y263282D01*
X235485Y263341D01*
X235292Y263416D01*
X235098Y263490D01*
X234935Y263564D01*
X234771Y263639D01*
X234638Y263713D01*
X234519Y263787D01*
X234415Y263847D01*
X234326Y263921D01*
X234251Y263965D01*
X234207Y264025D01*
X234162Y264055D01*
X234132Y264084D01*
X234014Y264218D01*
X233910Y264367D01*
X233731Y264664D01*
X233612Y264946D01*
X233538Y265229D01*
X233479Y265466D01*
X233464Y265570D01*
Y265659D01*
X233449Y265734D01*
Y265793D01*
Y265823D01*
Y265838D01*
X233464Y266135D01*
X233508Y266402D01*
X233583Y266655D01*
X233657Y266878D01*
X233731Y267056D01*
X233806Y267190D01*
X233850Y267279D01*
X233865Y267309D01*
X234028Y267547D01*
X234207Y267740D01*
X234385Y267903D01*
X234563Y268022D01*
X234712Y268126D01*
X234831Y268200D01*
X234920Y268230D01*
X234935Y268245D01*
X234950D01*
X235084Y268290D01*
X235232Y268334D01*
X235544Y268393D01*
X235871Y268453D01*
X236183Y268483D01*
X236480Y268498D01*
X236599D01*
X236718Y268512D01*
X241250D01*
Y258750D01*
D02*
G37*
G36*
X92438Y391378D02*
X91145D01*
Y395717D01*
X89481D01*
X89333Y395702D01*
X89214D01*
X89110Y395687D01*
X89035Y395672D01*
X88976D01*
X88946Y395657D01*
X88931D01*
X88708Y395583D01*
X88530Y395494D01*
X88456Y395449D01*
X88396Y395420D01*
X88367Y395405D01*
X88352Y395390D01*
X88233Y395316D01*
X88129Y395212D01*
X87906Y395004D01*
X87832Y394900D01*
X87757Y394810D01*
X87713Y394751D01*
X87698Y394736D01*
X87549Y394543D01*
X87401Y394335D01*
X87237Y394112D01*
X87089Y393889D01*
X86955Y393696D01*
X86851Y393547D01*
X86821Y393488D01*
X86792Y393443D01*
X86762Y393414D01*
Y393399D01*
X85469Y391378D01*
X83849D01*
X85543Y394023D01*
X85737Y394305D01*
X85930Y394558D01*
X86108Y394781D01*
X86271Y394974D01*
X86405Y395122D01*
X86509Y395241D01*
X86583Y395301D01*
X86613Y395331D01*
X86717Y395420D01*
X86851Y395509D01*
X87104Y395672D01*
X87208Y395732D01*
X87297Y395776D01*
X87356Y395806D01*
X87386Y395821D01*
X87133Y395865D01*
X86896Y395910D01*
X86673Y395969D01*
X86480Y396044D01*
X86286Y396118D01*
X86123Y396192D01*
X85960Y396267D01*
X85826Y396341D01*
X85707Y396415D01*
X85603Y396475D01*
X85514Y396549D01*
X85439Y396594D01*
X85395Y396653D01*
X85350Y396683D01*
X85321Y396712D01*
X85202Y396846D01*
X85098Y396995D01*
X84919Y397292D01*
X84801Y397574D01*
X84726Y397856D01*
X84667Y398094D01*
X84652Y398198D01*
Y398287D01*
X84637Y398362D01*
Y398421D01*
Y398451D01*
Y398466D01*
X84652Y398763D01*
X84697Y399030D01*
X84771Y399283D01*
X84845Y399506D01*
X84919Y399684D01*
X84994Y399818D01*
X85038Y399907D01*
X85053Y399937D01*
X85217Y400174D01*
X85395Y400368D01*
X85573Y400531D01*
X85751Y400650D01*
X85900Y400754D01*
X86019Y400828D01*
X86108Y400858D01*
X86123Y400873D01*
X86138D01*
X86271Y400918D01*
X86420Y400962D01*
X86732Y401021D01*
X87059Y401081D01*
X87371Y401111D01*
X87668Y401125D01*
X87787D01*
X87906Y401140D01*
X92438D01*
Y391378D01*
D02*
G37*
G36*
X54746Y395730D02*
X53617Y395567D01*
X53513Y395715D01*
X53394Y395849D01*
X53275Y395968D01*
X53171Y396072D01*
X53067Y396146D01*
X52978Y396206D01*
X52919Y396236D01*
X52904Y396250D01*
X52726Y396339D01*
X52547Y396414D01*
X52369Y396458D01*
X52206Y396503D01*
X52057Y396518D01*
X51953Y396533D01*
X51849D01*
X51522Y396503D01*
X51225Y396443D01*
X50957Y396339D01*
X50749Y396236D01*
X50571Y396132D01*
X50452Y396027D01*
X50378Y395968D01*
X50348Y395938D01*
X50155Y395701D01*
X50006Y395433D01*
X49902Y395166D01*
X49843Y394913D01*
X49798Y394675D01*
X49784Y394571D01*
Y394482D01*
X49769Y394423D01*
Y394363D01*
Y394334D01*
Y394319D01*
X49798Y393932D01*
X49858Y393591D01*
X49962Y393293D01*
X50066Y393041D01*
X50170Y392848D01*
X50274Y392699D01*
X50333Y392610D01*
X50363Y392595D01*
Y392580D01*
X50482Y392461D01*
X50601Y392372D01*
X50838Y392209D01*
X51091Y392105D01*
X51314Y392015D01*
X51522Y391971D01*
X51686Y391956D01*
X51745Y391941D01*
X51834D01*
X52087Y391956D01*
X52324Y392015D01*
X52532Y392090D01*
X52711Y392164D01*
X52859Y392253D01*
X52963Y392313D01*
X53023Y392372D01*
X53053Y392387D01*
X53231Y392580D01*
X53365Y392803D01*
X53483Y393026D01*
X53558Y393249D01*
X53617Y393457D01*
X53662Y393620D01*
X53677Y393680D01*
X53691Y393724D01*
Y393754D01*
Y393769D01*
X54954Y393680D01*
X54925Y393457D01*
X54880Y393234D01*
X54761Y392848D01*
X54598Y392506D01*
X54434Y392224D01*
X54345Y392105D01*
X54271Y392001D01*
X54197Y391912D01*
X54137Y391837D01*
X54078Y391778D01*
X54033Y391733D01*
X54018Y391718D01*
X54004Y391703D01*
X53840Y391570D01*
X53662Y391466D01*
X53483Y391362D01*
X53305Y391273D01*
X52948Y391139D01*
X52607Y391050D01*
X52443Y391020D01*
X52295Y391005D01*
X52161Y390990D01*
X52057Y390975D01*
X51968Y390961D01*
X51834D01*
X51537Y390975D01*
X51255Y391005D01*
X51002Y391065D01*
X50749Y391139D01*
X50526Y391228D01*
X50304Y391332D01*
X50110Y391436D01*
X49947Y391555D01*
X49784Y391659D01*
X49650Y391763D01*
X49531Y391867D01*
X49442Y391956D01*
X49367Y392030D01*
X49308Y392090D01*
X49278Y392120D01*
X49264Y392134D01*
X49130Y392313D01*
X49011Y392506D01*
X48907Y392699D01*
X48818Y392907D01*
X48684Y393279D01*
X48580Y393635D01*
X48550Y393799D01*
X48535Y393947D01*
X48520Y394081D01*
X48506Y394200D01*
X48491Y394289D01*
Y394363D01*
Y394408D01*
Y394423D01*
X48506Y394675D01*
X48535Y394928D01*
X48580Y395151D01*
X48625Y395374D01*
X48699Y395567D01*
X48773Y395760D01*
X48847Y395924D01*
X48937Y396087D01*
X49026Y396221D01*
X49100Y396339D01*
X49174Y396443D01*
X49249Y396533D01*
X49293Y396607D01*
X49338Y396652D01*
X49367Y396681D01*
X49382Y396696D01*
X49546Y396860D01*
X49724Y396993D01*
X49902Y397112D01*
X50096Y397216D01*
X50274Y397305D01*
X50452Y397365D01*
X50794Y397484D01*
X50943Y397513D01*
X51091Y397543D01*
X51210Y397558D01*
X51329Y397573D01*
X51418Y397588D01*
X51537D01*
X51894Y397558D01*
X52235Y397484D01*
X52547Y397394D01*
X52815Y397276D01*
X53053Y397157D01*
X53142Y397112D01*
X53231Y397068D01*
X53290Y397023D01*
X53335Y396993D01*
X53365Y396978D01*
X53379Y396964D01*
X52845Y399594D01*
X48951D01*
Y400738D01*
X53795D01*
X54746Y395730D01*
D02*
G37*
G36*
X221547Y268527D02*
X221889Y268468D01*
X222201Y268379D01*
X222453Y268275D01*
X222661Y268156D01*
X222810Y268067D01*
X222869Y268037D01*
X222914Y268007D01*
X222929Y267977D01*
X222944D01*
X223196Y267740D01*
X223404Y267487D01*
X223583Y267220D01*
X223731Y266952D01*
X223850Y266714D01*
X223895Y266610D01*
X223924Y266521D01*
X223954Y266447D01*
X223984Y266388D01*
X223999Y266358D01*
Y266343D01*
X224058Y266135D01*
X224118Y265927D01*
X224192Y265466D01*
X224251Y265006D01*
X224296Y264560D01*
X224311Y264352D01*
X224326Y264159D01*
Y263995D01*
X224340Y263847D01*
Y263728D01*
Y263639D01*
Y263579D01*
Y263564D01*
X224326Y263074D01*
X224296Y262598D01*
X224251Y262182D01*
X224192Y261781D01*
X224118Y261425D01*
X224043Y261098D01*
X223954Y260800D01*
X223865Y260548D01*
X223776Y260310D01*
X223687Y260117D01*
X223612Y259954D01*
X223538Y259820D01*
X223479Y259716D01*
X223434Y259641D01*
X223404Y259597D01*
X223389Y259582D01*
X223226Y259404D01*
X223063Y259255D01*
X222884Y259121D01*
X222691Y259003D01*
X222513Y258913D01*
X222320Y258824D01*
X221963Y258705D01*
X221800Y258676D01*
X221651Y258646D01*
X221517Y258616D01*
X221398Y258601D01*
X221294Y258587D01*
X221161D01*
X220774Y258616D01*
X220432Y258676D01*
X220135Y258765D01*
X219868Y258869D01*
X219675Y258973D01*
X219511Y259062D01*
X219467Y259107D01*
X219422Y259121D01*
X219407Y259151D01*
X219392D01*
X219140Y259389D01*
X218932Y259656D01*
X218754Y259924D01*
X218605Y260191D01*
X218486Y260429D01*
X218441Y260518D01*
X218397Y260607D01*
X218367Y260682D01*
X218352Y260741D01*
X218337Y260771D01*
Y260786D01*
X218278Y260994D01*
X218218Y261202D01*
X218129Y261662D01*
X218070Y262123D01*
X218025Y262569D01*
X218011Y262777D01*
X217996Y262970D01*
Y263133D01*
X217981Y263282D01*
Y263401D01*
Y263490D01*
Y263549D01*
Y263564D01*
X217996Y264084D01*
Y264307D01*
X218011Y264530D01*
X218025Y264738D01*
X218055Y264931D01*
X218070Y265095D01*
X218085Y265258D01*
X218114Y265392D01*
X218129Y265526D01*
X218144Y265630D01*
X218174Y265704D01*
X218189Y265778D01*
Y265823D01*
X218204Y265853D01*
Y265868D01*
X218293Y266180D01*
X218397Y266462D01*
X218501Y266714D01*
X218590Y266922D01*
X218679Y267086D01*
X218754Y267220D01*
X218798Y267294D01*
X218813Y267324D01*
X218962Y267532D01*
X219125Y267710D01*
X219288Y267873D01*
X219437Y268007D01*
X219586Y268096D01*
X219690Y268171D01*
X219764Y268215D01*
X219794Y268230D01*
X220016Y268334D01*
X220254Y268423D01*
X220492Y268483D01*
X220700Y268512D01*
X220878Y268542D01*
X221027Y268557D01*
X221161D01*
X221547Y268527D01*
D02*
G37*
G36*
X4500Y101750D02*
X3207D01*
Y106089D01*
X1543D01*
X1394Y106074D01*
X1276D01*
X1172Y106059D01*
X1097Y106044D01*
X1038D01*
X1008Y106029D01*
X993D01*
X770Y105955D01*
X592Y105866D01*
X518Y105821D01*
X458Y105792D01*
X429Y105777D01*
X414Y105762D01*
X295Y105688D01*
X191Y105584D01*
X-32Y105376D01*
X-106Y105272D01*
X-181Y105182D01*
X-225Y105123D01*
X-240Y105108D01*
X-389Y104915D01*
X-537Y104707D01*
X-701Y104484D01*
X-849Y104261D01*
X-983Y104068D01*
X-1087Y103919D01*
X-1117Y103860D01*
X-1146Y103815D01*
X-1176Y103786D01*
Y103771D01*
X-2469Y101750D01*
X-4089D01*
X-2395Y104395D01*
X-2201Y104677D01*
X-2008Y104930D01*
X-1830Y105153D01*
X-1666Y105346D01*
X-1533Y105494D01*
X-1429Y105613D01*
X-1355Y105673D01*
X-1325Y105702D01*
X-1221Y105792D01*
X-1087Y105881D01*
X-834Y106044D01*
X-730Y106104D01*
X-641Y106148D01*
X-582Y106178D01*
X-552Y106193D01*
X-805Y106237D01*
X-1042Y106282D01*
X-1265Y106341D01*
X-1459Y106416D01*
X-1652Y106490D01*
X-1815Y106564D01*
X-1979Y106639D01*
X-2112Y106713D01*
X-2231Y106787D01*
X-2335Y106847D01*
X-2424Y106921D01*
X-2499Y106966D01*
X-2543Y107025D01*
X-2588Y107055D01*
X-2618Y107084D01*
X-2736Y107218D01*
X-2840Y107367D01*
X-3019Y107664D01*
X-3137Y107946D01*
X-3212Y108229D01*
X-3271Y108466D01*
X-3286Y108570D01*
Y108659D01*
X-3301Y108734D01*
Y108793D01*
Y108823D01*
Y108838D01*
X-3286Y109135D01*
X-3241Y109402D01*
X-3167Y109655D01*
X-3093Y109878D01*
X-3019Y110056D01*
X-2944Y110190D01*
X-2900Y110279D01*
X-2885Y110309D01*
X-2722Y110547D01*
X-2543Y110740D01*
X-2365Y110903D01*
X-2187Y111022D01*
X-2038Y111126D01*
X-1919Y111200D01*
X-1830Y111230D01*
X-1815Y111245D01*
X-1800D01*
X-1666Y111290D01*
X-1518Y111334D01*
X-1206Y111393D01*
X-879Y111453D01*
X-567Y111483D01*
X-270Y111497D01*
X-151D01*
X-32Y111512D01*
X4500D01*
Y101750D01*
D02*
G37*
G36*
X-4430Y105182D02*
Y104083D01*
X-8665D01*
Y101750D01*
X-9869D01*
Y104083D01*
X-11191D01*
Y105182D01*
X-9869D01*
Y111497D01*
X-8888D01*
X-4430Y105182D01*
D02*
G37*
G36*
X72364Y401170D02*
X72631Y401140D01*
X72884Y401081D01*
X73121Y401007D01*
X73344Y400918D01*
X73537Y400828D01*
X73731Y400724D01*
X73894Y400620D01*
X74043Y400516D01*
X74176Y400412D01*
X74280Y400323D01*
X74384Y400234D01*
X74459Y400160D01*
X74503Y400100D01*
X74533Y400070D01*
X74548Y400056D01*
X74726Y399803D01*
X74889Y399506D01*
X75023Y399209D01*
X75142Y398867D01*
X75246Y398540D01*
X75335Y398198D01*
X75410Y397856D01*
X75454Y397515D01*
X75499Y397203D01*
X75528Y396906D01*
X75558Y396638D01*
X75573Y396400D01*
X75588Y396207D01*
Y396059D01*
Y396014D01*
Y395969D01*
Y395955D01*
Y395940D01*
X75573Y395479D01*
X75543Y395063D01*
X75499Y394662D01*
X75439Y394305D01*
X75365Y393978D01*
X75291Y393681D01*
X75202Y393414D01*
X75112Y393176D01*
X75038Y392968D01*
X74949Y392790D01*
X74875Y392641D01*
X74800Y392522D01*
X74741Y392433D01*
X74696Y392374D01*
X74667Y392329D01*
X74652Y392314D01*
X74474Y392121D01*
X74280Y391958D01*
X74072Y391809D01*
X73864Y391675D01*
X73656Y391571D01*
X73463Y391482D01*
X73255Y391408D01*
X73062Y391348D01*
X72884Y391304D01*
X72720Y391274D01*
X72572Y391244D01*
X72453Y391229D01*
X72349D01*
X72259Y391215D01*
X72200D01*
X71888Y391229D01*
X71864Y391233D01*
Y391124D01*
X70571D01*
Y391679D01*
X70387Y391809D01*
X70179Y392002D01*
X69986Y392195D01*
X69823Y392388D01*
X69704Y392567D01*
X69615Y392701D01*
X69585Y392760D01*
X69555Y392804D01*
X69540Y392819D01*
Y392834D01*
X69406Y393131D01*
X69303Y393429D01*
X69243Y393726D01*
X69184Y393978D01*
X69154Y394216D01*
Y394305D01*
X69139Y394394D01*
Y394454D01*
Y394498D01*
Y394528D01*
Y394543D01*
X69154Y394796D01*
X69169Y395048D01*
X69213Y395271D01*
X69264Y395463D01*
X68907D01*
X68759Y395448D01*
X68640D01*
X68536Y395433D01*
X68461Y395418D01*
X68402D01*
X68372Y395403D01*
X68357D01*
X68134Y395329D01*
X67956Y395240D01*
X67882Y395195D01*
X67822Y395166D01*
X67793Y395151D01*
X67778Y395136D01*
X67659Y395062D01*
X67555Y394958D01*
X67332Y394750D01*
X67258Y394646D01*
X67183Y394556D01*
X67139Y394497D01*
X67124Y394482D01*
X66975Y394289D01*
X66827Y394081D01*
X66663Y393858D01*
X66515Y393635D01*
X66381Y393442D01*
X66277Y393293D01*
X66247Y393234D01*
X66218Y393189D01*
X66188Y393160D01*
Y393145D01*
X64895Y391124D01*
X63275D01*
X64969Y393769D01*
X65163Y394051D01*
X65356Y394304D01*
X65534Y394527D01*
X65697Y394720D01*
X65831Y394869D01*
X65935Y394987D01*
X66009Y395047D01*
X66039Y395076D01*
X66143Y395166D01*
X66277Y395255D01*
X66530Y395418D01*
X66634Y395478D01*
X66723Y395522D01*
X66782Y395552D01*
X66812Y395567D01*
X66559Y395611D01*
X66322Y395656D01*
X66099Y395715D01*
X65905Y395790D01*
X65712Y395864D01*
X65549Y395938D01*
X65385Y396013D01*
X65252Y396087D01*
X65133Y396161D01*
X65029Y396221D01*
X64940Y396295D01*
X64865Y396339D01*
X64821Y396399D01*
X64776Y396429D01*
X64746Y396458D01*
X64628Y396592D01*
X64524Y396741D01*
X64345Y397038D01*
X64226Y397320D01*
X64152Y397603D01*
X64093Y397840D01*
X64078Y397944D01*
Y398033D01*
X64063Y398108D01*
Y398167D01*
Y398197D01*
Y398212D01*
X64078Y398509D01*
X64123Y398776D01*
X64197Y399029D01*
X64271Y399252D01*
X64345Y399430D01*
X64420Y399564D01*
X64464Y399653D01*
X64479Y399683D01*
X64643Y399921D01*
X64821Y400114D01*
X64999Y400277D01*
X65177Y400396D01*
X65326Y400500D01*
X65445Y400574D01*
X65534Y400604D01*
X65549Y400619D01*
X65564D01*
X65697Y400663D01*
X65846Y400708D01*
X66158Y400768D01*
X66485Y400827D01*
X66797Y400857D01*
X67094Y400872D01*
X67213D01*
X67332Y400886D01*
X70769D01*
X70803Y400903D01*
X71115Y401021D01*
X71413Y401111D01*
X71680Y401155D01*
X71799Y401170D01*
X71888D01*
X71977Y401185D01*
X72081D01*
X72364Y401170D01*
D02*
G37*
G36*
X228323Y268319D02*
X228486Y268081D01*
X228664Y267859D01*
X228843Y267651D01*
X229006Y267487D01*
X229140Y267353D01*
X229229Y267264D01*
X229244Y267249D01*
X229259Y267234D01*
X229541Y266997D01*
X229838Y266774D01*
X230135Y266581D01*
X230403Y266417D01*
X230641Y266283D01*
X230745Y266239D01*
X230834Y266194D01*
X230893Y266150D01*
X230953Y266120D01*
X230982Y266105D01*
X230997D01*
Y264931D01*
X230789Y265021D01*
X230566Y265124D01*
X230358Y265214D01*
X230165Y265318D01*
X230002Y265407D01*
X229868Y265481D01*
X229779Y265541D01*
X229764Y265555D01*
X229749D01*
X229496Y265704D01*
X229274Y265868D01*
X229081Y266001D01*
X228917Y266135D01*
X228783Y266239D01*
X228679Y266313D01*
X228620Y266373D01*
X228605Y266388D01*
Y258750D01*
X227401D01*
Y268557D01*
X228189D01*
X228323Y268319D01*
D02*
G37*
G36*
X224095Y287792D02*
X224333Y287762D01*
X224556Y287718D01*
X224764Y287673D01*
X225135Y287525D01*
X225299Y287435D01*
X225448Y287361D01*
X225596Y287272D01*
X225715Y287183D01*
X225819Y287109D01*
X225893Y287049D01*
X225968Y286990D01*
X226012Y286945D01*
X226042Y286915D01*
X226057Y286901D01*
X226205Y286722D01*
X226339Y286544D01*
X226458Y286351D01*
X226547Y286143D01*
X226636Y285950D01*
X226710Y285742D01*
X226814Y285370D01*
X226844Y285192D01*
X226874Y285028D01*
X226889Y284880D01*
X226904Y284761D01*
X226919Y284657D01*
Y284568D01*
Y284523D01*
Y284508D01*
X226904Y284241D01*
X226889Y283988D01*
X226844Y283765D01*
X226785Y283542D01*
X226725Y283334D01*
X226651Y283141D01*
X226577Y282963D01*
X226502Y282814D01*
X226428Y282666D01*
X226354Y282547D01*
X226280Y282443D01*
X226220Y282354D01*
X226161Y282279D01*
X226116Y282235D01*
X226101Y282205D01*
X226086Y282190D01*
X225923Y282042D01*
X225760Y281908D01*
X225581Y281789D01*
X225418Y281685D01*
X225240Y281596D01*
X225076Y281522D01*
X224749Y281418D01*
X224467Y281358D01*
X224348Y281343D01*
X224244Y281328D01*
X224155Y281314D01*
X224036D01*
X223768Y281328D01*
X223516Y281373D01*
X223293Y281418D01*
X223100Y281492D01*
X222936Y281551D01*
X222803Y281596D01*
X222728Y281640D01*
X222699Y281655D01*
X222476Y281804D01*
X222283Y281952D01*
X222104Y282116D01*
X221971Y282264D01*
X221852Y282383D01*
X221777Y282502D01*
X221718Y282562D01*
X221703Y282591D01*
Y282487D01*
Y282413D01*
Y282369D01*
Y282354D01*
Y282071D01*
X221733Y281804D01*
X221763Y281566D01*
X221792Y281343D01*
X221822Y281150D01*
X221852Y281001D01*
X221866Y280957D01*
Y280912D01*
X221881Y280898D01*
Y280883D01*
X221956Y280630D01*
X222030Y280407D01*
X222104Y280214D01*
X222164Y280051D01*
X222238Y279917D01*
X222283Y279813D01*
X222312Y279753D01*
X222327Y279739D01*
X222431Y279590D01*
X222550Y279456D01*
X222654Y279337D01*
X222773Y279248D01*
X222862Y279174D01*
X222936Y279114D01*
X222996Y279085D01*
X223011Y279070D01*
X223174Y278981D01*
X223337Y278921D01*
X223501Y278877D01*
X223650Y278847D01*
X223783Y278832D01*
X223887Y278817D01*
X223976D01*
X224214Y278832D01*
X224422Y278877D01*
X224601Y278936D01*
X224749Y278996D01*
X224883Y279055D01*
X224972Y279114D01*
X225032Y279159D01*
X225046Y279174D01*
X225195Y279322D01*
X225314Y279516D01*
X225403Y279709D01*
X225477Y279902D01*
X225537Y280065D01*
X225566Y280214D01*
X225581Y280273D01*
X225596Y280318D01*
Y280333D01*
Y280348D01*
X226740Y280259D01*
X226666Y279842D01*
X226547Y279486D01*
X226413Y279174D01*
X226265Y278921D01*
X226116Y278728D01*
X225997Y278580D01*
X225908Y278490D01*
X225893Y278475D01*
X225878Y278461D01*
X225581Y278253D01*
X225284Y278104D01*
X224972Y277985D01*
X224675Y277911D01*
X224407Y277866D01*
X224289Y277851D01*
X224199D01*
X224110Y277837D01*
X224006D01*
X223620Y277866D01*
X223248Y277926D01*
X222936Y278015D01*
X222654Y278119D01*
X222431Y278223D01*
X222342Y278267D01*
X222268Y278312D01*
X222193Y278357D01*
X222149Y278372D01*
X222134Y278401D01*
X222119D01*
X221837Y278639D01*
X221599Y278906D01*
X221391Y279189D01*
X221213Y279471D01*
X221079Y279709D01*
X221034Y279813D01*
X220990Y279917D01*
X220960Y279991D01*
X220930Y280051D01*
X220916Y280080D01*
Y280095D01*
X220841Y280318D01*
X220782Y280541D01*
X220678Y281031D01*
X220604Y281536D01*
X220544Y282012D01*
X220529Y282235D01*
X220514Y282428D01*
Y282621D01*
X220499Y282770D01*
Y282903D01*
Y282993D01*
Y283067D01*
Y283082D01*
Y283409D01*
X220514Y283721D01*
X220544Y284003D01*
X220559Y284270D01*
X220589Y284508D01*
X220633Y284731D01*
X220663Y284939D01*
X220707Y285117D01*
X220752Y285281D01*
X220782Y285429D01*
X220812Y285548D01*
X220856Y285637D01*
X220871Y285712D01*
X220901Y285771D01*
X220916Y285801D01*
Y285816D01*
X221079Y286158D01*
X221272Y286455D01*
X221480Y286693D01*
X221673Y286915D01*
X221852Y287079D01*
X221985Y287198D01*
X222045Y287227D01*
X222089Y287257D01*
X222104Y287287D01*
X222119D01*
X222416Y287465D01*
X222728Y287584D01*
X223011Y287673D01*
X223278Y287747D01*
X223516Y287777D01*
X223620Y287792D01*
X223694D01*
X223768Y287807D01*
X223858D01*
X224095Y287792D01*
D02*
G37*
G36*
X447650Y57836D02*
X443593D01*
X443296Y57866D01*
X443029Y57881D01*
X442791Y57910D01*
X442613Y57940D01*
X442479Y57955D01*
X442390Y57985D01*
X442360D01*
X442137Y58059D01*
X441929Y58133D01*
X441736Y58208D01*
X441587Y58282D01*
X441454Y58356D01*
X441365Y58415D01*
X441305Y58445D01*
X441290Y58460D01*
X441142Y58594D01*
X440993Y58742D01*
X440874Y58891D01*
X440770Y59040D01*
X440696Y59173D01*
X440622Y59277D01*
X440592Y59352D01*
X440577Y59381D01*
X440473Y59604D01*
X440399Y59827D01*
X440354Y60050D01*
X440310Y60243D01*
X440295Y60407D01*
X440280Y60540D01*
Y60630D01*
Y60659D01*
X440295Y60971D01*
X440354Y61254D01*
X440429Y61491D01*
X440518Y61714D01*
X440622Y61892D01*
X440696Y62026D01*
X440755Y62101D01*
X440770Y62130D01*
X440964Y62353D01*
X441186Y62531D01*
X441409Y62680D01*
X441632Y62814D01*
X441825Y62903D01*
X441989Y62977D01*
X442048Y62992D01*
X442093Y63007D01*
X442122Y63022D01*
X442137D01*
X441885Y63155D01*
X441677Y63304D01*
X441498Y63438D01*
X441350Y63586D01*
X441246Y63705D01*
X441157Y63809D01*
X441112Y63869D01*
X441097Y63899D01*
X440978Y64106D01*
X440904Y64329D01*
X440845Y64523D01*
X440800Y64701D01*
X440770Y64864D01*
X440755Y64983D01*
Y65058D01*
Y65087D01*
X440770Y65340D01*
X440815Y65578D01*
X440874Y65786D01*
X440949Y65979D01*
X441023Y66142D01*
X441082Y66276D01*
X441127Y66350D01*
X441142Y66380D01*
X441305Y66603D01*
X441469Y66781D01*
X441647Y66945D01*
X441825Y67078D01*
X441974Y67168D01*
X442093Y67242D01*
X442182Y67286D01*
X442197Y67301D01*
X442212D01*
X442479Y67405D01*
X442776Y67480D01*
X443073Y67524D01*
X443356Y67569D01*
X443608Y67583D01*
X443712D01*
X443816Y67598D01*
X447650D01*
Y57836D01*
D02*
G37*
G36*
X510680Y268649D02*
X510933Y268634D01*
X511170Y268589D01*
X511378Y268530D01*
X511586Y268470D01*
X511780Y268396D01*
X511958Y268322D01*
X512121Y268232D01*
X512270Y268158D01*
X512389Y268084D01*
X512493Y268010D01*
X512582Y267950D01*
X512656Y267891D01*
X512701Y267846D01*
X512730Y267831D01*
X512745Y267817D01*
X512909Y267653D01*
X513042Y267490D01*
X513161Y267311D01*
X513265Y267133D01*
X513354Y266955D01*
X513414Y266776D01*
X513533Y266450D01*
X513592Y266152D01*
X513607Y266019D01*
X513622Y265914D01*
X513637Y265825D01*
Y265766D01*
Y265721D01*
Y265707D01*
X513622Y265380D01*
X513563Y265082D01*
X513488Y264815D01*
X513399Y264592D01*
X513310Y264399D01*
X513236Y264265D01*
X513176Y264176D01*
X513161Y264146D01*
X512968Y263923D01*
X512745Y263715D01*
X512522Y263552D01*
X512300Y263418D01*
X512106Y263329D01*
X511943Y263255D01*
X511884Y263225D01*
X511839Y263210D01*
X511809Y263195D01*
X511794D01*
X512047Y263091D01*
X512270Y262958D01*
X512463Y262839D01*
X512612Y262720D01*
X512730Y262601D01*
X512820Y262512D01*
X512864Y262452D01*
X512879Y262437D01*
X512998Y262244D01*
X513087Y262036D01*
X513147Y261843D01*
X513191Y261650D01*
X513221Y261486D01*
X513236Y261368D01*
Y261278D01*
Y261249D01*
X513221Y261056D01*
X513206Y260863D01*
X513117Y260521D01*
X512983Y260209D01*
X512849Y259941D01*
X512701Y259733D01*
X512626Y259644D01*
X512567Y259570D01*
X512522Y259510D01*
X512478Y259466D01*
X512463Y259451D01*
X512448Y259436D01*
X512300Y259302D01*
X512136Y259183D01*
X511973Y259094D01*
X511794Y259005D01*
X511453Y258871D01*
X511126Y258782D01*
X510829Y258738D01*
X510710Y258708D01*
X510591D01*
X510502Y258693D01*
X510383D01*
X510145Y258708D01*
X509937Y258723D01*
X509536Y258812D01*
X509179Y258916D01*
X508897Y259050D01*
X508763Y259124D01*
X508659Y259183D01*
X508570Y259258D01*
X508481Y259302D01*
X508421Y259347D01*
X508377Y259391D01*
X508362Y259406D01*
X508347Y259421D01*
X508213Y259555D01*
X508094Y259704D01*
X507990Y259852D01*
X507916Y260016D01*
X507768Y260313D01*
X507678Y260595D01*
X507634Y260848D01*
X507619Y260952D01*
X507604Y261041D01*
X507589Y261115D01*
Y261175D01*
Y261204D01*
Y261219D01*
X507604Y261472D01*
X507649Y261695D01*
X507708Y261903D01*
X507768Y262081D01*
X507827Y262229D01*
X507886Y262334D01*
X507931Y262393D01*
X507946Y262423D01*
X508094Y262601D01*
X508273Y262750D01*
X508451Y262883D01*
X508644Y263002D01*
X508808Y263076D01*
X508941Y263151D01*
X509031Y263181D01*
X509045Y263195D01*
X509060D01*
X508748Y263299D01*
X508466Y263433D01*
X508228Y263582D01*
X508035Y263730D01*
X507886Y263864D01*
X507768Y263983D01*
X507708Y264057D01*
X507678Y264072D01*
Y264087D01*
X507515Y264340D01*
X507411Y264607D01*
X507322Y264874D01*
X507262Y265127D01*
X507233Y265335D01*
X507218Y265439D01*
Y265513D01*
X507203Y265588D01*
Y265632D01*
Y265662D01*
Y265677D01*
X507218Y265914D01*
X507248Y266137D01*
X507277Y266345D01*
X507337Y266553D01*
X507485Y266910D01*
X507560Y267073D01*
X507649Y267222D01*
X507723Y267356D01*
X507797Y267475D01*
X507872Y267579D01*
X507946Y267668D01*
X508005Y267727D01*
X508035Y267772D01*
X508065Y267802D01*
X508080Y267817D01*
X508258Y267965D01*
X508436Y268099D01*
X508629Y268203D01*
X508823Y268307D01*
X509016Y268381D01*
X509209Y268455D01*
X509580Y268559D01*
X509759Y268589D01*
X509907Y268619D01*
X510056Y268634D01*
X510175Y268649D01*
X510279Y268663D01*
X510412D01*
X510680Y268649D01*
D02*
G37*
G36*
X236250Y278000D02*
X234957D01*
Y282339D01*
X233293D01*
X233144Y282324D01*
X233026D01*
X232922Y282309D01*
X232847Y282294D01*
X232788D01*
X232758Y282279D01*
X232743D01*
X232520Y282205D01*
X232342Y282116D01*
X232268Y282071D01*
X232208Y282042D01*
X232179Y282027D01*
X232164Y282012D01*
X232045Y281938D01*
X231941Y281834D01*
X231718Y281626D01*
X231644Y281522D01*
X231569Y281432D01*
X231525Y281373D01*
X231510Y281358D01*
X231361Y281165D01*
X231213Y280957D01*
X231049Y280734D01*
X230901Y280511D01*
X230767Y280318D01*
X230663Y280169D01*
X230633Y280110D01*
X230604Y280065D01*
X230574Y280036D01*
Y280021D01*
X229281Y278000D01*
X227661D01*
X229355Y280645D01*
X229549Y280927D01*
X229742Y281180D01*
X229920Y281403D01*
X230084Y281596D01*
X230217Y281744D01*
X230321Y281863D01*
X230396Y281923D01*
X230425Y281952D01*
X230529Y282042D01*
X230663Y282131D01*
X230916Y282294D01*
X231020Y282354D01*
X231109Y282398D01*
X231168Y282428D01*
X231198Y282443D01*
X230945Y282487D01*
X230708Y282532D01*
X230485Y282591D01*
X230292Y282666D01*
X230098Y282740D01*
X229935Y282814D01*
X229771Y282889D01*
X229638Y282963D01*
X229519Y283037D01*
X229415Y283097D01*
X229326Y283171D01*
X229251Y283216D01*
X229207Y283275D01*
X229162Y283305D01*
X229132Y283334D01*
X229014Y283468D01*
X228910Y283617D01*
X228731Y283914D01*
X228612Y284196D01*
X228538Y284478D01*
X228479Y284716D01*
X228464Y284820D01*
Y284909D01*
X228449Y284984D01*
Y285043D01*
Y285073D01*
Y285088D01*
X228464Y285385D01*
X228508Y285652D01*
X228583Y285905D01*
X228657Y286128D01*
X228731Y286306D01*
X228806Y286440D01*
X228850Y286529D01*
X228865Y286559D01*
X229028Y286796D01*
X229207Y286990D01*
X229385Y287153D01*
X229563Y287272D01*
X229712Y287376D01*
X229831Y287450D01*
X229920Y287480D01*
X229935Y287495D01*
X229950D01*
X230084Y287540D01*
X230232Y287584D01*
X230544Y287644D01*
X230871Y287703D01*
X231183Y287733D01*
X231480Y287747D01*
X231599D01*
X231718Y287762D01*
X236250D01*
Y278000D01*
D02*
G37*
G36*
X79511Y400947D02*
X79674Y400709D01*
X79852Y400487D01*
X80031Y400279D01*
X80194Y400115D01*
X80328Y399981D01*
X80417Y399892D01*
X80432Y399877D01*
X80447Y399863D01*
X80729Y399625D01*
X81026Y399402D01*
X81323Y399209D01*
X81591Y399045D01*
X81829Y398912D01*
X81933Y398867D01*
X82022Y398822D01*
X82081Y398778D01*
X82141Y398748D01*
X82170Y398733D01*
X82185D01*
Y397559D01*
X81977Y397649D01*
X81754Y397752D01*
X81546Y397842D01*
X81353Y397946D01*
X81190Y398035D01*
X81056Y398109D01*
X80967Y398169D01*
X80952Y398183D01*
X80937D01*
X80684Y398332D01*
X80462Y398495D01*
X80268Y398629D01*
X80105Y398763D01*
X79971Y398867D01*
X79867Y398941D01*
X79808Y399001D01*
X79793Y399016D01*
Y391378D01*
X78589D01*
Y401185D01*
X79377D01*
X79511Y400947D01*
D02*
G37*
G36*
X58937Y400693D02*
X59100Y400456D01*
X59278Y400233D01*
X59457Y400024D01*
X59620Y399861D01*
X59754Y399727D01*
X59843Y399638D01*
X59858Y399623D01*
X59873Y399608D01*
X60155Y399371D01*
X60452Y399148D01*
X60750Y398955D01*
X61017Y398791D01*
X61255Y398657D01*
X61359Y398613D01*
X61448Y398568D01*
X61507Y398524D01*
X61567Y398494D01*
X61596Y398479D01*
X61611D01*
Y397305D01*
X61403Y397394D01*
X61180Y397499D01*
X60972Y397588D01*
X60779Y397692D01*
X60616Y397781D01*
X60482Y397855D01*
X60393Y397915D01*
X60378Y397929D01*
X60363D01*
X60111Y398078D01*
X59888Y398242D01*
X59694Y398375D01*
X59531Y398509D01*
X59397Y398613D01*
X59293Y398687D01*
X59234Y398747D01*
X59219Y398761D01*
Y391124D01*
X58015D01*
Y400931D01*
X58803D01*
X58937Y400693D01*
D02*
G37*
G36*
X439567Y57836D02*
X438200D01*
X437145Y60793D01*
X433044D01*
X431914Y57836D01*
X430458D01*
X434426Y67598D01*
X435837D01*
X439567Y57836D01*
D02*
G37*
G36*
X430131Y66454D02*
X426922D01*
Y57836D01*
X425629D01*
Y66454D01*
X422419D01*
Y67598D01*
X430131D01*
Y66454D01*
D02*
G37*
G36*
X-79934Y368313D02*
X-79770Y368075D01*
X-79592Y367853D01*
X-79414Y367645D01*
X-79250Y367481D01*
X-79116Y367347D01*
X-79027Y367258D01*
X-79012Y367243D01*
X-78998Y367229D01*
X-78715Y366991D01*
X-78418Y366768D01*
X-78121Y366575D01*
X-77853Y366411D01*
X-77616Y366278D01*
X-77512Y366233D01*
X-77422Y366188D01*
X-77363Y366144D01*
X-77304Y366114D01*
X-77274Y366099D01*
X-77259D01*
Y364925D01*
X-77467Y365014D01*
X-77690Y365118D01*
X-77898Y365208D01*
X-78091Y365312D01*
X-78255Y365401D01*
X-78388Y365475D01*
X-78478Y365535D01*
X-78492Y365549D01*
X-78507D01*
X-78760Y365698D01*
X-78983Y365862D01*
X-79176Y365995D01*
X-79339Y366129D01*
X-79473Y366233D01*
X-79577Y366307D01*
X-79637Y366367D01*
X-79651Y366381D01*
Y358744D01*
X-80855D01*
Y368551D01*
X-80067D01*
X-79934Y368313D01*
D02*
G37*
G36*
X-70736Y368640D02*
X-70290Y368581D01*
X-69889Y368477D01*
X-69711Y368432D01*
X-69547Y368373D01*
X-69399Y368313D01*
X-69250Y368269D01*
X-69131Y368209D01*
X-69042Y368165D01*
X-68953Y368135D01*
X-68893Y368105D01*
X-68864Y368075D01*
X-68849D01*
X-68477Y367838D01*
X-68136Y367555D01*
X-67853Y367273D01*
X-67630Y366991D01*
X-67437Y366738D01*
X-67363Y366634D01*
X-67304Y366545D01*
X-67259Y366456D01*
X-67229Y366396D01*
X-67200Y366367D01*
Y366352D01*
X-67006Y365921D01*
X-66858Y365460D01*
X-66769Y365014D01*
X-66694Y364599D01*
X-66665Y364405D01*
X-66650Y364242D01*
X-66635Y364078D01*
Y363945D01*
X-66620Y363841D01*
Y363766D01*
Y363707D01*
Y363692D01*
X-66635Y363172D01*
X-66694Y362696D01*
X-66783Y362251D01*
X-66828Y362043D01*
X-66873Y361864D01*
X-66917Y361686D01*
X-66962Y361538D01*
X-67006Y361404D01*
X-67051Y361285D01*
X-67081Y361196D01*
X-67110Y361136D01*
X-67125Y361092D01*
Y361077D01*
X-67333Y360646D01*
X-67586Y360275D01*
X-67824Y359948D01*
X-68076Y359695D01*
X-68284Y359487D01*
X-68463Y359338D01*
X-68537Y359294D01*
X-68581Y359249D01*
X-68611Y359234D01*
X-68626Y359220D01*
X-68819Y359101D01*
X-69027Y359011D01*
X-69443Y358848D01*
X-69874Y358744D01*
X-70290Y358655D01*
X-70469Y358640D01*
X-70647Y358610D01*
X-70795Y358595D01*
X-70929D01*
X-71048Y358581D01*
X-71197D01*
X-71479Y358595D01*
X-71746Y358610D01*
X-72237Y358714D01*
X-72460Y358774D01*
X-72682Y358848D01*
X-72876Y358922D01*
X-73054Y358997D01*
X-73217Y359071D01*
X-73351Y359145D01*
X-73470Y359220D01*
X-73574Y359279D01*
X-73663Y359338D01*
X-73723Y359383D01*
X-73752Y359398D01*
X-73767Y359413D01*
X-73960Y359576D01*
X-74139Y359754D01*
X-74436Y360141D01*
X-74703Y360542D01*
X-74896Y360943D01*
X-74986Y361121D01*
X-75045Y361285D01*
X-75104Y361448D01*
X-75164Y361567D01*
X-75194Y361686D01*
X-75223Y361760D01*
X-75238Y361820D01*
Y361835D01*
X-73945Y362162D01*
X-73827Y361731D01*
X-73678Y361344D01*
X-73500Y361032D01*
X-73336Y360765D01*
X-73173Y360572D01*
X-73039Y360423D01*
X-72950Y360334D01*
X-72935Y360319D01*
X-72920Y360304D01*
X-72623Y360096D01*
X-72326Y359948D01*
X-72014Y359829D01*
X-71732Y359754D01*
X-71479Y359710D01*
X-71360Y359695D01*
X-71271D01*
X-71197Y359680D01*
X-71093D01*
X-70766Y359695D01*
X-70454Y359754D01*
X-70171Y359829D01*
X-69934Y359903D01*
X-69725Y359992D01*
X-69562Y360052D01*
X-69503Y360081D01*
X-69458Y360111D01*
X-69443Y360126D01*
X-69428D01*
X-69161Y360319D01*
X-68938Y360542D01*
X-68745Y360765D01*
X-68581Y361003D01*
X-68463Y361196D01*
X-68388Y361374D01*
X-68358Y361433D01*
X-68329Y361478D01*
X-68314Y361508D01*
Y361523D01*
X-68195Y361879D01*
X-68106Y362251D01*
X-68046Y362622D01*
X-68002Y362964D01*
X-67987Y363113D01*
X-67972Y363246D01*
Y363380D01*
X-67957Y363484D01*
Y363573D01*
Y363633D01*
Y363677D01*
Y363692D01*
X-67972Y364049D01*
X-68002Y364390D01*
X-68046Y364702D01*
X-68106Y364985D01*
X-68165Y365223D01*
X-68180Y365326D01*
X-68210Y365401D01*
X-68225Y365475D01*
X-68240Y365520D01*
X-68254Y365549D01*
Y365564D01*
X-68388Y365891D01*
X-68552Y366188D01*
X-68730Y366426D01*
X-68893Y366634D01*
X-69057Y366798D01*
X-69191Y366917D01*
X-69280Y366991D01*
X-69295Y367020D01*
X-69310D01*
X-69607Y367199D01*
X-69919Y367332D01*
X-70231Y367436D01*
X-70528Y367496D01*
X-70795Y367541D01*
X-70899Y367555D01*
X-71003D01*
X-71078Y367570D01*
X-71182D01*
X-71538Y367555D01*
X-71850Y367496D01*
X-72133Y367422D01*
X-72356Y367332D01*
X-72549Y367229D01*
X-72682Y367154D01*
X-72772Y367095D01*
X-72801Y367080D01*
X-73039Y366872D01*
X-73232Y366634D01*
X-73411Y366367D01*
X-73544Y366114D01*
X-73648Y365891D01*
X-73693Y365787D01*
X-73737Y365698D01*
X-73767Y365624D01*
X-73782Y365564D01*
X-73797Y365535D01*
Y365520D01*
X-75075Y365817D01*
X-74896Y366292D01*
X-74792Y366515D01*
X-74688Y366708D01*
X-74570Y366902D01*
X-74451Y367080D01*
X-74347Y367229D01*
X-74228Y367377D01*
X-74124Y367496D01*
X-74020Y367600D01*
X-73916Y367704D01*
X-73842Y367778D01*
X-73767Y367838D01*
X-73723Y367882D01*
X-73693Y367897D01*
X-73678Y367912D01*
X-73485Y368046D01*
X-73292Y368165D01*
X-73084Y368269D01*
X-72876Y368358D01*
X-72460Y368492D01*
X-72073Y368581D01*
X-71895Y368610D01*
X-71732Y368625D01*
X-71583Y368640D01*
X-71464Y368655D01*
X-71360Y368670D01*
X-71211D01*
X-70736Y368640D01*
D02*
G37*
G36*
X140952Y144744D02*
X139659D01*
Y149083D01*
X137995D01*
X137846Y149068D01*
X137728D01*
X137624Y149053D01*
X137549Y149038D01*
X137490D01*
X137460Y149023D01*
X137445D01*
X137222Y148949D01*
X137044Y148860D01*
X136970Y148815D01*
X136910Y148786D01*
X136881Y148771D01*
X136866Y148756D01*
X136747Y148682D01*
X136643Y148578D01*
X136420Y148370D01*
X136346Y148266D01*
X136271Y148176D01*
X136227Y148117D01*
X136212Y148102D01*
X136063Y147909D01*
X135915Y147701D01*
X135751Y147478D01*
X135603Y147255D01*
X135469Y147062D01*
X135365Y146913D01*
X135335Y146854D01*
X135306Y146809D01*
X135276Y146780D01*
Y146765D01*
X133983Y144744D01*
X132364D01*
X134057Y147389D01*
X134251Y147671D01*
X134444Y147924D01*
X134622Y148147D01*
X134785Y148340D01*
X134919Y148489D01*
X135023Y148607D01*
X135098Y148667D01*
X135127Y148696D01*
X135231Y148786D01*
X135365Y148875D01*
X135618Y149038D01*
X135722Y149098D01*
X135811Y149142D01*
X135870Y149172D01*
X135900Y149187D01*
X135647Y149231D01*
X135410Y149276D01*
X135187Y149335D01*
X134993Y149410D01*
X134800Y149484D01*
X134637Y149558D01*
X134473Y149633D01*
X134340Y149707D01*
X134221Y149781D01*
X134117Y149841D01*
X134028Y149915D01*
X133953Y149959D01*
X133909Y150019D01*
X133864Y150049D01*
X133834Y150078D01*
X133716Y150212D01*
X133612Y150361D01*
X133433Y150658D01*
X133315Y150940D01*
X133240Y151222D01*
X133181Y151460D01*
X133166Y151564D01*
Y151653D01*
X133151Y151728D01*
Y151787D01*
Y151817D01*
Y151832D01*
X133166Y152129D01*
X133210Y152396D01*
X133285Y152649D01*
X133359Y152872D01*
X133433Y153050D01*
X133508Y153184D01*
X133552Y153273D01*
X133567Y153303D01*
X133730Y153540D01*
X133909Y153734D01*
X134087Y153897D01*
X134265Y154016D01*
X134414Y154120D01*
X134533Y154194D01*
X134622Y154224D01*
X134637Y154239D01*
X134652D01*
X134785Y154284D01*
X134934Y154328D01*
X135246Y154388D01*
X135573Y154447D01*
X135885Y154477D01*
X136182Y154492D01*
X136301D01*
X136420Y154506D01*
X140952D01*
Y144744D01*
D02*
G37*
G36*
X128693Y154536D02*
X128901Y154521D01*
X129303Y154432D01*
X129659Y154328D01*
X129942Y154194D01*
X130075Y154120D01*
X130179Y154061D01*
X130268Y153986D01*
X130358Y153942D01*
X130417Y153897D01*
X130462Y153853D01*
X130476Y153838D01*
X130491Y153823D01*
X130625Y153689D01*
X130744Y153540D01*
X130848Y153392D01*
X130922Y153229D01*
X131071Y152931D01*
X131160Y152649D01*
X131205Y152396D01*
X131219Y152292D01*
X131234Y152203D01*
X131249Y152129D01*
Y152070D01*
Y152040D01*
Y152025D01*
X131234Y151772D01*
X131190Y151549D01*
X131130Y151341D01*
X131071Y151163D01*
X131011Y151014D01*
X130952Y150911D01*
X130907Y150851D01*
X130892Y150821D01*
X130744Y150643D01*
X130566Y150494D01*
X130387Y150361D01*
X130194Y150242D01*
X130031Y150168D01*
X129897Y150093D01*
X129808Y150063D01*
X129793Y150049D01*
X129778D01*
X130090Y149945D01*
X130372Y149811D01*
X130610Y149662D01*
X130803Y149514D01*
X130952Y149380D01*
X131071Y149261D01*
X131130Y149187D01*
X131160Y149172D01*
Y149157D01*
X131323Y148904D01*
X131427Y148637D01*
X131517Y148370D01*
X131576Y148117D01*
X131606Y147909D01*
X131621Y147805D01*
Y147731D01*
X131635Y147656D01*
Y147612D01*
Y147582D01*
Y147567D01*
X131621Y147330D01*
X131591Y147107D01*
X131561Y146899D01*
X131502Y146691D01*
X131353Y146334D01*
X131279Y146171D01*
X131190Y146022D01*
X131115Y145888D01*
X131041Y145769D01*
X130967Y145665D01*
X130892Y145576D01*
X130833Y145517D01*
X130803Y145472D01*
X130774Y145442D01*
X130759Y145428D01*
X130580Y145279D01*
X130402Y145145D01*
X130209Y145041D01*
X130016Y144937D01*
X129823Y144863D01*
X129629Y144789D01*
X129258Y144685D01*
X129080Y144655D01*
X128931Y144625D01*
X128783Y144610D01*
X128664Y144595D01*
X128560Y144581D01*
X128426D01*
X128158Y144595D01*
X127906Y144610D01*
X127668Y144655D01*
X127460Y144714D01*
X127252Y144774D01*
X127059Y144848D01*
X126881Y144922D01*
X126717Y145012D01*
X126568Y145086D01*
X126450Y145160D01*
X126346Y145234D01*
X126256Y145294D01*
X126182Y145353D01*
X126138Y145398D01*
X126108Y145413D01*
X126093Y145428D01*
X125929Y145591D01*
X125796Y145754D01*
X125677Y145933D01*
X125573Y146111D01*
X125484Y146289D01*
X125424Y146468D01*
X125306Y146795D01*
X125246Y147092D01*
X125231Y147226D01*
X125216Y147330D01*
X125202Y147419D01*
Y147478D01*
Y147523D01*
Y147537D01*
X125216Y147864D01*
X125276Y148162D01*
X125350Y148429D01*
X125439Y148652D01*
X125528Y148845D01*
X125603Y148979D01*
X125662Y149068D01*
X125677Y149098D01*
X125870Y149321D01*
X126093Y149529D01*
X126316Y149692D01*
X126539Y149826D01*
X126732Y149915D01*
X126895Y149989D01*
X126955Y150019D01*
X126999Y150034D01*
X127029Y150049D01*
X127044D01*
X126791Y150153D01*
X126568Y150286D01*
X126375Y150405D01*
X126227Y150524D01*
X126108Y150643D01*
X126019Y150732D01*
X125974Y150792D01*
X125959Y150807D01*
X125840Y151000D01*
X125751Y151208D01*
X125692Y151401D01*
X125647Y151594D01*
X125618Y151757D01*
X125603Y151876D01*
Y151966D01*
Y151995D01*
X125618Y152188D01*
X125632Y152381D01*
X125722Y152723D01*
X125855Y153035D01*
X125989Y153303D01*
X126138Y153511D01*
X126212Y153600D01*
X126271Y153674D01*
X126316Y153734D01*
X126361Y153778D01*
X126375Y153793D01*
X126390Y153808D01*
X126539Y153942D01*
X126702Y154061D01*
X126866Y154150D01*
X127044Y154239D01*
X127386Y154373D01*
X127713Y154462D01*
X128010Y154506D01*
X128129Y154536D01*
X128247D01*
X128337Y154551D01*
X128456D01*
X128693Y154536D01*
D02*
G37*
G36*
X221369Y227792D02*
X221606Y227777D01*
X222052Y227688D01*
X222245Y227644D01*
X222439Y227584D01*
X222602Y227510D01*
X222750Y227450D01*
X222884Y227376D01*
X223003Y227317D01*
X223107Y227242D01*
X223196Y227198D01*
X223256Y227153D01*
X223300Y227109D01*
X223330Y227094D01*
X223345Y227079D01*
X223493Y226930D01*
X223612Y226782D01*
X223835Y226440D01*
X223999Y226098D01*
X224118Y225756D01*
X224207Y225459D01*
X224222Y225326D01*
X224251Y225207D01*
X224266Y225117D01*
X224281Y225043D01*
Y224999D01*
Y224984D01*
X223048Y224850D01*
X223018Y225177D01*
X222959Y225459D01*
X222884Y225697D01*
X222780Y225905D01*
X222691Y226068D01*
X222602Y226187D01*
X222542Y226247D01*
X222528Y226276D01*
X222320Y226455D01*
X222097Y226588D01*
X221859Y226678D01*
X221636Y226752D01*
X221443Y226782D01*
X221294Y226796D01*
X221235Y226811D01*
X221146D01*
X220849Y226796D01*
X220581Y226737D01*
X220358Y226663D01*
X220165Y226574D01*
X220016Y226470D01*
X219898Y226395D01*
X219838Y226336D01*
X219809Y226321D01*
X219630Y226128D01*
X219511Y225920D01*
X219422Y225727D01*
X219348Y225534D01*
X219318Y225370D01*
X219303Y225236D01*
X219288Y225147D01*
Y225132D01*
Y225117D01*
X219318Y224865D01*
X219377Y224597D01*
X219467Y224360D01*
X219571Y224137D01*
X219675Y223944D01*
X219764Y223795D01*
X219794Y223736D01*
X219823Y223691D01*
X219853Y223676D01*
Y223661D01*
X219972Y223513D01*
X220106Y223349D01*
X220254Y223186D01*
X220432Y223022D01*
X220789Y222681D01*
X221146Y222339D01*
X221473Y222057D01*
X221621Y221923D01*
X221755Y221819D01*
X221859Y221715D01*
X221933Y221655D01*
X221993Y221611D01*
X222008Y221596D01*
X222364Y221284D01*
X222691Y221001D01*
X222959Y220749D01*
X223181Y220541D01*
X223360Y220363D01*
X223479Y220229D01*
X223553Y220140D01*
X223583Y220125D01*
Y220110D01*
X223776Y219872D01*
X223924Y219649D01*
X224073Y219426D01*
X224177Y219233D01*
X224266Y219055D01*
X224326Y218936D01*
X224355Y218847D01*
X224370Y218832D01*
Y218817D01*
X224415Y218669D01*
X224459Y218520D01*
X224474Y218386D01*
X224489Y218267D01*
X224504Y218163D01*
Y218074D01*
Y218015D01*
Y218000D01*
X218040D01*
Y219144D01*
X222840D01*
X222676Y219382D01*
X222513Y219575D01*
X222439Y219664D01*
X222379Y219724D01*
X222349Y219768D01*
X222334Y219783D01*
X222260Y219857D01*
X222186Y219932D01*
X221993Y220110D01*
X221755Y220318D01*
X221532Y220526D01*
X221309Y220719D01*
X221131Y220868D01*
X221057Y220927D01*
X220997Y220972D01*
X220968Y221001D01*
X220953Y221016D01*
X220715Y221224D01*
X220507Y221403D01*
X220299Y221581D01*
X220121Y221744D01*
X219957Y221908D01*
X219809Y222042D01*
X219660Y222175D01*
X219541Y222294D01*
X219437Y222398D01*
X219348Y222487D01*
X219214Y222621D01*
X219140Y222710D01*
X219110Y222740D01*
X218917Y222978D01*
X218739Y223186D01*
X218605Y223394D01*
X218501Y223572D01*
X218412Y223721D01*
X218352Y223825D01*
X218323Y223899D01*
X218308Y223929D01*
X218218Y224137D01*
X218159Y224345D01*
X218114Y224538D01*
X218085Y224716D01*
X218070Y224865D01*
X218055Y224984D01*
Y225058D01*
Y225088D01*
X218070Y225296D01*
X218085Y225504D01*
X218189Y225875D01*
X218323Y226202D01*
X218471Y226485D01*
X218620Y226707D01*
X218694Y226796D01*
X218754Y226886D01*
X218813Y226945D01*
X218857Y226990D01*
X218872Y227005D01*
X218887Y227019D01*
X219051Y227153D01*
X219214Y227287D01*
X219392Y227391D01*
X219586Y227480D01*
X219957Y227614D01*
X220314Y227703D01*
X220477Y227747D01*
X220626Y227762D01*
X220759Y227777D01*
X220878Y227792D01*
X220982Y227807D01*
X221116D01*
X221369Y227792D01*
D02*
G37*
G36*
X228323Y227569D02*
X228486Y227331D01*
X228664Y227109D01*
X228843Y226901D01*
X229006Y226737D01*
X229140Y226603D01*
X229229Y226514D01*
X229244Y226499D01*
X229259Y226485D01*
X229541Y226247D01*
X229838Y226024D01*
X230135Y225831D01*
X230403Y225667D01*
X230641Y225534D01*
X230745Y225489D01*
X230834Y225444D01*
X230893Y225400D01*
X230953Y225370D01*
X230982Y225355D01*
X230997D01*
Y224181D01*
X230789Y224270D01*
X230566Y224375D01*
X230358Y224464D01*
X230165Y224568D01*
X230002Y224657D01*
X229868Y224731D01*
X229779Y224791D01*
X229764Y224805D01*
X229749D01*
X229496Y224954D01*
X229274Y225117D01*
X229081Y225251D01*
X228917Y225385D01*
X228783Y225489D01*
X228679Y225563D01*
X228620Y225623D01*
X228605Y225637D01*
Y218000D01*
X227401D01*
Y227807D01*
X228189D01*
X228323Y227569D01*
D02*
G37*
G36*
X643733Y292524D02*
X643971Y292509D01*
X644416Y292420D01*
X644610Y292376D01*
X644803Y292316D01*
X644966Y292242D01*
X645115Y292182D01*
X645248Y292108D01*
X645367Y292049D01*
X645471Y291974D01*
X645561Y291930D01*
X645620Y291885D01*
X645665Y291840D01*
X645694Y291826D01*
X645709Y291811D01*
X645858Y291662D01*
X645976Y291514D01*
X646199Y291172D01*
X646363Y290830D01*
X646482Y290488D01*
X646571Y290191D01*
X646586Y290058D01*
X646616Y289939D01*
X646630Y289849D01*
X646645Y289775D01*
Y289731D01*
Y289716D01*
X645412Y289582D01*
X645382Y289909D01*
X645323Y290191D01*
X645248Y290429D01*
X645144Y290637D01*
X645055Y290800D01*
X644966Y290919D01*
X644907Y290979D01*
X644892Y291008D01*
X644684Y291187D01*
X644461Y291320D01*
X644223Y291410D01*
X644000Y291484D01*
X643807Y291514D01*
X643659Y291528D01*
X643599Y291543D01*
X643510D01*
X643213Y291528D01*
X642945Y291469D01*
X642722Y291395D01*
X642529Y291306D01*
X642381Y291202D01*
X642262Y291127D01*
X642202Y291068D01*
X642173Y291053D01*
X641994Y290860D01*
X641875Y290652D01*
X641786Y290459D01*
X641712Y290266D01*
X641682Y290102D01*
X641667Y289968D01*
X641653Y289879D01*
Y289864D01*
Y289849D01*
X641682Y289597D01*
X641742Y289329D01*
X641831Y289092D01*
X641935Y288869D01*
X642039Y288676D01*
X642128Y288527D01*
X642158Y288468D01*
X642188Y288423D01*
X642217Y288408D01*
Y288393D01*
X642336Y288245D01*
X642470Y288081D01*
X642618Y287918D01*
X642797Y287754D01*
X643153Y287413D01*
X643510Y287071D01*
X643837Y286789D01*
X643985Y286655D01*
X644119Y286551D01*
X644223Y286447D01*
X644297Y286387D01*
X644357Y286343D01*
X644372Y286328D01*
X644728Y286016D01*
X645055Y285734D01*
X645323Y285481D01*
X645546Y285273D01*
X645724Y285095D01*
X645843Y284961D01*
X645917Y284872D01*
X645947Y284857D01*
Y284842D01*
X646140Y284604D01*
X646289Y284381D01*
X646437Y284158D01*
X646541Y283965D01*
X646630Y283787D01*
X646690Y283668D01*
X646720Y283579D01*
X646734Y283564D01*
Y283549D01*
X646779Y283401D01*
X646824Y283252D01*
X646838Y283118D01*
X646853Y282999D01*
X646868Y282895D01*
Y282806D01*
Y282747D01*
Y282732D01*
X640404D01*
Y283876D01*
X645204D01*
X645040Y284114D01*
X644877Y284307D01*
X644803Y284396D01*
X644743Y284456D01*
X644714Y284500D01*
X644699Y284515D01*
X644624Y284589D01*
X644550Y284664D01*
X644357Y284842D01*
X644119Y285050D01*
X643896Y285258D01*
X643673Y285451D01*
X643495Y285600D01*
X643421Y285659D01*
X643361Y285704D01*
X643332Y285734D01*
X643317Y285748D01*
X643079Y285956D01*
X642871Y286135D01*
X642663Y286313D01*
X642485Y286476D01*
X642321Y286640D01*
X642173Y286774D01*
X642024Y286907D01*
X641905Y287026D01*
X641801Y287130D01*
X641712Y287219D01*
X641578Y287353D01*
X641504Y287442D01*
X641474Y287472D01*
X641281Y287710D01*
X641103Y287918D01*
X640969Y288126D01*
X640865Y288304D01*
X640776Y288453D01*
X640716Y288557D01*
X640687Y288631D01*
X640672Y288661D01*
X640583Y288869D01*
X640523Y289077D01*
X640479Y289270D01*
X640449Y289448D01*
X640434Y289597D01*
X640419Y289716D01*
Y289790D01*
Y289820D01*
X640434Y290028D01*
X640449Y290236D01*
X640553Y290607D01*
X640687Y290934D01*
X640835Y291217D01*
X640984Y291439D01*
X641058Y291528D01*
X641118Y291618D01*
X641177Y291677D01*
X641222Y291722D01*
X641236Y291737D01*
X641251Y291751D01*
X641415Y291885D01*
X641578Y292019D01*
X641757Y292123D01*
X641950Y292212D01*
X642321Y292346D01*
X642678Y292435D01*
X642841Y292479D01*
X642990Y292494D01*
X643124Y292509D01*
X643242Y292524D01*
X643346Y292539D01*
X643480D01*
X643733Y292524D01*
D02*
G37*
G36*
X656036Y286848D02*
Y286566D01*
X656021Y286298D01*
X656006Y286045D01*
X655977Y285808D01*
X655947Y285600D01*
X655917Y285392D01*
X655888Y285213D01*
X655843Y285050D01*
X655813Y284901D01*
X655783Y284768D01*
X655754Y284649D01*
X655724Y284560D01*
X655694Y284485D01*
X655679Y284441D01*
X655665Y284411D01*
Y284396D01*
X655501Y284084D01*
X655308Y283802D01*
X655115Y283579D01*
X654907Y283386D01*
X654728Y283222D01*
X654565Y283118D01*
X654506Y283074D01*
X654476Y283059D01*
X654446Y283029D01*
X654431D01*
X654090Y282881D01*
X653703Y282762D01*
X653332Y282687D01*
X652975Y282628D01*
X652812Y282613D01*
X652663Y282598D01*
X652529Y282583D01*
X652411D01*
X652321Y282568D01*
X652188D01*
X651682Y282598D01*
X651237Y282658D01*
X651029Y282687D01*
X650850Y282732D01*
X650672Y282791D01*
X650523Y282836D01*
X650390Y282881D01*
X650256Y282940D01*
X650152Y282985D01*
X650078Y283014D01*
X650003Y283059D01*
X649959Y283074D01*
X649929Y283103D01*
X649914D01*
X649617Y283326D01*
X649350Y283549D01*
X649141Y283787D01*
X648978Y284010D01*
X648859Y284218D01*
X648770Y284366D01*
X648740Y284426D01*
X648725Y284471D01*
X648711Y284500D01*
Y284515D01*
X648592Y284857D01*
X648517Y285243D01*
X648458Y285630D01*
X648413Y286001D01*
X648399Y286179D01*
X648384Y286343D01*
Y286476D01*
X648369Y286610D01*
Y286714D01*
Y286789D01*
Y286833D01*
Y286848D01*
Y292494D01*
X649662D01*
Y286848D01*
Y286521D01*
X649691Y286209D01*
X649721Y285942D01*
X649751Y285689D01*
X649795Y285451D01*
X649855Y285258D01*
X649914Y285080D01*
X649959Y284916D01*
X650018Y284783D01*
X650078Y284664D01*
X650122Y284575D01*
X650182Y284500D01*
X650211Y284441D01*
X650241Y284396D01*
X650271Y284381D01*
Y284366D01*
X650390Y284248D01*
X650538Y284158D01*
X650850Y283995D01*
X651177Y283891D01*
X651519Y283802D01*
X651816Y283757D01*
X651950Y283742D01*
X652069D01*
X652173Y283727D01*
X652307D01*
X652604Y283742D01*
X652871Y283772D01*
X653109Y283832D01*
X653317Y283891D01*
X653480Y283936D01*
X653599Y283995D01*
X653673Y284025D01*
X653703Y284040D01*
X653911Y284173D01*
X654075Y284322D01*
X654223Y284485D01*
X654327Y284634D01*
X654416Y284768D01*
X654476Y284872D01*
X654506Y284946D01*
X654520Y284976D01*
X654565Y285095D01*
X654595Y285228D01*
X654654Y285525D01*
X654684Y285837D01*
X654714Y286135D01*
X654728Y286417D01*
X654743Y286536D01*
Y286640D01*
Y286729D01*
Y286789D01*
Y286833D01*
Y286848D01*
Y292494D01*
X656036D01*
Y286848D01*
D02*
G37*
G36*
X4750Y43750D02*
X3457D01*
Y48089D01*
X1793D01*
X1645Y48074D01*
X1526D01*
X1422Y48059D01*
X1347Y48044D01*
X1288D01*
X1258Y48029D01*
X1243D01*
X1020Y47955D01*
X842Y47866D01*
X768Y47821D01*
X708Y47792D01*
X679Y47777D01*
X664Y47762D01*
X545Y47688D01*
X441Y47584D01*
X218Y47376D01*
X144Y47272D01*
X69Y47182D01*
X25Y47123D01*
X10Y47108D01*
X-139Y46915D01*
X-287Y46707D01*
X-451Y46484D01*
X-599Y46261D01*
X-733Y46068D01*
X-837Y45919D01*
X-867Y45860D01*
X-896Y45815D01*
X-926Y45786D01*
Y45771D01*
X-2219Y43750D01*
X-3839D01*
X-2145Y46395D01*
X-1951Y46677D01*
X-1758Y46930D01*
X-1580Y47153D01*
X-1417Y47346D01*
X-1283Y47495D01*
X-1179Y47613D01*
X-1104Y47673D01*
X-1075Y47702D01*
X-971Y47792D01*
X-837Y47881D01*
X-584Y48044D01*
X-480Y48104D01*
X-391Y48148D01*
X-332Y48178D01*
X-302Y48193D01*
X-555Y48237D01*
X-792Y48282D01*
X-1015Y48341D01*
X-1208Y48416D01*
X-1402Y48490D01*
X-1565Y48564D01*
X-1728Y48639D01*
X-1862Y48713D01*
X-1981Y48787D01*
X-2085Y48847D01*
X-2174Y48921D01*
X-2249Y48966D01*
X-2293Y49025D01*
X-2338Y49055D01*
X-2368Y49084D01*
X-2486Y49218D01*
X-2590Y49367D01*
X-2769Y49664D01*
X-2887Y49946D01*
X-2962Y50229D01*
X-3021Y50466D01*
X-3036Y50570D01*
Y50659D01*
X-3051Y50734D01*
Y50793D01*
Y50823D01*
Y50838D01*
X-3036Y51135D01*
X-2991Y51402D01*
X-2917Y51655D01*
X-2843Y51878D01*
X-2769Y52056D01*
X-2694Y52190D01*
X-2650Y52279D01*
X-2635Y52309D01*
X-2472Y52547D01*
X-2293Y52740D01*
X-2115Y52903D01*
X-1937Y53022D01*
X-1788Y53126D01*
X-1669Y53200D01*
X-1580Y53230D01*
X-1565Y53245D01*
X-1550D01*
X-1417Y53289D01*
X-1268Y53334D01*
X-956Y53394D01*
X-629Y53453D01*
X-317Y53483D01*
X-20Y53498D01*
X99D01*
X218Y53512D01*
X4750D01*
Y43750D01*
D02*
G37*
G36*
X-64531Y385679D02*
X-64368Y385442D01*
X-64190Y385219D01*
X-64011Y385011D01*
X-63848Y384847D01*
X-63714Y384713D01*
X-63625Y384624D01*
X-63610Y384609D01*
X-63595Y384594D01*
X-63313Y384357D01*
X-63016Y384134D01*
X-62719Y383941D01*
X-62451Y383777D01*
X-62213Y383643D01*
X-62109Y383599D01*
X-62020Y383554D01*
X-61961Y383510D01*
X-61901Y383480D01*
X-61872Y383465D01*
X-61857D01*
Y382291D01*
X-62065Y382380D01*
X-62288Y382485D01*
X-62496Y382574D01*
X-62689Y382678D01*
X-62852Y382767D01*
X-62986Y382841D01*
X-63075Y382901D01*
X-63090Y382915D01*
X-63105D01*
X-63358Y383064D01*
X-63580Y383228D01*
X-63773Y383361D01*
X-63937Y383495D01*
X-64071Y383599D01*
X-64175Y383673D01*
X-64234Y383733D01*
X-64249Y383747D01*
Y376110D01*
X-65453D01*
Y385917D01*
X-64665D01*
X-64531Y385679D01*
D02*
G37*
G36*
X-7226Y53527D02*
X-6855Y53453D01*
X-6513Y53349D01*
X-6231Y53230D01*
X-6008Y53096D01*
X-5919Y53037D01*
X-5845Y52992D01*
X-5770Y52948D01*
X-5726Y52918D01*
X-5711Y52903D01*
X-5696Y52888D01*
X-5428Y52621D01*
X-5220Y52324D01*
X-5042Y52012D01*
X-4923Y51714D01*
X-4819Y51447D01*
X-4789Y51328D01*
X-4760Y51224D01*
X-4745Y51150D01*
X-4730Y51090D01*
X-4715Y51046D01*
Y51031D01*
X-5919Y50823D01*
X-5978Y51135D01*
X-6067Y51402D01*
X-6156Y51625D01*
X-6260Y51804D01*
X-6350Y51952D01*
X-6424Y52056D01*
X-6483Y52116D01*
X-6498Y52130D01*
X-6691Y52279D01*
X-6885Y52383D01*
X-7078Y52472D01*
X-7271Y52517D01*
X-7419Y52547D01*
X-7553Y52576D01*
X-7672D01*
X-7925Y52561D01*
X-8148Y52502D01*
X-8341Y52442D01*
X-8504Y52353D01*
X-8638Y52279D01*
X-8742Y52205D01*
X-8801Y52145D01*
X-8816Y52130D01*
X-8965Y51967D01*
X-9069Y51774D01*
X-9158Y51596D01*
X-9203Y51432D01*
X-9232Y51269D01*
X-9262Y51150D01*
Y51076D01*
Y51061D01*
Y51046D01*
X-9232Y50749D01*
X-9158Y50496D01*
X-9069Y50288D01*
X-8950Y50125D01*
X-8831Y49991D01*
X-8742Y49887D01*
X-8668Y49827D01*
X-8638Y49812D01*
X-8400Y49679D01*
X-8163Y49590D01*
X-7940Y49515D01*
X-7732Y49471D01*
X-7538Y49441D01*
X-7405Y49426D01*
X-7211D01*
X-7152Y49441D01*
X-7078D01*
X-6944Y48386D01*
X-7122Y48431D01*
X-7286Y48460D01*
X-7434Y48475D01*
X-7553Y48490D01*
X-7657Y48505D01*
X-7791D01*
X-8088Y48475D01*
X-8341Y48416D01*
X-8579Y48341D01*
X-8772Y48237D01*
X-8935Y48133D01*
X-9054Y48059D01*
X-9113Y48000D01*
X-9143Y47970D01*
X-9322Y47762D01*
X-9455Y47539D01*
X-9559Y47301D01*
X-9619Y47093D01*
X-9663Y46900D01*
X-9678Y46751D01*
X-9693Y46692D01*
Y46648D01*
Y46633D01*
Y46618D01*
X-9663Y46306D01*
X-9604Y46023D01*
X-9515Y45771D01*
X-9411Y45563D01*
X-9292Y45384D01*
X-9203Y45266D01*
X-9143Y45191D01*
X-9113Y45162D01*
X-8891Y44968D01*
X-8653Y44820D01*
X-8415Y44731D01*
X-8177Y44656D01*
X-7984Y44612D01*
X-7836Y44597D01*
X-7776Y44582D01*
X-7687D01*
X-7434Y44597D01*
X-7197Y44656D01*
X-6989Y44731D01*
X-6825Y44805D01*
X-6677Y44894D01*
X-6573Y44954D01*
X-6513Y45013D01*
X-6483Y45028D01*
X-6320Y45221D01*
X-6171Y45444D01*
X-6053Y45697D01*
X-5963Y45934D01*
X-5889Y46157D01*
X-5845Y46336D01*
X-5815Y46395D01*
Y46454D01*
X-5800Y46484D01*
Y46499D01*
X-4596Y46336D01*
X-4626Y46113D01*
X-4671Y45905D01*
X-4804Y45518D01*
X-4953Y45177D01*
X-5131Y44879D01*
X-5206Y44760D01*
X-5295Y44656D01*
X-5369Y44567D01*
X-5428Y44478D01*
X-5488Y44419D01*
X-5532Y44374D01*
X-5547Y44359D01*
X-5562Y44344D01*
X-5726Y44211D01*
X-5904Y44092D01*
X-6067Y43988D01*
X-6246Y43913D01*
X-6602Y43765D01*
X-6944Y43676D01*
X-7093Y43646D01*
X-7241Y43631D01*
X-7360Y43616D01*
X-7479Y43601D01*
X-7568Y43587D01*
X-7687D01*
X-7940Y43601D01*
X-8192Y43631D01*
X-8430Y43661D01*
X-8653Y43720D01*
X-8861Y43795D01*
X-9054Y43869D01*
X-9232Y43943D01*
X-9396Y44032D01*
X-9530Y44107D01*
X-9663Y44181D01*
X-9782Y44255D01*
X-9871Y44330D01*
X-9945Y44389D01*
X-9990Y44419D01*
X-10020Y44448D01*
X-10035Y44463D01*
X-10198Y44641D01*
X-10347Y44820D01*
X-10466Y44998D01*
X-10570Y45177D01*
X-10674Y45355D01*
X-10748Y45548D01*
X-10852Y45890D01*
X-10897Y46038D01*
X-10926Y46187D01*
X-10941Y46306D01*
X-10956Y46425D01*
X-10971Y46514D01*
Y46573D01*
Y46618D01*
Y46633D01*
X-10956Y46974D01*
X-10897Y47286D01*
X-10822Y47554D01*
X-10733Y47777D01*
X-10629Y47955D01*
X-10555Y48089D01*
X-10495Y48178D01*
X-10481Y48208D01*
X-10287Y48431D01*
X-10064Y48609D01*
X-9841Y48758D01*
X-9633Y48861D01*
X-9440Y48951D01*
X-9292Y48995D01*
X-9232Y49025D01*
X-9188D01*
X-9158Y49040D01*
X-9143D01*
X-9381Y49159D01*
X-9589Y49307D01*
X-9752Y49441D01*
X-9901Y49575D01*
X-10005Y49694D01*
X-10094Y49783D01*
X-10139Y49842D01*
X-10154Y49872D01*
X-10272Y50065D01*
X-10347Y50273D01*
X-10406Y50466D01*
X-10451Y50645D01*
X-10481Y50793D01*
X-10495Y50912D01*
Y50986D01*
Y51016D01*
X-10481Y51269D01*
X-10436Y51491D01*
X-10376Y51700D01*
X-10317Y51893D01*
X-10258Y52041D01*
X-10198Y52160D01*
X-10154Y52235D01*
X-10139Y52264D01*
X-9990Y52472D01*
X-9827Y52665D01*
X-9648Y52829D01*
X-9485Y52963D01*
X-9336Y53067D01*
X-9218Y53141D01*
X-9128Y53186D01*
X-9113Y53200D01*
X-9099D01*
X-8846Y53319D01*
X-8593Y53408D01*
X-8341Y53468D01*
X-8118Y53512D01*
X-7925Y53542D01*
X-7776Y53557D01*
X-7434D01*
X-7226Y53527D01*
D02*
G37*
G36*
X241250Y237750D02*
X239957D01*
Y242089D01*
X238293D01*
X238144Y242074D01*
X238026D01*
X237922Y242059D01*
X237847Y242044D01*
X237788D01*
X237758Y242029D01*
X237743D01*
X237520Y241955D01*
X237342Y241866D01*
X237268Y241821D01*
X237208Y241792D01*
X237179Y241777D01*
X237164Y241762D01*
X237045Y241688D01*
X236941Y241584D01*
X236718Y241376D01*
X236644Y241272D01*
X236569Y241182D01*
X236525Y241123D01*
X236510Y241108D01*
X236361Y240915D01*
X236213Y240707D01*
X236049Y240484D01*
X235901Y240261D01*
X235767Y240068D01*
X235663Y239919D01*
X235633Y239860D01*
X235604Y239815D01*
X235574Y239786D01*
Y239771D01*
X234281Y237750D01*
X232661D01*
X234355Y240395D01*
X234549Y240677D01*
X234742Y240930D01*
X234920Y241153D01*
X235084Y241346D01*
X235217Y241495D01*
X235321Y241613D01*
X235396Y241673D01*
X235425Y241702D01*
X235529Y241792D01*
X235663Y241881D01*
X235916Y242044D01*
X236020Y242104D01*
X236109Y242148D01*
X236168Y242178D01*
X236198Y242193D01*
X235945Y242237D01*
X235708Y242282D01*
X235485Y242341D01*
X235292Y242416D01*
X235098Y242490D01*
X234935Y242564D01*
X234771Y242639D01*
X234638Y242713D01*
X234519Y242787D01*
X234415Y242847D01*
X234326Y242921D01*
X234251Y242966D01*
X234207Y243025D01*
X234162Y243055D01*
X234132Y243084D01*
X234014Y243218D01*
X233910Y243367D01*
X233731Y243664D01*
X233612Y243946D01*
X233538Y244228D01*
X233479Y244466D01*
X233464Y244570D01*
Y244659D01*
X233449Y244734D01*
Y244793D01*
Y244823D01*
Y244838D01*
X233464Y245135D01*
X233508Y245402D01*
X233583Y245655D01*
X233657Y245878D01*
X233731Y246056D01*
X233806Y246190D01*
X233850Y246279D01*
X233865Y246309D01*
X234028Y246546D01*
X234207Y246740D01*
X234385Y246903D01*
X234563Y247022D01*
X234712Y247126D01*
X234831Y247200D01*
X234920Y247230D01*
X234935Y247245D01*
X234950D01*
X235084Y247290D01*
X235232Y247334D01*
X235544Y247393D01*
X235871Y247453D01*
X236183Y247483D01*
X236480Y247498D01*
X236599D01*
X236718Y247512D01*
X241250D01*
Y237750D01*
D02*
G37*
G36*
X228323Y247319D02*
X228486Y247081D01*
X228664Y246859D01*
X228843Y246651D01*
X229006Y246487D01*
X229140Y246353D01*
X229229Y246264D01*
X229244Y246249D01*
X229259Y246234D01*
X229541Y245997D01*
X229838Y245774D01*
X230135Y245581D01*
X230403Y245417D01*
X230641Y245284D01*
X230745Y245239D01*
X230834Y245194D01*
X230893Y245150D01*
X230953Y245120D01*
X230982Y245105D01*
X230997D01*
Y243931D01*
X230789Y244021D01*
X230566Y244125D01*
X230358Y244214D01*
X230165Y244318D01*
X230002Y244407D01*
X229868Y244481D01*
X229779Y244541D01*
X229764Y244555D01*
X229749D01*
X229496Y244704D01*
X229274Y244867D01*
X229081Y245001D01*
X228917Y245135D01*
X228783Y245239D01*
X228679Y245313D01*
X228620Y245373D01*
X228605Y245387D01*
Y237750D01*
X227401D01*
Y247557D01*
X228189D01*
X228323Y247319D01*
D02*
G37*
G36*
X241250Y218000D02*
X239957D01*
Y222339D01*
X238293D01*
X238144Y222324D01*
X238026D01*
X237922Y222309D01*
X237847Y222294D01*
X237788D01*
X237758Y222279D01*
X237743D01*
X237520Y222205D01*
X237342Y222116D01*
X237268Y222071D01*
X237208Y222042D01*
X237179Y222027D01*
X237164Y222012D01*
X237045Y221938D01*
X236941Y221834D01*
X236718Y221626D01*
X236644Y221522D01*
X236569Y221432D01*
X236525Y221373D01*
X236510Y221358D01*
X236361Y221165D01*
X236213Y220957D01*
X236049Y220734D01*
X235901Y220511D01*
X235767Y220318D01*
X235663Y220169D01*
X235633Y220110D01*
X235604Y220065D01*
X235574Y220036D01*
Y220021D01*
X234281Y218000D01*
X232661D01*
X234355Y220645D01*
X234549Y220927D01*
X234742Y221180D01*
X234920Y221403D01*
X235084Y221596D01*
X235217Y221744D01*
X235321Y221863D01*
X235396Y221923D01*
X235425Y221952D01*
X235529Y222042D01*
X235663Y222131D01*
X235916Y222294D01*
X236020Y222354D01*
X236109Y222398D01*
X236168Y222428D01*
X236198Y222443D01*
X235945Y222487D01*
X235708Y222532D01*
X235485Y222591D01*
X235292Y222666D01*
X235098Y222740D01*
X234935Y222814D01*
X234771Y222889D01*
X234638Y222963D01*
X234519Y223037D01*
X234415Y223097D01*
X234326Y223171D01*
X234251Y223216D01*
X234207Y223275D01*
X234162Y223305D01*
X234132Y223334D01*
X234014Y223468D01*
X233910Y223617D01*
X233731Y223914D01*
X233612Y224196D01*
X233538Y224478D01*
X233479Y224716D01*
X233464Y224820D01*
Y224909D01*
X233449Y224984D01*
Y225043D01*
Y225073D01*
Y225088D01*
X233464Y225385D01*
X233508Y225652D01*
X233583Y225905D01*
X233657Y226128D01*
X233731Y226306D01*
X233806Y226440D01*
X233850Y226529D01*
X233865Y226559D01*
X234028Y226796D01*
X234207Y226990D01*
X234385Y227153D01*
X234563Y227272D01*
X234712Y227376D01*
X234831Y227450D01*
X234920Y227480D01*
X234935Y227495D01*
X234950D01*
X235084Y227540D01*
X235232Y227584D01*
X235544Y227644D01*
X235871Y227703D01*
X236183Y227733D01*
X236480Y227747D01*
X236599D01*
X236718Y227762D01*
X241250D01*
Y218000D01*
D02*
G37*
G36*
X-51604Y376110D02*
X-52897D01*
Y380449D01*
X-54561D01*
X-54710Y380434D01*
X-54828D01*
X-54932Y380419D01*
X-55007Y380404D01*
X-55066D01*
X-55096Y380389D01*
X-55111D01*
X-55334Y380315D01*
X-55512Y380226D01*
X-55586Y380181D01*
X-55646Y380152D01*
X-55675Y380137D01*
X-55690Y380122D01*
X-55809Y380048D01*
X-55913Y379944D01*
X-56136Y379736D01*
X-56210Y379632D01*
X-56285Y379542D01*
X-56329Y379483D01*
X-56344Y379468D01*
X-56493Y379275D01*
X-56641Y379067D01*
X-56805Y378844D01*
X-56953Y378621D01*
X-57087Y378428D01*
X-57191Y378279D01*
X-57221Y378220D01*
X-57250Y378175D01*
X-57280Y378146D01*
Y378131D01*
X-58573Y376110D01*
X-60192D01*
X-58499Y378755D01*
X-58305Y379037D01*
X-58112Y379290D01*
X-57934Y379513D01*
X-57771Y379706D01*
X-57637Y379855D01*
X-57533Y379973D01*
X-57459Y380033D01*
X-57429Y380062D01*
X-57325Y380152D01*
X-57191Y380241D01*
X-56938Y380404D01*
X-56834Y380464D01*
X-56745Y380508D01*
X-56686Y380538D01*
X-56656Y380553D01*
X-56909Y380597D01*
X-57146Y380642D01*
X-57369Y380701D01*
X-57562Y380776D01*
X-57756Y380850D01*
X-57919Y380924D01*
X-58082Y380999D01*
X-58216Y381073D01*
X-58335Y381147D01*
X-58439Y381207D01*
X-58528Y381281D01*
X-58603Y381325D01*
X-58647Y381385D01*
X-58692Y381415D01*
X-58721Y381444D01*
X-58840Y381578D01*
X-58944Y381727D01*
X-59123Y382024D01*
X-59241Y382306D01*
X-59316Y382589D01*
X-59375Y382826D01*
X-59390Y382930D01*
Y383019D01*
X-59405Y383094D01*
Y383153D01*
Y383183D01*
Y383198D01*
X-59390Y383495D01*
X-59346Y383762D01*
X-59271Y384015D01*
X-59197Y384238D01*
X-59123Y384416D01*
X-59048Y384550D01*
X-59004Y384639D01*
X-58989Y384669D01*
X-58825Y384907D01*
X-58647Y385100D01*
X-58469Y385263D01*
X-58291Y385382D01*
X-58142Y385486D01*
X-58023Y385560D01*
X-57934Y385590D01*
X-57919Y385605D01*
X-57904D01*
X-57771Y385649D01*
X-57622Y385694D01*
X-57310Y385754D01*
X-56983Y385813D01*
X-56671Y385843D01*
X-56374Y385858D01*
X-56255D01*
X-56136Y385872D01*
X-51604D01*
Y376110D01*
D02*
G37*
G36*
X220745Y247319D02*
X220908Y247081D01*
X221086Y246859D01*
X221265Y246651D01*
X221428Y246487D01*
X221562Y246353D01*
X221651Y246264D01*
X221666Y246249D01*
X221681Y246234D01*
X221963Y245997D01*
X222260Y245774D01*
X222557Y245581D01*
X222825Y245417D01*
X223063Y245284D01*
X223167Y245239D01*
X223256Y245194D01*
X223315Y245150D01*
X223375Y245120D01*
X223404Y245105D01*
X223419D01*
Y243931D01*
X223211Y244021D01*
X222988Y244125D01*
X222780Y244214D01*
X222587Y244318D01*
X222424Y244407D01*
X222290Y244481D01*
X222201Y244541D01*
X222186Y244555D01*
X222171D01*
X221918Y244704D01*
X221695Y244867D01*
X221502Y245001D01*
X221339Y245135D01*
X221205Y245239D01*
X221101Y245313D01*
X221042Y245373D01*
X221027Y245387D01*
Y237750D01*
X219823D01*
Y247557D01*
X220611D01*
X220745Y247319D01*
D02*
G37*
G36*
X-142750Y278300D02*
X-146732D01*
Y275803D01*
X-146747Y275432D01*
X-146762Y275090D01*
X-146806Y274778D01*
X-146866Y274481D01*
X-146925Y274228D01*
X-147000Y273990D01*
X-147074Y273782D01*
X-147163Y273604D01*
X-147237Y273441D01*
X-147312Y273307D01*
X-147386Y273203D01*
X-147445Y273099D01*
X-147505Y273039D01*
X-147549Y272995D01*
X-147564Y272965D01*
X-147579Y272950D01*
X-147743Y272802D01*
X-147921Y272683D01*
X-148099Y272579D01*
X-148278Y272490D01*
X-148619Y272341D01*
X-148961Y272252D01*
X-149110Y272207D01*
X-149243Y272192D01*
X-149377Y272178D01*
X-149481Y272163D01*
X-149570Y272148D01*
X-149689D01*
X-149957Y272163D01*
X-150209Y272192D01*
X-150432Y272237D01*
X-150625Y272297D01*
X-150789Y272356D01*
X-150908Y272400D01*
X-150982Y272430D01*
X-151012Y272445D01*
X-151235Y272564D01*
X-151413Y272698D01*
X-151576Y272831D01*
X-151710Y272950D01*
X-151814Y273054D01*
X-151888Y273144D01*
X-151933Y273218D01*
X-151948Y273233D01*
X-152067Y273426D01*
X-152171Y273634D01*
X-152245Y273827D01*
X-152304Y274020D01*
X-152349Y274184D01*
X-152379Y274317D01*
X-152408Y274407D01*
Y274421D01*
Y274436D01*
X-152438Y274644D01*
X-152468Y274882D01*
X-152483Y275135D01*
X-152498Y275372D01*
X-152512Y275595D01*
Y275759D01*
Y275833D01*
Y275878D01*
Y275907D01*
Y275922D01*
Y279592D01*
X-142750D01*
Y278300D01*
D02*
G37*
G36*
X334145Y175395D02*
X334427Y175201D01*
X334680Y175008D01*
X334903Y174830D01*
X335096Y174667D01*
X335244Y174533D01*
X335363Y174429D01*
X335423Y174354D01*
X335452Y174325D01*
X335542Y174221D01*
X335631Y174087D01*
X335794Y173834D01*
X335854Y173730D01*
X335898Y173641D01*
X335928Y173582D01*
X335943Y173552D01*
X335987Y173805D01*
X336032Y174042D01*
X336091Y174265D01*
X336166Y174459D01*
X336240Y174652D01*
X336314Y174815D01*
X336389Y174979D01*
X336463Y175112D01*
X336537Y175231D01*
X336597Y175335D01*
X336671Y175424D01*
X336716Y175499D01*
X336775Y175543D01*
X336805Y175588D01*
X336834Y175618D01*
X336968Y175736D01*
X337117Y175840D01*
X337414Y176019D01*
X337696Y176138D01*
X337979Y176212D01*
X338216Y176271D01*
X338320Y176286D01*
X338409D01*
X338484Y176301D01*
X338588D01*
X338885Y176286D01*
X339152Y176241D01*
X339405Y176167D01*
X339628Y176093D01*
X339806Y176019D01*
X339940Y175944D01*
X340029Y175900D01*
X340059Y175885D01*
X340297Y175721D01*
X340490Y175543D01*
X340653Y175365D01*
X340772Y175187D01*
X340876Y175038D01*
X340950Y174919D01*
X340980Y174830D01*
X340995Y174815D01*
Y174800D01*
X341040Y174667D01*
X341084Y174518D01*
X341143Y174206D01*
X341203Y173879D01*
X341233Y173567D01*
X341247Y173270D01*
Y173151D01*
X341262Y173032D01*
Y172943D01*
Y172883D01*
Y172839D01*
Y172824D01*
Y168500D01*
X331500D01*
Y169793D01*
X335839D01*
Y171279D01*
Y171457D01*
X335824Y171605D01*
Y171724D01*
X335809Y171828D01*
X335794Y171903D01*
Y171962D01*
X335779Y171992D01*
Y172007D01*
X335705Y172230D01*
X335616Y172408D01*
X335571Y172482D01*
X335542Y172542D01*
X335527Y172571D01*
X335512Y172586D01*
X335438Y172705D01*
X335334Y172809D01*
X335126Y173032D01*
X335022Y173106D01*
X334932Y173181D01*
X334873Y173225D01*
X334858Y173240D01*
X334665Y173389D01*
X334457Y173537D01*
X334234Y173701D01*
X334011Y173849D01*
X333818Y173983D01*
X333669Y174087D01*
X333610Y174117D01*
X333565Y174146D01*
X333536Y174176D01*
X333521D01*
X331500Y175469D01*
Y177089D01*
X334145Y175395D01*
D02*
G37*
G36*
X341307Y189139D02*
X341069Y189005D01*
X340831Y188842D01*
X340609Y188664D01*
X340401Y188485D01*
X340237Y188322D01*
X340103Y188188D01*
X340014Y188099D01*
X339999Y188084D01*
X339985Y188069D01*
X339747Y187787D01*
X339524Y187490D01*
X339331Y187193D01*
X339167Y186925D01*
X339034Y186687D01*
X338989Y186583D01*
X338944Y186494D01*
X338900Y186435D01*
X338870Y186375D01*
X338855Y186346D01*
Y186331D01*
X337681D01*
X337771Y186539D01*
X337874Y186762D01*
X337964Y186970D01*
X338068Y187163D01*
X338157Y187326D01*
X338231Y187460D01*
X338291Y187549D01*
X338305Y187564D01*
Y187579D01*
X338454Y187832D01*
X338618Y188054D01*
X338751Y188248D01*
X338885Y188411D01*
X338989Y188545D01*
X339063Y188649D01*
X339123Y188708D01*
X339137Y188723D01*
X331500D01*
Y189927D01*
X341307D01*
Y189139D01*
D02*
G37*
G36*
X332644Y179332D02*
X332882Y179496D01*
X333075Y179659D01*
X333164Y179733D01*
X333224Y179793D01*
X333268Y179823D01*
X333283Y179837D01*
X333357Y179912D01*
X333432Y179986D01*
X333610Y180179D01*
X333818Y180417D01*
X334026Y180640D01*
X334219Y180863D01*
X334368Y181041D01*
X334427Y181115D01*
X334472Y181175D01*
X334501Y181204D01*
X334516Y181219D01*
X334724Y181457D01*
X334903Y181665D01*
X335081Y181873D01*
X335244Y182051D01*
X335408Y182215D01*
X335542Y182363D01*
X335675Y182512D01*
X335794Y182631D01*
X335898Y182735D01*
X335987Y182824D01*
X336121Y182958D01*
X336210Y183032D01*
X336240Y183062D01*
X336478Y183255D01*
X336686Y183433D01*
X336894Y183567D01*
X337072Y183671D01*
X337221Y183760D01*
X337325Y183820D01*
X337399Y183849D01*
X337429Y183864D01*
X337637Y183953D01*
X337845Y184013D01*
X338038Y184057D01*
X338216Y184087D01*
X338365Y184102D01*
X338484Y184117D01*
X338588D01*
X338796Y184102D01*
X339004Y184087D01*
X339375Y183983D01*
X339702Y183849D01*
X339985Y183701D01*
X340207Y183552D01*
X340297Y183478D01*
X340386Y183418D01*
X340445Y183359D01*
X340490Y183314D01*
X340505Y183300D01*
X340519Y183285D01*
X340653Y183121D01*
X340787Y182958D01*
X340891Y182780D01*
X340980Y182586D01*
X341114Y182215D01*
X341203Y181858D01*
X341247Y181695D01*
X341262Y181546D01*
X341277Y181413D01*
X341292Y181294D01*
X341307Y181190D01*
Y181115D01*
Y181071D01*
Y181056D01*
X341292Y180803D01*
X341277Y180565D01*
X341188Y180120D01*
X341143Y179927D01*
X341084Y179733D01*
X341010Y179570D01*
X340950Y179421D01*
X340876Y179288D01*
X340817Y179169D01*
X340742Y179065D01*
X340698Y178976D01*
X340653Y178916D01*
X340609Y178872D01*
X340594Y178842D01*
X340579Y178827D01*
X340430Y178678D01*
X340282Y178559D01*
X339940Y178337D01*
X339598Y178173D01*
X339256Y178054D01*
X338959Y177965D01*
X338825Y177950D01*
X338707Y177921D01*
X338618Y177906D01*
X338543Y177891D01*
X338484D01*
X338350Y179124D01*
X338677Y179154D01*
X338959Y179213D01*
X339197Y179288D01*
X339405Y179392D01*
X339568Y179481D01*
X339687Y179570D01*
X339747Y179629D01*
X339776Y179644D01*
X339955Y179852D01*
X340089Y180075D01*
X340178Y180313D01*
X340252Y180536D01*
X340282Y180729D01*
X340297Y180877D01*
X340311Y180937D01*
Y180982D01*
Y181011D01*
Y181026D01*
X340297Y181323D01*
X340237Y181591D01*
X340163Y181814D01*
X340074Y182007D01*
X339970Y182155D01*
X339895Y182274D01*
X339836Y182334D01*
X339821Y182363D01*
X339628Y182542D01*
X339420Y182661D01*
X339227Y182750D01*
X339034Y182824D01*
X338870Y182854D01*
X338736Y182869D01*
X338647Y182883D01*
X338618D01*
X338365Y182854D01*
X338097Y182794D01*
X337860Y182705D01*
X337637Y182601D01*
X337444Y182497D01*
X337295Y182408D01*
X337236Y182378D01*
X337191Y182349D01*
X337176Y182319D01*
X337161D01*
X337013Y182200D01*
X336849Y182066D01*
X336686Y181918D01*
X336522Y181739D01*
X336181Y181383D01*
X335839Y181026D01*
X335556Y180699D01*
X335423Y180551D01*
X335319Y180417D01*
X335215Y180313D01*
X335155Y180239D01*
X335111Y180179D01*
X335096Y180164D01*
X334784Y179808D01*
X334501Y179481D01*
X334249Y179213D01*
X334041Y178990D01*
X333863Y178812D01*
X333729Y178693D01*
X333640Y178619D01*
X333625Y178589D01*
X333610D01*
X333372Y178396D01*
X333149Y178248D01*
X332926Y178099D01*
X332733Y177995D01*
X332555Y177906D01*
X332436Y177846D01*
X332347Y177817D01*
X332332Y177802D01*
X332317D01*
X332169Y177757D01*
X332020Y177713D01*
X331886Y177698D01*
X331768Y177683D01*
X331663Y177668D01*
X331500D01*
Y184132D01*
X332644D01*
Y179332D01*
D02*
G37*
G36*
X567894Y251410D02*
X568132Y251574D01*
X568325Y251737D01*
X568414Y251812D01*
X568474Y251871D01*
X568518Y251901D01*
X568533Y251915D01*
X568607Y251990D01*
X568682Y252064D01*
X568860Y252257D01*
X569068Y252495D01*
X569276Y252718D01*
X569469Y252941D01*
X569618Y253119D01*
X569677Y253193D01*
X569722Y253253D01*
X569752Y253283D01*
X569766Y253297D01*
X569974Y253535D01*
X570153Y253743D01*
X570331Y253951D01*
X570494Y254130D01*
X570658Y254293D01*
X570792Y254442D01*
X570925Y254590D01*
X571044Y254709D01*
X571148Y254813D01*
X571237Y254902D01*
X571371Y255036D01*
X571460Y255110D01*
X571490Y255140D01*
X571728Y255333D01*
X571936Y255511D01*
X572144Y255645D01*
X572322Y255749D01*
X572471Y255838D01*
X572575Y255898D01*
X572649Y255927D01*
X572679Y255942D01*
X572887Y256031D01*
X573095Y256091D01*
X573288Y256136D01*
X573466Y256165D01*
X573615Y256180D01*
X573734Y256195D01*
X573838D01*
X574046Y256180D01*
X574254Y256165D01*
X574625Y256061D01*
X574952Y255927D01*
X575234Y255779D01*
X575457Y255630D01*
X575546Y255556D01*
X575636Y255497D01*
X575695Y255437D01*
X575740Y255392D01*
X575755Y255378D01*
X575769Y255363D01*
X575903Y255199D01*
X576037Y255036D01*
X576141Y254858D01*
X576230Y254664D01*
X576364Y254293D01*
X576453Y253936D01*
X576497Y253773D01*
X576512Y253624D01*
X576527Y253491D01*
X576542Y253372D01*
X576557Y253268D01*
Y253193D01*
Y253149D01*
Y253134D01*
X576542Y252881D01*
X576527Y252644D01*
X576438Y252198D01*
X576394Y252005D01*
X576334Y251812D01*
X576260Y251648D01*
X576200Y251499D01*
X576126Y251366D01*
X576067Y251247D01*
X575992Y251143D01*
X575948Y251054D01*
X575903Y250994D01*
X575859Y250950D01*
X575844Y250920D01*
X575829Y250905D01*
X575680Y250756D01*
X575532Y250638D01*
X575190Y250415D01*
X574848Y250251D01*
X574506Y250132D01*
X574209Y250043D01*
X574076Y250028D01*
X573957Y249999D01*
X573867Y249984D01*
X573793Y249969D01*
X573734D01*
X573600Y251202D01*
X573927Y251232D01*
X574209Y251291D01*
X574447Y251366D01*
X574655Y251470D01*
X574818Y251559D01*
X574937Y251648D01*
X574997Y251707D01*
X575027Y251722D01*
X575205Y251930D01*
X575339Y252153D01*
X575428Y252391D01*
X575502Y252614D01*
X575532Y252807D01*
X575546Y252956D01*
X575561Y253015D01*
Y253060D01*
Y253089D01*
Y253104D01*
X575546Y253401D01*
X575487Y253669D01*
X575413Y253892D01*
X575324Y254085D01*
X575220Y254233D01*
X575145Y254352D01*
X575086Y254412D01*
X575071Y254442D01*
X574878Y254620D01*
X574670Y254739D01*
X574477Y254828D01*
X574283Y254902D01*
X574120Y254932D01*
X573986Y254947D01*
X573897Y254962D01*
X573867D01*
X573615Y254932D01*
X573347Y254872D01*
X573110Y254783D01*
X572887Y254679D01*
X572694Y254575D01*
X572545Y254486D01*
X572486Y254456D01*
X572441Y254427D01*
X572426Y254397D01*
X572411D01*
X572263Y254278D01*
X572099Y254144D01*
X571936Y253996D01*
X571772Y253818D01*
X571431Y253461D01*
X571089Y253104D01*
X570807Y252777D01*
X570673Y252629D01*
X570569Y252495D01*
X570465Y252391D01*
X570405Y252317D01*
X570361Y252257D01*
X570346Y252242D01*
X570034Y251886D01*
X569752Y251559D01*
X569499Y251291D01*
X569291Y251068D01*
X569113Y250890D01*
X568979Y250771D01*
X568890Y250697D01*
X568875Y250667D01*
X568860D01*
X568622Y250474D01*
X568399Y250326D01*
X568176Y250177D01*
X567983Y250073D01*
X567805Y249984D01*
X567686Y249924D01*
X567597Y249895D01*
X567582Y249880D01*
X567567D01*
X567419Y249835D01*
X567270Y249791D01*
X567136Y249776D01*
X567018Y249761D01*
X566913Y249746D01*
X566750D01*
Y256210D01*
X567894D01*
Y251410D01*
D02*
G37*
G36*
X361186Y246819D02*
X361350Y246581D01*
X361528Y246359D01*
X361706Y246150D01*
X361870Y245987D01*
X362004Y245853D01*
X362093Y245764D01*
X362108Y245749D01*
X362122Y245735D01*
X362405Y245497D01*
X362702Y245274D01*
X362999Y245081D01*
X363267Y244917D01*
X363504Y244783D01*
X363608Y244739D01*
X363698Y244694D01*
X363757Y244650D01*
X363816Y244620D01*
X363846Y244605D01*
X363861D01*
Y243431D01*
X363653Y243521D01*
X363430Y243624D01*
X363222Y243714D01*
X363029Y243818D01*
X362865Y243907D01*
X362732Y243981D01*
X362643Y244041D01*
X362628Y244055D01*
X362613D01*
X362360Y244204D01*
X362137Y244368D01*
X361944Y244501D01*
X361781Y244635D01*
X361647Y244739D01*
X361543Y244813D01*
X361483Y244873D01*
X361469Y244888D01*
Y237250D01*
X360265D01*
Y247057D01*
X361053D01*
X361186Y246819D01*
D02*
G37*
G36*
X370384Y247146D02*
X370830Y247087D01*
X371231Y246983D01*
X371409Y246938D01*
X371573Y246879D01*
X371721Y246819D01*
X371870Y246775D01*
X371989Y246715D01*
X372078Y246671D01*
X372167Y246641D01*
X372227Y246611D01*
X372256Y246581D01*
X372271D01*
X372643Y246344D01*
X372984Y246061D01*
X373267Y245779D01*
X373490Y245497D01*
X373683Y245244D01*
X373757Y245140D01*
X373816Y245051D01*
X373861Y244962D01*
X373891Y244902D01*
X373921Y244873D01*
Y244858D01*
X374114Y244427D01*
X374262Y243966D01*
X374351Y243521D01*
X374426Y243104D01*
X374455Y242911D01*
X374470Y242748D01*
X374485Y242584D01*
Y242451D01*
X374500Y242347D01*
Y242272D01*
Y242213D01*
Y242198D01*
X374485Y241678D01*
X374426Y241203D01*
X374337Y240757D01*
X374292Y240549D01*
X374247Y240370D01*
X374203Y240192D01*
X374158Y240044D01*
X374114Y239910D01*
X374069Y239791D01*
X374039Y239702D01*
X374010Y239642D01*
X373995Y239598D01*
Y239583D01*
X373787Y239152D01*
X373534Y238780D01*
X373296Y238454D01*
X373044Y238201D01*
X372836Y237993D01*
X372658Y237844D01*
X372583Y237800D01*
X372539Y237755D01*
X372509Y237740D01*
X372494Y237726D01*
X372301Y237607D01*
X372093Y237518D01*
X371677Y237354D01*
X371246Y237250D01*
X370830Y237161D01*
X370652Y237146D01*
X370473Y237116D01*
X370325Y237101D01*
X370191D01*
X370072Y237087D01*
X369923D01*
X369641Y237101D01*
X369374Y237116D01*
X368883Y237220D01*
X368660Y237280D01*
X368438Y237354D01*
X368244Y237428D01*
X368066Y237503D01*
X367903Y237577D01*
X367769Y237651D01*
X367650Y237726D01*
X367546Y237785D01*
X367457Y237844D01*
X367397Y237889D01*
X367368Y237904D01*
X367353Y237919D01*
X367160Y238082D01*
X366981Y238260D01*
X366684Y238647D01*
X366417Y239048D01*
X366223Y239449D01*
X366134Y239627D01*
X366075Y239791D01*
X366016Y239954D01*
X365956Y240073D01*
X365926Y240192D01*
X365897Y240266D01*
X365882Y240326D01*
Y240341D01*
X367174Y240668D01*
X367293Y240237D01*
X367442Y239850D01*
X367620Y239538D01*
X367784Y239271D01*
X367947Y239078D01*
X368081Y238929D01*
X368170Y238840D01*
X368185Y238825D01*
X368200Y238810D01*
X368497Y238602D01*
X368794Y238454D01*
X369106Y238335D01*
X369389Y238260D01*
X369641Y238216D01*
X369760Y238201D01*
X369849D01*
X369923Y238186D01*
X370027D01*
X370354Y238201D01*
X370666Y238260D01*
X370949Y238335D01*
X371186Y238409D01*
X371395Y238498D01*
X371558Y238558D01*
X371617Y238587D01*
X371662Y238617D01*
X371677Y238632D01*
X371692D01*
X371959Y238825D01*
X372182Y239048D01*
X372375Y239271D01*
X372539Y239509D01*
X372658Y239702D01*
X372732Y239880D01*
X372761Y239939D01*
X372791Y239984D01*
X372806Y240014D01*
Y240029D01*
X372925Y240385D01*
X373014Y240757D01*
X373074Y241128D01*
X373118Y241470D01*
X373133Y241618D01*
X373148Y241752D01*
Y241886D01*
X373163Y241990D01*
Y242079D01*
Y242139D01*
Y242183D01*
Y242198D01*
X373148Y242555D01*
X373118Y242896D01*
X373074Y243209D01*
X373014Y243491D01*
X372955Y243729D01*
X372940Y243832D01*
X372910Y243907D01*
X372895Y243981D01*
X372880Y244026D01*
X372865Y244055D01*
Y244070D01*
X372732Y244397D01*
X372568Y244694D01*
X372390Y244932D01*
X372227Y245140D01*
X372063Y245304D01*
X371929Y245422D01*
X371840Y245497D01*
X371825Y245527D01*
X371810D01*
X371513Y245705D01*
X371201Y245839D01*
X370889Y245942D01*
X370592Y246002D01*
X370325Y246047D01*
X370221Y246061D01*
X370117D01*
X370042Y246076D01*
X369938D01*
X369582Y246061D01*
X369270Y246002D01*
X368987Y245928D01*
X368764Y245839D01*
X368571Y245735D01*
X368438Y245660D01*
X368348Y245601D01*
X368319Y245586D01*
X368081Y245378D01*
X367888Y245140D01*
X367709Y244873D01*
X367576Y244620D01*
X367472Y244397D01*
X367427Y244293D01*
X367383Y244204D01*
X367353Y244130D01*
X367338Y244070D01*
X367323Y244041D01*
Y244026D01*
X366045Y244323D01*
X366223Y244798D01*
X366328Y245021D01*
X366432Y245214D01*
X366550Y245408D01*
X366669Y245586D01*
X366773Y245735D01*
X366892Y245883D01*
X366996Y246002D01*
X367100Y246106D01*
X367204Y246210D01*
X367279Y246284D01*
X367353Y246344D01*
X367397Y246388D01*
X367427Y246403D01*
X367442Y246418D01*
X367635Y246552D01*
X367828Y246671D01*
X368036Y246775D01*
X368244Y246864D01*
X368660Y246998D01*
X369047Y247087D01*
X369225Y247116D01*
X369389Y247131D01*
X369537Y247146D01*
X369656Y247161D01*
X369760Y247176D01*
X369909D01*
X370384Y247146D01*
D02*
G37*
G36*
X567894Y243832D02*
X568132Y243996D01*
X568325Y244159D01*
X568414Y244233D01*
X568474Y244293D01*
X568518Y244322D01*
X568533Y244337D01*
X568607Y244412D01*
X568682Y244486D01*
X568860Y244679D01*
X569068Y244917D01*
X569276Y245140D01*
X569469Y245363D01*
X569618Y245541D01*
X569677Y245615D01*
X569722Y245675D01*
X569752Y245704D01*
X569766Y245719D01*
X569974Y245957D01*
X570153Y246165D01*
X570331Y246373D01*
X570494Y246551D01*
X570658Y246715D01*
X570792Y246863D01*
X570925Y247012D01*
X571044Y247131D01*
X571148Y247235D01*
X571237Y247324D01*
X571371Y247458D01*
X571460Y247532D01*
X571490Y247562D01*
X571728Y247755D01*
X571936Y247933D01*
X572144Y248067D01*
X572322Y248171D01*
X572471Y248260D01*
X572575Y248320D01*
X572649Y248349D01*
X572679Y248364D01*
X572887Y248453D01*
X573095Y248513D01*
X573288Y248557D01*
X573466Y248587D01*
X573615Y248602D01*
X573734Y248617D01*
X573838D01*
X574046Y248602D01*
X574254Y248587D01*
X574625Y248483D01*
X574952Y248349D01*
X575234Y248201D01*
X575457Y248052D01*
X575546Y247978D01*
X575636Y247918D01*
X575695Y247859D01*
X575740Y247814D01*
X575755Y247800D01*
X575769Y247785D01*
X575903Y247621D01*
X576037Y247458D01*
X576141Y247279D01*
X576230Y247086D01*
X576364Y246715D01*
X576453Y246358D01*
X576497Y246195D01*
X576512Y246046D01*
X576527Y245912D01*
X576542Y245794D01*
X576557Y245690D01*
Y245615D01*
Y245571D01*
Y245556D01*
X576542Y245303D01*
X576527Y245065D01*
X576438Y244620D01*
X576394Y244427D01*
X576334Y244233D01*
X576260Y244070D01*
X576200Y243921D01*
X576126Y243788D01*
X576067Y243669D01*
X575992Y243565D01*
X575948Y243476D01*
X575903Y243416D01*
X575859Y243372D01*
X575844Y243342D01*
X575829Y243327D01*
X575680Y243178D01*
X575532Y243060D01*
X575190Y242837D01*
X574848Y242673D01*
X574506Y242554D01*
X574209Y242465D01*
X574076Y242450D01*
X573957Y242421D01*
X573867Y242406D01*
X573793Y242391D01*
X573734D01*
X573600Y243624D01*
X573927Y243654D01*
X574209Y243713D01*
X574447Y243788D01*
X574655Y243892D01*
X574818Y243981D01*
X574937Y244070D01*
X574997Y244129D01*
X575027Y244144D01*
X575205Y244352D01*
X575339Y244575D01*
X575428Y244813D01*
X575502Y245036D01*
X575532Y245229D01*
X575546Y245378D01*
X575561Y245437D01*
Y245482D01*
Y245511D01*
Y245526D01*
X575546Y245823D01*
X575487Y246091D01*
X575413Y246314D01*
X575324Y246507D01*
X575220Y246655D01*
X575145Y246774D01*
X575086Y246834D01*
X575071Y246863D01*
X574878Y247042D01*
X574670Y247161D01*
X574477Y247250D01*
X574283Y247324D01*
X574120Y247354D01*
X573986Y247369D01*
X573897Y247383D01*
X573867D01*
X573615Y247354D01*
X573347Y247294D01*
X573110Y247205D01*
X572887Y247101D01*
X572694Y246997D01*
X572545Y246908D01*
X572486Y246878D01*
X572441Y246849D01*
X572426Y246819D01*
X572411D01*
X572263Y246700D01*
X572099Y246566D01*
X571936Y246418D01*
X571772Y246239D01*
X571431Y245883D01*
X571089Y245526D01*
X570807Y245199D01*
X570673Y245051D01*
X570569Y244917D01*
X570465Y244813D01*
X570405Y244739D01*
X570361Y244679D01*
X570346Y244664D01*
X570034Y244308D01*
X569752Y243981D01*
X569499Y243713D01*
X569291Y243490D01*
X569113Y243312D01*
X568979Y243193D01*
X568890Y243119D01*
X568875Y243089D01*
X568860D01*
X568622Y242896D01*
X568399Y242747D01*
X568176Y242599D01*
X567983Y242495D01*
X567805Y242406D01*
X567686Y242346D01*
X567597Y242317D01*
X567582Y242302D01*
X567567D01*
X567419Y242257D01*
X567270Y242213D01*
X567136Y242198D01*
X567018Y242183D01*
X566913Y242168D01*
X566750D01*
Y248632D01*
X567894D01*
Y243832D01*
D02*
G37*
G36*
X569395Y239895D02*
X569677Y239701D01*
X569930Y239508D01*
X570153Y239330D01*
X570346Y239167D01*
X570494Y239033D01*
X570613Y238929D01*
X570673Y238854D01*
X570703Y238825D01*
X570792Y238721D01*
X570881Y238587D01*
X571044Y238334D01*
X571104Y238230D01*
X571148Y238141D01*
X571178Y238082D01*
X571193Y238052D01*
X571237Y238305D01*
X571282Y238542D01*
X571341Y238765D01*
X571416Y238958D01*
X571490Y239152D01*
X571564Y239315D01*
X571639Y239478D01*
X571713Y239612D01*
X571787Y239731D01*
X571847Y239835D01*
X571921Y239924D01*
X571965Y239999D01*
X572025Y240043D01*
X572055Y240088D01*
X572084Y240117D01*
X572218Y240236D01*
X572367Y240340D01*
X572664Y240519D01*
X572946Y240637D01*
X573228Y240712D01*
X573466Y240771D01*
X573570Y240786D01*
X573659D01*
X573734Y240801D01*
X573838D01*
X574135Y240786D01*
X574402Y240742D01*
X574655Y240667D01*
X574878Y240593D01*
X575056Y240519D01*
X575190Y240444D01*
X575279Y240400D01*
X575309Y240385D01*
X575546Y240222D01*
X575740Y240043D01*
X575903Y239865D01*
X576022Y239687D01*
X576126Y239538D01*
X576200Y239419D01*
X576230Y239330D01*
X576245Y239315D01*
Y239300D01*
X576289Y239167D01*
X576334Y239018D01*
X576394Y238706D01*
X576453Y238379D01*
X576483Y238067D01*
X576497Y237770D01*
Y237651D01*
X576512Y237532D01*
Y237443D01*
Y237383D01*
Y237339D01*
Y237324D01*
Y233000D01*
X566750D01*
Y234293D01*
X571089D01*
Y235779D01*
Y235957D01*
X571074Y236105D01*
Y236224D01*
X571059Y236328D01*
X571044Y236403D01*
Y236462D01*
X571029Y236492D01*
Y236507D01*
X570955Y236730D01*
X570866Y236908D01*
X570821Y236982D01*
X570792Y237042D01*
X570777Y237071D01*
X570762Y237086D01*
X570688Y237205D01*
X570584Y237309D01*
X570376Y237532D01*
X570272Y237606D01*
X570182Y237681D01*
X570123Y237725D01*
X570108Y237740D01*
X569915Y237889D01*
X569707Y238037D01*
X569484Y238201D01*
X569261Y238349D01*
X569068Y238483D01*
X568919Y238587D01*
X568860Y238617D01*
X568815Y238646D01*
X568786Y238676D01*
X568771D01*
X566750Y239969D01*
Y241588D01*
X569395Y239895D01*
D02*
G37*
G36*
X464945Y282044D02*
X465182Y282029D01*
X465628Y281940D01*
X465821Y281896D01*
X466015Y281836D01*
X466178Y281762D01*
X466327Y281702D01*
X466460Y281628D01*
X466579Y281569D01*
X466683Y281494D01*
X466772Y281450D01*
X466832Y281405D01*
X466876Y281361D01*
X466906Y281346D01*
X466921Y281331D01*
X467070Y281182D01*
X467188Y281034D01*
X467411Y280692D01*
X467575Y280350D01*
X467694Y280008D01*
X467783Y279711D01*
X467798Y279578D01*
X467827Y279459D01*
X467842Y279370D01*
X467857Y279295D01*
Y279251D01*
Y279236D01*
X466624Y279102D01*
X466594Y279429D01*
X466535Y279711D01*
X466460Y279949D01*
X466356Y280157D01*
X466267Y280320D01*
X466178Y280439D01*
X466119Y280499D01*
X466104Y280529D01*
X465896Y280707D01*
X465673Y280840D01*
X465435Y280930D01*
X465212Y281004D01*
X465019Y281034D01*
X464870Y281049D01*
X464811Y281063D01*
X464722D01*
X464425Y281049D01*
X464157Y280989D01*
X463934Y280915D01*
X463741Y280826D01*
X463593Y280722D01*
X463474Y280647D01*
X463414Y280588D01*
X463385Y280573D01*
X463206Y280380D01*
X463087Y280172D01*
X462998Y279979D01*
X462924Y279785D01*
X462894Y279622D01*
X462879Y279488D01*
X462864Y279399D01*
Y279384D01*
Y279370D01*
X462894Y279117D01*
X462954Y278849D01*
X463043Y278612D01*
X463147Y278389D01*
X463251Y278196D01*
X463340Y278047D01*
X463370Y277988D01*
X463399Y277943D01*
X463429Y277928D01*
Y277913D01*
X463548Y277765D01*
X463682Y277601D01*
X463830Y277438D01*
X464009Y277274D01*
X464365Y276933D01*
X464722Y276591D01*
X465049Y276308D01*
X465197Y276175D01*
X465331Y276071D01*
X465435Y275967D01*
X465509Y275907D01*
X465569Y275863D01*
X465584Y275848D01*
X465940Y275536D01*
X466267Y275254D01*
X466535Y275001D01*
X466758Y274793D01*
X466936Y274615D01*
X467055Y274481D01*
X467129Y274392D01*
X467159Y274377D01*
Y274362D01*
X467352Y274124D01*
X467500Y273901D01*
X467649Y273678D01*
X467753Y273485D01*
X467842Y273307D01*
X467902Y273188D01*
X467931Y273099D01*
X467946Y273084D01*
Y273069D01*
X467991Y272921D01*
X468035Y272772D01*
X468050Y272638D01*
X468065Y272519D01*
X468080Y272416D01*
Y272326D01*
Y272267D01*
Y272252D01*
X461616D01*
Y273396D01*
X466416D01*
X466252Y273634D01*
X466089Y273827D01*
X466015Y273916D01*
X465955Y273976D01*
X465925Y274020D01*
X465911Y274035D01*
X465836Y274109D01*
X465762Y274184D01*
X465569Y274362D01*
X465331Y274570D01*
X465108Y274778D01*
X464885Y274971D01*
X464707Y275120D01*
X464633Y275179D01*
X464573Y275224D01*
X464543Y275254D01*
X464529Y275268D01*
X464291Y275476D01*
X464083Y275655D01*
X463875Y275833D01*
X463697Y275996D01*
X463533Y276160D01*
X463385Y276294D01*
X463236Y276427D01*
X463117Y276546D01*
X463013Y276650D01*
X462924Y276739D01*
X462790Y276873D01*
X462716Y276962D01*
X462686Y276992D01*
X462493Y277230D01*
X462315Y277438D01*
X462181Y277646D01*
X462077Y277824D01*
X461988Y277973D01*
X461928Y278077D01*
X461899Y278151D01*
X461884Y278181D01*
X461795Y278389D01*
X461735Y278597D01*
X461691Y278790D01*
X461661Y278968D01*
X461646Y279117D01*
X461631Y279236D01*
Y279310D01*
Y279340D01*
X461646Y279548D01*
X461661Y279756D01*
X461765Y280127D01*
X461899Y280454D01*
X462047Y280737D01*
X462196Y280959D01*
X462270Y281049D01*
X462330Y281138D01*
X462389Y281197D01*
X462434Y281242D01*
X462448Y281257D01*
X462463Y281271D01*
X462627Y281405D01*
X462790Y281539D01*
X462968Y281643D01*
X463162Y281732D01*
X463533Y281866D01*
X463890Y281955D01*
X464053Y281999D01*
X464202Y282014D01*
X464336Y282029D01*
X464454Y282044D01*
X464558Y282059D01*
X464692D01*
X464945Y282044D01*
D02*
G37*
G36*
X-149021Y269860D02*
X-149124Y269637D01*
X-149214Y269429D01*
X-149318Y269236D01*
X-149407Y269072D01*
X-149481Y268938D01*
X-149541Y268849D01*
X-149555Y268834D01*
Y268820D01*
X-149704Y268567D01*
X-149867Y268344D01*
X-150001Y268151D01*
X-150135Y267987D01*
X-150239Y267854D01*
X-150313Y267750D01*
X-150373Y267690D01*
X-150387Y267675D01*
X-142750D01*
Y266472D01*
X-152557D01*
Y267259D01*
X-152319Y267393D01*
X-152081Y267556D01*
X-151859Y267735D01*
X-151650Y267913D01*
X-151487Y268077D01*
X-151353Y268210D01*
X-151264Y268300D01*
X-151249Y268314D01*
X-151235Y268329D01*
X-150997Y268612D01*
X-150774Y268909D01*
X-150581Y269206D01*
X-150417Y269473D01*
X-150283Y269711D01*
X-150239Y269815D01*
X-150194Y269904D01*
X-150150Y269964D01*
X-150120Y270023D01*
X-150105Y270053D01*
Y270068D01*
X-148931D01*
X-149021Y269860D01*
D02*
G37*
G36*
X-82804Y289060D02*
X-95504D01*
X-89154Y301760D01*
X-82804Y289060D01*
D02*
G37*
G36*
X457693Y282029D02*
X458065Y281955D01*
X458407Y281851D01*
X458689Y281732D01*
X458912Y281598D01*
X459001Y281539D01*
X459075Y281494D01*
X459150Y281450D01*
X459194Y281420D01*
X459209Y281405D01*
X459224Y281390D01*
X459492Y281123D01*
X459700Y280826D01*
X459878Y280514D01*
X459997Y280216D01*
X460101Y279949D01*
X460130Y279830D01*
X460160Y279726D01*
X460175Y279652D01*
X460190Y279592D01*
X460205Y279548D01*
Y279533D01*
X459001Y279325D01*
X458942Y279637D01*
X458853Y279904D01*
X458763Y280127D01*
X458659Y280306D01*
X458570Y280454D01*
X458496Y280558D01*
X458437Y280618D01*
X458422Y280632D01*
X458228Y280781D01*
X458035Y280885D01*
X457842Y280974D01*
X457649Y281019D01*
X457500Y281049D01*
X457367Y281078D01*
X457248D01*
X456995Y281063D01*
X456772Y281004D01*
X456579Y280944D01*
X456416Y280855D01*
X456282Y280781D01*
X456178Y280707D01*
X456119Y280647D01*
X456104Y280632D01*
X455955Y280469D01*
X455851Y280276D01*
X455762Y280098D01*
X455717Y279934D01*
X455688Y279771D01*
X455658Y279652D01*
Y279578D01*
Y279563D01*
Y279548D01*
X455688Y279251D01*
X455762Y278998D01*
X455851Y278790D01*
X455970Y278626D01*
X456089Y278493D01*
X456178Y278389D01*
X456252Y278329D01*
X456282Y278314D01*
X456520Y278181D01*
X456757Y278092D01*
X456980Y278017D01*
X457188Y277973D01*
X457382Y277943D01*
X457515Y277928D01*
X457708D01*
X457768Y277943D01*
X457842D01*
X457976Y276888D01*
X457798Y276933D01*
X457634Y276962D01*
X457486Y276977D01*
X457367Y276992D01*
X457263Y277007D01*
X457129D01*
X456832Y276977D01*
X456579Y276918D01*
X456341Y276843D01*
X456148Y276739D01*
X455985Y276635D01*
X455866Y276561D01*
X455807Y276502D01*
X455777Y276472D01*
X455598Y276264D01*
X455465Y276041D01*
X455361Y275803D01*
X455301Y275595D01*
X455257Y275402D01*
X455242Y275254D01*
X455227Y275194D01*
Y275149D01*
Y275135D01*
Y275120D01*
X455257Y274808D01*
X455316Y274525D01*
X455405Y274273D01*
X455509Y274065D01*
X455628Y273887D01*
X455717Y273768D01*
X455777Y273693D01*
X455807Y273664D01*
X456029Y273470D01*
X456267Y273322D01*
X456505Y273233D01*
X456743Y273158D01*
X456936Y273114D01*
X457084Y273099D01*
X457144Y273084D01*
X457233D01*
X457486Y273099D01*
X457723Y273158D01*
X457931Y273233D01*
X458095Y273307D01*
X458243Y273396D01*
X458347Y273456D01*
X458407Y273515D01*
X458437Y273530D01*
X458600Y273723D01*
X458749Y273946D01*
X458867Y274198D01*
X458957Y274436D01*
X459031Y274659D01*
X459075Y274837D01*
X459105Y274897D01*
Y274956D01*
X459120Y274986D01*
Y275001D01*
X460324Y274837D01*
X460294Y274615D01*
X460249Y274407D01*
X460116Y274020D01*
X459967Y273678D01*
X459789Y273381D01*
X459714Y273262D01*
X459625Y273158D01*
X459551Y273069D01*
X459492Y272980D01*
X459432Y272921D01*
X459388Y272876D01*
X459373Y272861D01*
X459358Y272846D01*
X459194Y272713D01*
X459016Y272594D01*
X458853Y272490D01*
X458674Y272416D01*
X458318Y272267D01*
X457976Y272178D01*
X457827Y272148D01*
X457679Y272133D01*
X457560Y272118D01*
X457441Y272103D01*
X457352Y272089D01*
X457233D01*
X456980Y272103D01*
X456728Y272133D01*
X456490Y272163D01*
X456267Y272222D01*
X456059Y272297D01*
X455866Y272371D01*
X455688Y272445D01*
X455524Y272534D01*
X455390Y272609D01*
X455257Y272683D01*
X455138Y272757D01*
X455049Y272831D01*
X454974Y272891D01*
X454930Y272921D01*
X454900Y272950D01*
X454885Y272965D01*
X454722Y273144D01*
X454573Y273322D01*
X454454Y273500D01*
X454350Y273678D01*
X454246Y273857D01*
X454172Y274050D01*
X454068Y274392D01*
X454023Y274540D01*
X453994Y274689D01*
X453979Y274808D01*
X453964Y274927D01*
X453949Y275016D01*
Y275075D01*
Y275120D01*
Y275135D01*
X453964Y275476D01*
X454023Y275788D01*
X454098Y276056D01*
X454187Y276279D01*
X454291Y276457D01*
X454365Y276591D01*
X454425Y276680D01*
X454439Y276710D01*
X454633Y276933D01*
X454855Y277111D01*
X455078Y277260D01*
X455286Y277363D01*
X455480Y277453D01*
X455628Y277497D01*
X455688Y277527D01*
X455732D01*
X455762Y277542D01*
X455777D01*
X455539Y277661D01*
X455331Y277809D01*
X455168Y277943D01*
X455019Y278077D01*
X454915Y278196D01*
X454826Y278285D01*
X454781Y278344D01*
X454766Y278374D01*
X454647Y278567D01*
X454573Y278775D01*
X454514Y278968D01*
X454469Y279147D01*
X454439Y279295D01*
X454425Y279414D01*
Y279488D01*
Y279518D01*
X454439Y279771D01*
X454484Y279993D01*
X454543Y280202D01*
X454603Y280395D01*
X454662Y280543D01*
X454722Y280662D01*
X454766Y280737D01*
X454781Y280766D01*
X454930Y280974D01*
X455093Y281167D01*
X455271Y281331D01*
X455435Y281465D01*
X455584Y281569D01*
X455702Y281643D01*
X455792Y281688D01*
X455807Y281702D01*
X455821D01*
X456074Y281821D01*
X456326Y281910D01*
X456579Y281970D01*
X456802Y282014D01*
X456995Y282044D01*
X457144Y282059D01*
X457486D01*
X457693Y282029D01*
D02*
G37*
G36*
X477248Y272252D02*
X475955D01*
Y276591D01*
X474291D01*
X474142Y276576D01*
X474024D01*
X473920Y276561D01*
X473845Y276546D01*
X473786D01*
X473756Y276531D01*
X473741D01*
X473518Y276457D01*
X473340Y276368D01*
X473266Y276323D01*
X473206Y276294D01*
X473177Y276279D01*
X473162Y276264D01*
X473043Y276190D01*
X472939Y276086D01*
X472716Y275878D01*
X472642Y275774D01*
X472567Y275684D01*
X472523Y275625D01*
X472508Y275610D01*
X472359Y275417D01*
X472211Y275209D01*
X472047Y274986D01*
X471899Y274763D01*
X471765Y274570D01*
X471661Y274421D01*
X471631Y274362D01*
X471602Y274317D01*
X471572Y274288D01*
Y274273D01*
X470279Y272252D01*
X468660D01*
X470353Y274897D01*
X470547Y275179D01*
X470740Y275432D01*
X470918Y275655D01*
X471082Y275848D01*
X471215Y275996D01*
X471319Y276115D01*
X471394Y276175D01*
X471423Y276204D01*
X471527Y276294D01*
X471661Y276383D01*
X471914Y276546D01*
X472018Y276606D01*
X472107Y276650D01*
X472166Y276680D01*
X472196Y276695D01*
X471943Y276739D01*
X471706Y276784D01*
X471483Y276843D01*
X471289Y276918D01*
X471096Y276992D01*
X470933Y277066D01*
X470770Y277141D01*
X470636Y277215D01*
X470517Y277289D01*
X470413Y277349D01*
X470324Y277423D01*
X470249Y277467D01*
X470205Y277527D01*
X470160Y277557D01*
X470131Y277586D01*
X470012Y277720D01*
X469908Y277869D01*
X469729Y278166D01*
X469610Y278448D01*
X469536Y278731D01*
X469477Y278968D01*
X469462Y279072D01*
Y279161D01*
X469447Y279236D01*
Y279295D01*
Y279325D01*
Y279340D01*
X469462Y279637D01*
X469506Y279904D01*
X469581Y280157D01*
X469655Y280380D01*
X469729Y280558D01*
X469804Y280692D01*
X469848Y280781D01*
X469863Y280811D01*
X470027Y281049D01*
X470205Y281242D01*
X470383Y281405D01*
X470561Y281524D01*
X470710Y281628D01*
X470829Y281702D01*
X470918Y281732D01*
X470933Y281747D01*
X470948D01*
X471082Y281791D01*
X471230Y281836D01*
X471542Y281896D01*
X471869Y281955D01*
X472181Y281985D01*
X472478Y281999D01*
X472597D01*
X472716Y282014D01*
X477248D01*
Y272252D01*
D02*
G37*
G36*
X469404Y251355D02*
Y251236D01*
X469389Y250998D01*
X469360Y250716D01*
X469345Y250448D01*
X469315Y250196D01*
Y250092D01*
X469300Y249988D01*
Y249913D01*
X469286Y249854D01*
Y249809D01*
Y249795D01*
X469493Y249898D01*
X469731Y250002D01*
X469984Y250121D01*
X470222Y250210D01*
X470459Y250300D01*
X470563Y250344D01*
X470638Y250374D01*
X470712Y250404D01*
X470771Y250418D01*
X470801Y250433D01*
X470816D01*
X471113Y249497D01*
X470534Y249349D01*
X470266Y249289D01*
X470014Y249230D01*
X469805Y249185D01*
X469642Y249141D01*
X469583Y249126D01*
X469538D01*
X469508Y249111D01*
X469493D01*
X469553Y249051D01*
X469627Y248977D01*
X469805Y248784D01*
X469984Y248591D01*
X470162Y248383D01*
X470326Y248175D01*
X470459Y248011D01*
X470519Y247952D01*
X470563Y247907D01*
X470578Y247878D01*
X470593Y247863D01*
X469805Y247298D01*
X469657Y247506D01*
X469508Y247729D01*
X469375Y247967D01*
X469241Y248190D01*
X469122Y248398D01*
X469033Y248576D01*
X468988Y248636D01*
X468959Y248680D01*
X468944Y248710D01*
Y248725D01*
X468750Y248398D01*
X468587Y248115D01*
X468424Y247878D01*
X468290Y247670D01*
X468186Y247506D01*
X468112Y247387D01*
X468052Y247328D01*
X468037Y247298D01*
X467235Y247863D01*
X467502Y248175D01*
X467725Y248442D01*
X467918Y248650D01*
X468082Y248829D01*
X468216Y248962D01*
X468305Y249037D01*
X468364Y249096D01*
X468379Y249111D01*
X468067Y249156D01*
X467770Y249215D01*
X467487Y249274D01*
X467235Y249349D01*
X467027Y249408D01*
X466864Y249453D01*
X466804Y249468D01*
X466759Y249482D01*
X466730Y249497D01*
X466715D01*
X467027Y250433D01*
X467354Y250315D01*
X467651Y250210D01*
X467918Y250107D01*
X468141Y250002D01*
X468335Y249913D01*
X468483Y249854D01*
X468572Y249809D01*
X468587Y249795D01*
X468602D01*
X468557Y250151D01*
X468513Y250463D01*
X468498Y250745D01*
X468468Y250983D01*
X468453Y251176D01*
X468438Y251325D01*
Y251414D01*
Y251444D01*
X469404D01*
Y251355D01*
D02*
G37*
G36*
X480296Y245634D02*
Y245352D01*
X480281Y245084D01*
X480266Y244832D01*
X480237Y244594D01*
X480207Y244386D01*
X480177Y244178D01*
X480147Y244000D01*
X480103Y243836D01*
X480073Y243687D01*
X480043Y243554D01*
X480014Y243435D01*
X479984Y243346D01*
X479954Y243271D01*
X479939Y243227D01*
X479925Y243197D01*
Y243182D01*
X479761Y242870D01*
X479568Y242588D01*
X479375Y242365D01*
X479167Y242172D01*
X478988Y242008D01*
X478825Y241904D01*
X478765Y241860D01*
X478736Y241845D01*
X478706Y241815D01*
X478691D01*
X478349Y241667D01*
X477963Y241548D01*
X477592Y241473D01*
X477235Y241414D01*
X477072Y241399D01*
X476923Y241384D01*
X476789Y241369D01*
X476670D01*
X476581Y241355D01*
X476447D01*
X475942Y241384D01*
X475496Y241444D01*
X475289Y241473D01*
X475110Y241518D01*
X474932Y241577D01*
X474783Y241622D01*
X474650Y241667D01*
X474516Y241726D01*
X474412Y241771D01*
X474338Y241800D01*
X474263Y241845D01*
X474219Y241860D01*
X474189Y241889D01*
X474174D01*
X473877Y242112D01*
X473609Y242335D01*
X473401Y242573D01*
X473238Y242796D01*
X473119Y243004D01*
X473030Y243153D01*
X473000Y243212D01*
X472985Y243256D01*
X472971Y243286D01*
Y243301D01*
X472852Y243643D01*
X472777Y244029D01*
X472718Y244415D01*
X472673Y244787D01*
X472659Y244965D01*
X472644Y245129D01*
Y245263D01*
X472629Y245396D01*
Y245500D01*
Y245574D01*
Y245619D01*
Y245634D01*
Y251280D01*
X473922D01*
Y245634D01*
Y245307D01*
X473951Y244995D01*
X473981Y244728D01*
X474011Y244475D01*
X474055Y244237D01*
X474115Y244044D01*
X474174Y243866D01*
X474219Y243702D01*
X474278Y243569D01*
X474338Y243450D01*
X474382Y243361D01*
X474441Y243286D01*
X474471Y243227D01*
X474501Y243182D01*
X474531Y243167D01*
Y243153D01*
X474650Y243034D01*
X474798Y242945D01*
X475110Y242781D01*
X475437Y242677D01*
X475779Y242588D01*
X476076Y242543D01*
X476210Y242528D01*
X476329D01*
X476433Y242514D01*
X476566D01*
X476864Y242528D01*
X477131Y242558D01*
X477369Y242618D01*
X477577Y242677D01*
X477740Y242722D01*
X477859Y242781D01*
X477933Y242811D01*
X477963Y242826D01*
X478171Y242959D01*
X478335Y243108D01*
X478483Y243271D01*
X478587Y243420D01*
X478676Y243554D01*
X478736Y243658D01*
X478765Y243732D01*
X478780Y243762D01*
X478825Y243881D01*
X478855Y244014D01*
X478914Y244312D01*
X478944Y244624D01*
X478974Y244921D01*
X478988Y245203D01*
X479003Y245322D01*
Y245426D01*
Y245515D01*
Y245574D01*
Y245619D01*
Y245634D01*
Y251280D01*
X480296D01*
Y245634D01*
D02*
G37*
G36*
X547785Y217051D02*
X547948Y216814D01*
X548127Y216591D01*
X548305Y216383D01*
X548468Y216219D01*
X548602Y216085D01*
X548691Y215996D01*
X548706Y215981D01*
X548721Y215966D01*
X549003Y215729D01*
X549301Y215506D01*
X549598Y215313D01*
X549865Y215149D01*
X550103Y215016D01*
X550207Y214971D01*
X550296Y214926D01*
X550355Y214882D01*
X550415Y214852D01*
X550445Y214837D01*
X550460D01*
Y213663D01*
X550252Y213752D01*
X550029Y213857D01*
X549821Y213946D01*
X549627Y214050D01*
X549464Y214139D01*
X549330Y214213D01*
X549241Y214273D01*
X549226Y214287D01*
X549211D01*
X548959Y214436D01*
X548736Y214599D01*
X548543Y214733D01*
X548379Y214867D01*
X548246Y214971D01*
X548142Y215045D01*
X548082Y215105D01*
X548067Y215119D01*
Y207482D01*
X546864D01*
Y217289D01*
X547651D01*
X547785Y217051D01*
D02*
G37*
G36*
X558528Y207482D02*
X552436D01*
Y208626D01*
X557235D01*
Y217244D01*
X558528D01*
Y207482D01*
D02*
G37*
G36*
X555307Y274447D02*
X555069Y274314D01*
X554832Y274150D01*
X554609Y273972D01*
X554400Y273794D01*
X554237Y273630D01*
X554103Y273496D01*
X554014Y273407D01*
X553999Y273392D01*
X553984Y273378D01*
X553747Y273095D01*
X553524Y272798D01*
X553331Y272501D01*
X553167Y272233D01*
X553033Y271996D01*
X552989Y271892D01*
X552944Y271803D01*
X552900Y271743D01*
X552870Y271684D01*
X552855Y271654D01*
Y271639D01*
X551681D01*
X551771Y271847D01*
X551875Y272070D01*
X551964Y272278D01*
X552068Y272471D01*
X552157Y272635D01*
X552231Y272768D01*
X552291Y272857D01*
X552305Y272872D01*
Y272887D01*
X552454Y273140D01*
X552617Y273363D01*
X552751Y273556D01*
X552885Y273719D01*
X552989Y273853D01*
X553063Y273957D01*
X553123Y274016D01*
X553138Y274031D01*
X545500D01*
Y275235D01*
X555307D01*
Y274447D01*
D02*
G37*
G36*
X548918Y268326D02*
X548487Y268207D01*
X548100Y268058D01*
X547788Y267880D01*
X547521Y267716D01*
X547328Y267553D01*
X547179Y267419D01*
X547090Y267330D01*
X547075Y267315D01*
X547060Y267300D01*
X546852Y267003D01*
X546704Y266706D01*
X546585Y266394D01*
X546510Y266112D01*
X546466Y265859D01*
X546451Y265740D01*
Y265651D01*
X546436Y265577D01*
Y265517D01*
Y265487D01*
Y265473D01*
X546451Y265146D01*
X546510Y264834D01*
X546585Y264551D01*
X546659Y264314D01*
X546748Y264105D01*
X546808Y263942D01*
X546837Y263883D01*
X546867Y263838D01*
X546882Y263823D01*
Y263808D01*
X547075Y263541D01*
X547298Y263318D01*
X547521Y263125D01*
X547759Y262961D01*
X547952Y262843D01*
X548130Y262768D01*
X548190Y262738D01*
X548234Y262709D01*
X548264Y262694D01*
X548279D01*
X548635Y262575D01*
X549007Y262486D01*
X549378Y262426D01*
X549720Y262382D01*
X549869Y262367D01*
X550002Y262352D01*
X550136D01*
X550240Y262337D01*
X550448D01*
X550805Y262352D01*
X551146Y262382D01*
X551459Y262426D01*
X551741Y262486D01*
X551978Y262545D01*
X552082Y262560D01*
X552157Y262590D01*
X552231Y262605D01*
X552276Y262620D01*
X552305Y262635D01*
X552320D01*
X552647Y262768D01*
X552944Y262932D01*
X553182Y263110D01*
X553390Y263273D01*
X553554Y263437D01*
X553672Y263571D01*
X553747Y263660D01*
X553777Y263675D01*
Y263689D01*
X553955Y263987D01*
X554089Y264299D01*
X554193Y264611D01*
X554252Y264908D01*
X554296Y265175D01*
X554311Y265279D01*
Y265383D01*
X554326Y265458D01*
Y265517D01*
Y265547D01*
Y265562D01*
X554311Y265918D01*
X554252Y266230D01*
X554178Y266513D01*
X554089Y266736D01*
X553984Y266929D01*
X553910Y267062D01*
X553851Y267152D01*
X553836Y267181D01*
X553628Y267419D01*
X553390Y267612D01*
X553123Y267791D01*
X552870Y267924D01*
X552647Y268028D01*
X552543Y268073D01*
X552454Y268118D01*
X552380Y268147D01*
X552320Y268162D01*
X552291Y268177D01*
X552276D01*
X552573Y269455D01*
X553048Y269277D01*
X553271Y269172D01*
X553464Y269068D01*
X553658Y268950D01*
X553836Y268831D01*
X553984Y268727D01*
X554133Y268608D01*
X554252Y268504D01*
X554356Y268400D01*
X554460Y268296D01*
X554534Y268221D01*
X554594Y268147D01*
X554638Y268103D01*
X554653Y268073D01*
X554668Y268058D01*
X554802Y267865D01*
X554921Y267672D01*
X555025Y267464D01*
X555114Y267256D01*
X555247Y266840D01*
X555337Y266453D01*
X555366Y266275D01*
X555381Y266112D01*
X555396Y265963D01*
X555411Y265844D01*
X555426Y265740D01*
Y265651D01*
Y265606D01*
Y265591D01*
X555396Y265116D01*
X555337Y264670D01*
X555233Y264269D01*
X555188Y264091D01*
X555129Y263927D01*
X555069Y263779D01*
X555025Y263630D01*
X554965Y263511D01*
X554921Y263422D01*
X554891Y263333D01*
X554861Y263273D01*
X554832Y263244D01*
Y263229D01*
X554594Y262857D01*
X554311Y262516D01*
X554029Y262233D01*
X553747Y262010D01*
X553494Y261817D01*
X553390Y261743D01*
X553301Y261684D01*
X553212Y261639D01*
X553152Y261609D01*
X553123Y261579D01*
X553108D01*
X552677Y261386D01*
X552216Y261238D01*
X551771Y261149D01*
X551354Y261074D01*
X551161Y261045D01*
X550998Y261030D01*
X550834Y261015D01*
X550701D01*
X550597Y261000D01*
X550448D01*
X549928Y261015D01*
X549453Y261074D01*
X549007Y261164D01*
X548799Y261208D01*
X548620Y261253D01*
X548442Y261297D01*
X548293Y261342D01*
X548160Y261386D01*
X548041Y261431D01*
X547952Y261461D01*
X547892Y261490D01*
X547848Y261505D01*
X547833D01*
X547402Y261713D01*
X547030Y261966D01*
X546704Y262204D01*
X546451Y262456D01*
X546243Y262664D01*
X546094Y262843D01*
X546050Y262917D01*
X546005Y262961D01*
X545990Y262991D01*
X545975Y263006D01*
X545857Y263199D01*
X545768Y263407D01*
X545604Y263823D01*
X545500Y264254D01*
X545411Y264670D01*
X545396Y264848D01*
X545366Y265027D01*
X545351Y265175D01*
Y265309D01*
X545337Y265428D01*
Y265502D01*
Y265562D01*
Y265577D01*
X545351Y265859D01*
X545366Y266126D01*
X545470Y266617D01*
X545530Y266840D01*
X545604Y267062D01*
X545678Y267256D01*
X545753Y267434D01*
X545827Y267597D01*
X545901Y267731D01*
X545975Y267850D01*
X546035Y267954D01*
X546094Y268043D01*
X546139Y268103D01*
X546154Y268132D01*
X546169Y268147D01*
X546332Y268340D01*
X546510Y268519D01*
X546897Y268816D01*
X547298Y269083D01*
X547699Y269277D01*
X547877Y269366D01*
X548041Y269425D01*
X548204Y269485D01*
X548323Y269544D01*
X548442Y269574D01*
X548516Y269603D01*
X548576Y269618D01*
X548591D01*
X548918Y268326D01*
D02*
G37*
G36*
X502359Y268649D02*
X502626Y268634D01*
X503117Y268530D01*
X503340Y268470D01*
X503563Y268396D01*
X503756Y268322D01*
X503934Y268247D01*
X504097Y268173D01*
X504231Y268099D01*
X504350Y268025D01*
X504454Y267965D01*
X504543Y267906D01*
X504603Y267861D01*
X504632Y267846D01*
X504647Y267831D01*
X504840Y267668D01*
X505019Y267490D01*
X505316Y267103D01*
X505583Y266702D01*
X505776Y266301D01*
X505866Y266123D01*
X505925Y265959D01*
X505984Y265796D01*
X506044Y265677D01*
X506074Y265558D01*
X506103Y265484D01*
X506118Y265424D01*
Y265409D01*
X504826Y265082D01*
X504707Y265513D01*
X504558Y265900D01*
X504380Y266212D01*
X504216Y266479D01*
X504053Y266672D01*
X503919Y266821D01*
X503830Y266910D01*
X503815Y266925D01*
X503800Y266940D01*
X503503Y267148D01*
X503206Y267296D01*
X502894Y267415D01*
X502612Y267490D01*
X502359Y267534D01*
X502240Y267549D01*
X502151D01*
X502077Y267564D01*
X501973D01*
X501646Y267549D01*
X501334Y267490D01*
X501051Y267415D01*
X500814Y267341D01*
X500606Y267252D01*
X500442Y267192D01*
X500383Y267163D01*
X500338Y267133D01*
X500323Y267118D01*
X500308D01*
X500041Y266925D01*
X499818Y266702D01*
X499625Y266479D01*
X499461Y266241D01*
X499342Y266048D01*
X499268Y265870D01*
X499239Y265811D01*
X499209Y265766D01*
X499194Y265736D01*
Y265721D01*
X499075Y265365D01*
X498986Y264993D01*
X498927Y264622D01*
X498882Y264280D01*
X498867Y264132D01*
X498852Y263998D01*
Y263864D01*
X498837Y263760D01*
Y263671D01*
Y263611D01*
Y263567D01*
Y263552D01*
X498852Y263195D01*
X498882Y262854D01*
X498927Y262542D01*
X498986Y262259D01*
X499045Y262022D01*
X499060Y261917D01*
X499090Y261843D01*
X499105Y261769D01*
X499120Y261724D01*
X499134Y261695D01*
Y261680D01*
X499268Y261353D01*
X499432Y261056D01*
X499610Y260818D01*
X499773Y260610D01*
X499937Y260446D01*
X500071Y260327D01*
X500160Y260253D01*
X500175Y260224D01*
X500190D01*
X500487Y260045D01*
X500799Y259911D01*
X501111Y259807D01*
X501408Y259748D01*
X501675Y259704D01*
X501779Y259689D01*
X501883D01*
X501958Y259674D01*
X502062D01*
X502418Y259689D01*
X502730Y259748D01*
X503013Y259822D01*
X503236Y259911D01*
X503429Y260016D01*
X503563Y260090D01*
X503652Y260149D01*
X503681Y260164D01*
X503919Y260372D01*
X504112Y260610D01*
X504291Y260877D01*
X504424Y261130D01*
X504528Y261353D01*
X504573Y261457D01*
X504618Y261546D01*
X504647Y261620D01*
X504662Y261680D01*
X504677Y261709D01*
Y261724D01*
X505955Y261427D01*
X505776Y260952D01*
X505672Y260729D01*
X505568Y260536D01*
X505450Y260342D01*
X505331Y260164D01*
X505227Y260016D01*
X505108Y259867D01*
X505004Y259748D01*
X504900Y259644D01*
X504796Y259540D01*
X504721Y259466D01*
X504647Y259406D01*
X504603Y259362D01*
X504573Y259347D01*
X504558Y259332D01*
X504365Y259198D01*
X504172Y259079D01*
X503964Y258975D01*
X503756Y258886D01*
X503340Y258752D01*
X502953Y258663D01*
X502775Y258634D01*
X502612Y258619D01*
X502463Y258604D01*
X502344Y258589D01*
X502240Y258574D01*
X502091D01*
X501616Y258604D01*
X501170Y258663D01*
X500769Y258767D01*
X500591Y258812D01*
X500427Y258871D01*
X500279Y258931D01*
X500130Y258975D01*
X500011Y259035D01*
X499922Y259079D01*
X499833Y259109D01*
X499773Y259139D01*
X499744Y259168D01*
X499729D01*
X499357Y259406D01*
X499016Y259689D01*
X498733Y259971D01*
X498510Y260253D01*
X498317Y260506D01*
X498243Y260610D01*
X498184Y260699D01*
X498139Y260788D01*
X498109Y260848D01*
X498079Y260877D01*
Y260892D01*
X497886Y261323D01*
X497738Y261784D01*
X497649Y262229D01*
X497574Y262646D01*
X497545Y262839D01*
X497530Y263002D01*
X497515Y263166D01*
Y263299D01*
X497500Y263403D01*
Y263478D01*
Y263537D01*
Y263552D01*
X497515Y264072D01*
X497574Y264548D01*
X497663Y264993D01*
X497708Y265201D01*
X497753Y265380D01*
X497797Y265558D01*
X497842Y265707D01*
X497886Y265840D01*
X497931Y265959D01*
X497961Y266048D01*
X497990Y266108D01*
X498005Y266152D01*
Y266167D01*
X498213Y266598D01*
X498466Y266970D01*
X498704Y267296D01*
X498956Y267549D01*
X499164Y267757D01*
X499342Y267906D01*
X499417Y267950D01*
X499461Y267995D01*
X499491Y268010D01*
X499506Y268025D01*
X499699Y268143D01*
X499907Y268232D01*
X500323Y268396D01*
X500754Y268500D01*
X501170Y268589D01*
X501348Y268604D01*
X501527Y268634D01*
X501675Y268649D01*
X501809D01*
X501928Y268663D01*
X502077D01*
X502359Y268649D01*
D02*
G37*
G36*
X-142750Y290469D02*
X-143894D01*
Y296457D01*
X-147223D01*
Y291063D01*
X-148367D01*
Y296457D01*
X-151368D01*
Y290692D01*
X-152512D01*
Y297750D01*
X-142750D01*
Y290469D01*
D02*
G37*
G36*
X555307Y282026D02*
X555069Y281892D01*
X554832Y281728D01*
X554609Y281550D01*
X554400Y281372D01*
X554237Y281208D01*
X554103Y281075D01*
X554014Y280985D01*
X553999Y280970D01*
X553984Y280956D01*
X553747Y280673D01*
X553524Y280376D01*
X553331Y280079D01*
X553167Y279811D01*
X553033Y279574D01*
X552989Y279470D01*
X552944Y279381D01*
X552900Y279321D01*
X552870Y279262D01*
X552855Y279232D01*
Y279217D01*
X551681D01*
X551771Y279425D01*
X551875Y279648D01*
X551964Y279856D01*
X552068Y280049D01*
X552157Y280213D01*
X552231Y280346D01*
X552291Y280436D01*
X552305Y280450D01*
Y280465D01*
X552454Y280718D01*
X552617Y280941D01*
X552751Y281134D01*
X552885Y281297D01*
X552989Y281431D01*
X553063Y281535D01*
X553123Y281595D01*
X553138Y281609D01*
X545500D01*
Y282813D01*
X555307D01*
Y282026D01*
D02*
G37*
G36*
X346418Y143326D02*
X345987Y143207D01*
X345600Y143058D01*
X345288Y142880D01*
X345021Y142716D01*
X344828Y142553D01*
X344679Y142419D01*
X344590Y142330D01*
X344575Y142315D01*
X344560Y142300D01*
X344352Y142003D01*
X344204Y141706D01*
X344085Y141394D01*
X344010Y141111D01*
X343966Y140859D01*
X343951Y140740D01*
Y140651D01*
X343936Y140577D01*
Y140517D01*
Y140487D01*
Y140473D01*
X343951Y140146D01*
X344010Y139834D01*
X344085Y139551D01*
X344159Y139314D01*
X344248Y139106D01*
X344308Y138942D01*
X344337Y138883D01*
X344367Y138838D01*
X344382Y138823D01*
Y138808D01*
X344575Y138541D01*
X344798Y138318D01*
X345021Y138125D01*
X345259Y137961D01*
X345452Y137843D01*
X345630Y137768D01*
X345690Y137739D01*
X345734Y137709D01*
X345764Y137694D01*
X345779D01*
X346135Y137575D01*
X346507Y137486D01*
X346878Y137427D01*
X347220Y137382D01*
X347369Y137367D01*
X347502Y137352D01*
X347636D01*
X347740Y137337D01*
X347948D01*
X348305Y137352D01*
X348646Y137382D01*
X348959Y137427D01*
X349241Y137486D01*
X349478Y137545D01*
X349583Y137560D01*
X349657Y137590D01*
X349731Y137605D01*
X349776Y137620D01*
X349805Y137634D01*
X349820D01*
X350147Y137768D01*
X350444Y137932D01*
X350682Y138110D01*
X350890Y138273D01*
X351054Y138437D01*
X351172Y138571D01*
X351247Y138660D01*
X351277Y138675D01*
Y138689D01*
X351455Y138987D01*
X351589Y139299D01*
X351693Y139611D01*
X351752Y139908D01*
X351797Y140175D01*
X351811Y140279D01*
Y140383D01*
X351826Y140458D01*
Y140517D01*
Y140547D01*
Y140562D01*
X351811Y140918D01*
X351752Y141230D01*
X351678Y141513D01*
X351589Y141736D01*
X351484Y141929D01*
X351410Y142063D01*
X351351Y142152D01*
X351336Y142181D01*
X351128Y142419D01*
X350890Y142612D01*
X350623Y142791D01*
X350370Y142924D01*
X350147Y143028D01*
X350043Y143073D01*
X349954Y143118D01*
X349880Y143147D01*
X349820Y143162D01*
X349791Y143177D01*
X349776D01*
X350073Y144455D01*
X350548Y144277D01*
X350771Y144172D01*
X350964Y144068D01*
X351158Y143950D01*
X351336Y143831D01*
X351484Y143727D01*
X351633Y143608D01*
X351752Y143504D01*
X351856Y143400D01*
X351960Y143296D01*
X352034Y143222D01*
X352094Y143147D01*
X352138Y143103D01*
X352153Y143073D01*
X352168Y143058D01*
X352302Y142865D01*
X352421Y142672D01*
X352525Y142464D01*
X352614Y142256D01*
X352747Y141840D01*
X352837Y141453D01*
X352866Y141275D01*
X352881Y141111D01*
X352896Y140963D01*
X352911Y140844D01*
X352926Y140740D01*
Y140651D01*
Y140606D01*
Y140591D01*
X352896Y140116D01*
X352837Y139670D01*
X352733Y139269D01*
X352688Y139091D01*
X352629Y138927D01*
X352569Y138779D01*
X352525Y138630D01*
X352465Y138511D01*
X352421Y138422D01*
X352391Y138333D01*
X352361Y138273D01*
X352332Y138244D01*
Y138229D01*
X352094Y137857D01*
X351811Y137516D01*
X351529Y137233D01*
X351247Y137010D01*
X350994Y136817D01*
X350890Y136743D01*
X350801Y136684D01*
X350712Y136639D01*
X350652Y136609D01*
X350623Y136580D01*
X350608D01*
X350177Y136386D01*
X349716Y136238D01*
X349271Y136149D01*
X348854Y136074D01*
X348661Y136045D01*
X348498Y136030D01*
X348334Y136015D01*
X348201D01*
X348097Y136000D01*
X347948D01*
X347428Y136015D01*
X346953Y136074D01*
X346507Y136164D01*
X346299Y136208D01*
X346120Y136253D01*
X345942Y136297D01*
X345793Y136342D01*
X345660Y136386D01*
X345541Y136431D01*
X345452Y136461D01*
X345392Y136490D01*
X345348Y136505D01*
X345333D01*
X344902Y136713D01*
X344530Y136966D01*
X344204Y137204D01*
X343951Y137456D01*
X343743Y137664D01*
X343594Y137843D01*
X343550Y137917D01*
X343505Y137961D01*
X343490Y137991D01*
X343475Y138006D01*
X343357Y138199D01*
X343268Y138407D01*
X343104Y138823D01*
X343000Y139254D01*
X342911Y139670D01*
X342896Y139848D01*
X342866Y140027D01*
X342851Y140175D01*
Y140309D01*
X342837Y140428D01*
Y140502D01*
Y140562D01*
Y140577D01*
X342851Y140859D01*
X342866Y141126D01*
X342970Y141617D01*
X343030Y141840D01*
X343104Y142063D01*
X343178Y142256D01*
X343253Y142434D01*
X343327Y142597D01*
X343401Y142731D01*
X343475Y142850D01*
X343535Y142954D01*
X343594Y143043D01*
X343639Y143103D01*
X343654Y143132D01*
X343669Y143147D01*
X343832Y143340D01*
X344010Y143519D01*
X344397Y143816D01*
X344798Y144083D01*
X345199Y144277D01*
X345378Y144366D01*
X345541Y144425D01*
X345704Y144485D01*
X345823Y144544D01*
X345942Y144574D01*
X346016Y144603D01*
X346076Y144618D01*
X346091D01*
X346418Y143326D01*
D02*
G37*
G36*
X348721Y152122D02*
X349003Y152092D01*
X349271Y152077D01*
X349508Y152048D01*
X349731Y152003D01*
X349939Y151973D01*
X350117Y151929D01*
X350281Y151884D01*
X350429Y151855D01*
X350548Y151825D01*
X350638Y151780D01*
X350712Y151765D01*
X350771Y151736D01*
X350801Y151721D01*
X350816D01*
X351158Y151557D01*
X351455Y151364D01*
X351693Y151156D01*
X351915Y150963D01*
X352079Y150785D01*
X352198Y150651D01*
X352228Y150591D01*
X352257Y150547D01*
X352287Y150532D01*
Y150517D01*
X352465Y150220D01*
X352584Y149908D01*
X352673Y149626D01*
X352747Y149358D01*
X352777Y149121D01*
X352792Y149017D01*
Y148942D01*
X352807Y148868D01*
Y148823D01*
Y148794D01*
Y148779D01*
X352792Y148541D01*
X352762Y148303D01*
X352718Y148080D01*
X352673Y147872D01*
X352525Y147501D01*
X352435Y147337D01*
X352361Y147189D01*
X352272Y147040D01*
X352183Y146921D01*
X352109Y146817D01*
X352049Y146743D01*
X351990Y146669D01*
X351945Y146624D01*
X351915Y146594D01*
X351901Y146580D01*
X351722Y146431D01*
X351544Y146297D01*
X351351Y146178D01*
X351143Y146089D01*
X350950Y146000D01*
X350742Y145926D01*
X350370Y145822D01*
X350192Y145792D01*
X350028Y145762D01*
X349880Y145747D01*
X349761Y145733D01*
X349657Y145718D01*
X349508D01*
X349241Y145733D01*
X348988Y145747D01*
X348765Y145792D01*
X348542Y145851D01*
X348334Y145911D01*
X348141Y145985D01*
X347963Y146060D01*
X347814Y146134D01*
X347666Y146208D01*
X347547Y146282D01*
X347443Y146357D01*
X347354Y146416D01*
X347279Y146476D01*
X347235Y146520D01*
X347205Y146535D01*
X347190Y146550D01*
X347042Y146713D01*
X346908Y146877D01*
X346789Y147055D01*
X346685Y147219D01*
X346596Y147397D01*
X346522Y147560D01*
X346418Y147887D01*
X346358Y148169D01*
X346343Y148288D01*
X346328Y148392D01*
X346314Y148482D01*
Y148541D01*
Y148586D01*
Y148600D01*
X346328Y148868D01*
X346373Y149121D01*
X346418Y149343D01*
X346492Y149537D01*
X346551Y149700D01*
X346596Y149834D01*
X346641Y149908D01*
X346655Y149938D01*
X346804Y150161D01*
X346953Y150354D01*
X347116Y150532D01*
X347265Y150666D01*
X347383Y150785D01*
X347502Y150859D01*
X347562Y150918D01*
X347592Y150933D01*
X347071D01*
X346804Y150904D01*
X346566Y150874D01*
X346343Y150844D01*
X346150Y150814D01*
X346002Y150785D01*
X345957Y150770D01*
X345912D01*
X345897Y150755D01*
X345883D01*
X345630Y150681D01*
X345407Y150606D01*
X345214Y150532D01*
X345051Y150473D01*
X344917Y150398D01*
X344813Y150354D01*
X344753Y150324D01*
X344739Y150309D01*
X344590Y150205D01*
X344456Y150086D01*
X344337Y149982D01*
X344248Y149864D01*
X344174Y149774D01*
X344114Y149700D01*
X344085Y149641D01*
X344070Y149626D01*
X343981Y149462D01*
X343921Y149299D01*
X343877Y149135D01*
X343847Y148987D01*
X343832Y148853D01*
X343817Y148749D01*
Y148690D01*
Y148660D01*
X343832Y148422D01*
X343877Y148214D01*
X343936Y148036D01*
X343996Y147887D01*
X344055Y147753D01*
X344114Y147664D01*
X344159Y147605D01*
X344174Y147590D01*
X344323Y147441D01*
X344516Y147323D01*
X344709Y147233D01*
X344902Y147159D01*
X345065Y147100D01*
X345214Y147070D01*
X345274Y147055D01*
X345318Y147040D01*
X345348D01*
X345259Y145896D01*
X344842Y145970D01*
X344486Y146089D01*
X344174Y146223D01*
X343921Y146372D01*
X343728Y146520D01*
X343579Y146639D01*
X343490Y146728D01*
X343475Y146743D01*
X343461Y146758D01*
X343253Y147055D01*
X343104Y147352D01*
X342985Y147664D01*
X342911Y147962D01*
X342866Y148229D01*
X342851Y148348D01*
Y148437D01*
X342837Y148526D01*
Y148586D01*
Y148615D01*
Y148630D01*
X342866Y149017D01*
X342926Y149388D01*
X343015Y149700D01*
X343119Y149982D01*
X343223Y150205D01*
X343268Y150294D01*
X343312Y150369D01*
X343357Y150443D01*
X343372Y150487D01*
X343401Y150502D01*
Y150517D01*
X343639Y150800D01*
X343906Y151037D01*
X344189Y151245D01*
X344471Y151424D01*
X344709Y151557D01*
X344813Y151602D01*
X344917Y151646D01*
X344991Y151676D01*
X345051Y151706D01*
X345080Y151721D01*
X345095D01*
X345318Y151795D01*
X345541Y151855D01*
X346031Y151959D01*
X346536Y152033D01*
X347012Y152092D01*
X347235Y152107D01*
X347428Y152122D01*
X347621D01*
X347770Y152137D01*
X348409D01*
X348721Y152122D01*
D02*
G37*
G36*
X234250Y299000D02*
X232957D01*
Y303339D01*
X231293D01*
X231145Y303324D01*
X231026D01*
X230922Y303309D01*
X230847Y303294D01*
X230788D01*
X230758Y303279D01*
X230743D01*
X230520Y303205D01*
X230342Y303116D01*
X230268Y303071D01*
X230208Y303042D01*
X230179Y303027D01*
X230164Y303012D01*
X230045Y302938D01*
X229941Y302834D01*
X229718Y302626D01*
X229644Y302522D01*
X229569Y302432D01*
X229525Y302373D01*
X229510Y302358D01*
X229361Y302165D01*
X229213Y301957D01*
X229049Y301734D01*
X228901Y301511D01*
X228767Y301318D01*
X228663Y301169D01*
X228633Y301110D01*
X228604Y301065D01*
X228574Y301036D01*
Y301021D01*
X227281Y299000D01*
X225662D01*
X227355Y301645D01*
X227549Y301927D01*
X227742Y302180D01*
X227920Y302403D01*
X228083Y302596D01*
X228217Y302745D01*
X228321Y302863D01*
X228396Y302923D01*
X228425Y302952D01*
X228529Y303042D01*
X228663Y303131D01*
X228916Y303294D01*
X229020Y303354D01*
X229109Y303398D01*
X229168Y303428D01*
X229198Y303443D01*
X228945Y303487D01*
X228708Y303532D01*
X228485Y303591D01*
X228291Y303666D01*
X228098Y303740D01*
X227935Y303814D01*
X227771Y303889D01*
X227638Y303963D01*
X227519Y304037D01*
X227415Y304097D01*
X227326Y304171D01*
X227251Y304216D01*
X227207Y304275D01*
X227162Y304305D01*
X227132Y304334D01*
X227014Y304468D01*
X226910Y304617D01*
X226731Y304914D01*
X226612Y305196D01*
X226538Y305478D01*
X226479Y305716D01*
X226464Y305820D01*
Y305909D01*
X226449Y305984D01*
Y306043D01*
Y306073D01*
Y306088D01*
X226464Y306385D01*
X226509Y306652D01*
X226583Y306905D01*
X226657Y307128D01*
X226731Y307306D01*
X226806Y307440D01*
X226850Y307529D01*
X226865Y307559D01*
X227029Y307796D01*
X227207Y307990D01*
X227385Y308153D01*
X227563Y308272D01*
X227712Y308376D01*
X227831Y308450D01*
X227920Y308480D01*
X227935Y308495D01*
X227950D01*
X228083Y308540D01*
X228232Y308584D01*
X228544Y308643D01*
X228871Y308703D01*
X229183Y308733D01*
X229480Y308748D01*
X229599D01*
X229718Y308762D01*
X234250D01*
Y299000D01*
D02*
G37*
G36*
X354411Y247027D02*
X354752Y246968D01*
X355064Y246879D01*
X355317Y246775D01*
X355525Y246656D01*
X355674Y246567D01*
X355733Y246537D01*
X355778Y246507D01*
X355793Y246477D01*
X355807D01*
X356060Y246240D01*
X356268Y245987D01*
X356446Y245720D01*
X356595Y245452D01*
X356714Y245214D01*
X356758Y245110D01*
X356788Y245021D01*
X356818Y244947D01*
X356847Y244888D01*
X356862Y244858D01*
Y244843D01*
X356922Y244635D01*
X356981Y244427D01*
X357056Y243966D01*
X357115Y243506D01*
X357160Y243060D01*
X357174Y242852D01*
X357189Y242659D01*
Y242495D01*
X357204Y242347D01*
Y242228D01*
Y242139D01*
Y242079D01*
Y242064D01*
X357189Y241574D01*
X357160Y241098D01*
X357115Y240682D01*
X357056Y240281D01*
X356981Y239925D01*
X356907Y239598D01*
X356818Y239300D01*
X356729Y239048D01*
X356640Y238810D01*
X356550Y238617D01*
X356476Y238454D01*
X356402Y238320D01*
X356342Y238216D01*
X356298Y238141D01*
X356268Y238097D01*
X356253Y238082D01*
X356090Y237904D01*
X355926Y237755D01*
X355748Y237621D01*
X355555Y237503D01*
X355377Y237413D01*
X355183Y237324D01*
X354827Y237205D01*
X354663Y237176D01*
X354515Y237146D01*
X354381Y237116D01*
X354262Y237101D01*
X354158Y237087D01*
X354024D01*
X353638Y237116D01*
X353296Y237176D01*
X352999Y237265D01*
X352732Y237369D01*
X352538Y237473D01*
X352375Y237562D01*
X352330Y237607D01*
X352286Y237621D01*
X352271Y237651D01*
X352256D01*
X352004Y237889D01*
X351795Y238156D01*
X351617Y238424D01*
X351469Y238691D01*
X351350Y238929D01*
X351305Y239018D01*
X351260Y239107D01*
X351231Y239182D01*
X351216Y239241D01*
X351201Y239271D01*
Y239286D01*
X351142Y239494D01*
X351082Y239702D01*
X350993Y240162D01*
X350934Y240623D01*
X350889Y241069D01*
X350874Y241277D01*
X350859Y241470D01*
Y241633D01*
X350844Y241782D01*
Y241901D01*
Y241990D01*
Y242050D01*
Y242064D01*
X350859Y242584D01*
Y242807D01*
X350874Y243030D01*
X350889Y243238D01*
X350919Y243431D01*
X350934Y243595D01*
X350948Y243758D01*
X350978Y243892D01*
X350993Y244026D01*
X351008Y244130D01*
X351038Y244204D01*
X351053Y244278D01*
Y244323D01*
X351067Y244353D01*
Y244368D01*
X351157Y244680D01*
X351260Y244962D01*
X351365Y245214D01*
X351454Y245422D01*
X351543Y245586D01*
X351617Y245720D01*
X351662Y245794D01*
X351677Y245824D01*
X351825Y246032D01*
X351989Y246210D01*
X352152Y246373D01*
X352301Y246507D01*
X352449Y246596D01*
X352553Y246671D01*
X352627Y246715D01*
X352657Y246730D01*
X352880Y246834D01*
X353118Y246923D01*
X353356Y246983D01*
X353564Y247012D01*
X353742Y247042D01*
X353891Y247057D01*
X354024D01*
X354411Y247027D01*
D02*
G37*
G36*
X-145529Y289087D02*
X-145202Y289028D01*
X-144890Y288939D01*
X-144637Y288850D01*
X-144414Y288760D01*
X-144325Y288716D01*
X-144251Y288671D01*
X-144191Y288641D01*
X-144147Y288612D01*
X-144132Y288597D01*
X-144117D01*
X-143850Y288389D01*
X-143612Y288151D01*
X-143419Y287928D01*
X-143255Y287691D01*
X-143122Y287497D01*
X-143032Y287334D01*
X-143003Y287274D01*
X-142973Y287230D01*
X-142958Y287200D01*
Y287185D01*
X-142839Y286829D01*
X-142750Y286457D01*
X-142676Y286086D01*
X-142631Y285744D01*
X-142616Y285581D01*
X-142601Y285432D01*
Y285298D01*
X-142587Y285194D01*
Y285105D01*
Y285031D01*
Y284986D01*
Y284971D01*
X-142601Y284585D01*
X-142646Y284243D01*
X-142705Y283916D01*
X-142780Y283649D01*
X-142839Y283411D01*
X-142869Y283322D01*
X-142899Y283248D01*
X-142928Y283188D01*
X-142943Y283144D01*
X-142958Y283114D01*
Y283099D01*
X-143122Y282802D01*
X-143285Y282534D01*
X-143463Y282311D01*
X-143642Y282133D01*
X-143790Y281985D01*
X-143909Y281895D01*
X-143998Y281821D01*
X-144028Y281806D01*
X-144281Y281658D01*
X-144548Y281554D01*
X-144801Y281465D01*
X-145023Y281420D01*
X-145217Y281390D01*
X-145365Y281360D01*
X-145499D01*
X-145781Y281375D01*
X-146049Y281420D01*
X-146286Y281494D01*
X-146480Y281569D01*
X-146658Y281643D01*
X-146777Y281717D01*
X-146851Y281762D01*
X-146881Y281777D01*
X-147089Y281940D01*
X-147282Y282133D01*
X-147460Y282341D01*
X-147609Y282549D01*
X-147713Y282742D01*
X-147802Y282891D01*
X-147832Y282950D01*
X-147861Y282980D01*
X-147876Y283010D01*
Y283025D01*
X-147921Y283144D01*
X-147980Y283292D01*
X-148040Y283441D01*
X-148084Y283619D01*
X-148188Y283976D01*
X-148292Y284332D01*
X-148367Y284659D01*
X-148411Y284808D01*
X-148441Y284942D01*
X-148471Y285046D01*
X-148486Y285120D01*
X-148500Y285179D01*
Y285194D01*
X-148575Y285476D01*
X-148634Y285729D01*
X-148694Y285952D01*
X-148768Y286160D01*
X-148827Y286338D01*
X-148872Y286487D01*
X-148931Y286621D01*
X-148991Y286740D01*
X-149035Y286843D01*
X-149065Y286933D01*
X-149110Y286992D01*
X-149139Y287037D01*
X-149184Y287111D01*
X-149199Y287126D01*
X-149333Y287245D01*
X-149466Y287334D01*
X-149615Y287408D01*
X-149749Y287453D01*
X-149867Y287482D01*
X-149972Y287497D01*
X-150061D01*
X-150283Y287468D01*
X-150477Y287408D01*
X-150655Y287334D01*
X-150804Y287230D01*
X-150937Y287141D01*
X-151026Y287052D01*
X-151086Y286992D01*
X-151101Y286977D01*
X-151175Y286873D01*
X-151249Y286754D01*
X-151353Y286487D01*
X-151428Y286205D01*
X-151472Y285922D01*
X-151517Y285670D01*
Y285551D01*
X-151532Y285462D01*
Y285373D01*
Y285313D01*
Y285283D01*
Y285268D01*
X-151517Y284867D01*
X-151457Y284526D01*
X-151383Y284228D01*
X-151294Y283991D01*
X-151205Y283812D01*
X-151131Y283678D01*
X-151071Y283604D01*
X-151056Y283575D01*
X-150863Y283381D01*
X-150640Y283218D01*
X-150417Y283099D01*
X-150194Y283010D01*
X-149986Y282950D01*
X-149823Y282921D01*
X-149763Y282906D01*
X-149719Y282891D01*
X-149674D01*
X-149763Y281658D01*
X-150076Y281687D01*
X-150358Y281747D01*
X-150625Y281836D01*
X-150848Y281925D01*
X-151026Y281999D01*
X-151175Y282074D01*
X-151264Y282133D01*
X-151294Y282148D01*
X-151532Y282326D01*
X-151740Y282534D01*
X-151918Y282742D01*
X-152067Y282950D01*
X-152171Y283144D01*
X-152260Y283292D01*
X-152289Y283352D01*
X-152304Y283396D01*
X-152319Y283411D01*
Y283426D01*
X-152438Y283738D01*
X-152527Y284065D01*
X-152587Y284392D01*
X-152631Y284689D01*
X-152661Y284942D01*
Y285046D01*
X-152676Y285150D01*
Y285224D01*
Y285283D01*
Y285313D01*
Y285328D01*
X-152661Y285685D01*
X-152616Y286026D01*
X-152572Y286323D01*
X-152512Y286591D01*
X-152438Y286799D01*
X-152408Y286888D01*
X-152394Y286962D01*
X-152364Y287037D01*
X-152349Y287081D01*
X-152334Y287096D01*
Y287111D01*
X-152200Y287393D01*
X-152037Y287646D01*
X-151873Y287854D01*
X-151725Y288017D01*
X-151576Y288151D01*
X-151457Y288255D01*
X-151383Y288314D01*
X-151368Y288329D01*
X-151353D01*
X-151116Y288463D01*
X-150863Y288567D01*
X-150640Y288641D01*
X-150417Y288686D01*
X-150239Y288716D01*
X-150105Y288745D01*
X-149972D01*
X-149734Y288731D01*
X-149496Y288686D01*
X-149288Y288641D01*
X-149110Y288567D01*
X-148961Y288508D01*
X-148857Y288463D01*
X-148783Y288419D01*
X-148753Y288404D01*
X-148560Y288255D01*
X-148382Y288092D01*
X-148233Y287928D01*
X-148099Y287750D01*
X-147995Y287601D01*
X-147921Y287482D01*
X-147861Y287393D01*
X-147847Y287378D01*
Y287364D01*
X-147787Y287260D01*
X-147743Y287126D01*
X-147639Y286843D01*
X-147535Y286532D01*
X-147431Y286219D01*
X-147356Y285937D01*
X-147327Y285818D01*
X-147297Y285714D01*
X-147267Y285625D01*
X-147252Y285551D01*
X-147237Y285506D01*
Y285491D01*
X-147178Y285254D01*
X-147119Y285031D01*
X-147074Y284823D01*
X-147029Y284644D01*
X-146985Y284496D01*
X-146940Y284347D01*
X-146910Y284228D01*
X-146881Y284109D01*
X-146851Y284020D01*
X-146821Y283946D01*
X-146792Y283827D01*
X-146777Y283768D01*
X-146762Y283753D01*
X-146673Y283545D01*
X-146569Y283352D01*
X-146480Y283203D01*
X-146390Y283084D01*
X-146301Y282995D01*
X-146242Y282921D01*
X-146197Y282891D01*
X-146182Y282876D01*
X-146049Y282787D01*
X-145915Y282728D01*
X-145781Y282668D01*
X-145647Y282638D01*
X-145543Y282624D01*
X-145454Y282609D01*
X-145380D01*
X-145217Y282624D01*
X-145068Y282653D01*
X-144919Y282698D01*
X-144801Y282742D01*
X-144697Y282802D01*
X-144622Y282846D01*
X-144563Y282876D01*
X-144548Y282891D01*
X-144414Y283010D01*
X-144295Y283144D01*
X-144191Y283277D01*
X-144102Y283426D01*
X-144028Y283545D01*
X-143983Y283649D01*
X-143954Y283708D01*
X-143939Y283738D01*
X-143864Y283961D01*
X-143820Y284184D01*
X-143775Y284392D01*
X-143760Y284600D01*
X-143746Y284763D01*
X-143731Y284912D01*
Y285001D01*
Y285016D01*
Y285031D01*
X-143746Y285328D01*
X-143775Y285610D01*
X-143820Y285878D01*
X-143879Y286086D01*
X-143924Y286279D01*
X-143968Y286413D01*
X-143998Y286502D01*
X-144013Y286517D01*
Y286532D01*
X-144132Y286754D01*
X-144251Y286962D01*
X-144384Y287126D01*
X-144503Y287260D01*
X-144607Y287378D01*
X-144697Y287453D01*
X-144756Y287497D01*
X-144771Y287512D01*
X-144964Y287616D01*
X-145157Y287705D01*
X-145365Y287765D01*
X-145558Y287824D01*
X-145737Y287854D01*
X-145870Y287884D01*
X-145960Y287899D01*
X-145989D01*
X-145885Y289117D01*
X-145529Y289087D01*
D02*
G37*
G36*
X454576Y137649D02*
X454828Y137619D01*
X455066Y137589D01*
X455289Y137530D01*
X455497Y137455D01*
X455690Y137381D01*
X455869Y137307D01*
X456032Y137218D01*
X456166Y137143D01*
X456300Y137069D01*
X456418Y136995D01*
X456508Y136920D01*
X456582Y136861D01*
X456627Y136831D01*
X456656Y136802D01*
X456671Y136787D01*
X456834Y136608D01*
X456983Y136430D01*
X457102Y136252D01*
X457206Y136074D01*
X457310Y135895D01*
X457384Y135702D01*
X457488Y135360D01*
X457533Y135212D01*
X457563Y135063D01*
X457577Y134944D01*
X457592Y134825D01*
X457607Y134736D01*
Y134677D01*
Y134632D01*
Y134617D01*
X457592Y134276D01*
X457533Y133964D01*
X457459Y133696D01*
X457369Y133473D01*
X457265Y133295D01*
X457191Y133161D01*
X457132Y133072D01*
X457117Y133042D01*
X456924Y132819D01*
X456701Y132641D01*
X456478Y132493D01*
X456270Y132388D01*
X456077Y132299D01*
X455928Y132255D01*
X455869Y132225D01*
X455824D01*
X455794Y132210D01*
X455779D01*
X456017Y132091D01*
X456225Y131943D01*
X456389Y131809D01*
X456537Y131675D01*
X456641Y131556D01*
X456730Y131467D01*
X456775Y131408D01*
X456790Y131378D01*
X456909Y131185D01*
X456983Y130977D01*
X457043Y130784D01*
X457087Y130605D01*
X457117Y130457D01*
X457132Y130338D01*
Y130264D01*
Y130234D01*
X457117Y129981D01*
X457072Y129759D01*
X457013Y129550D01*
X456953Y129357D01*
X456894Y129209D01*
X456834Y129090D01*
X456790Y129016D01*
X456775Y128986D01*
X456627Y128778D01*
X456463Y128585D01*
X456285Y128421D01*
X456121Y128287D01*
X455973Y128183D01*
X455854Y128109D01*
X455765Y128064D01*
X455750Y128050D01*
X455735D01*
X455482Y127931D01*
X455230Y127842D01*
X454977Y127782D01*
X454754Y127738D01*
X454561Y127708D01*
X454412Y127693D01*
X454071D01*
X453863Y127723D01*
X453491Y127797D01*
X453149Y127901D01*
X452867Y128020D01*
X452644Y128154D01*
X452555Y128213D01*
X452481Y128258D01*
X452407Y128302D01*
X452362Y128332D01*
X452347Y128347D01*
X452332Y128362D01*
X452065Y128629D01*
X451857Y128926D01*
X451678Y129238D01*
X451559Y129536D01*
X451455Y129803D01*
X451426Y129922D01*
X451396Y130026D01*
X451381Y130100D01*
X451366Y130160D01*
X451352Y130204D01*
Y130219D01*
X452555Y130427D01*
X452615Y130115D01*
X452704Y129848D01*
X452793Y129625D01*
X452897Y129446D01*
X452986Y129298D01*
X453060Y129194D01*
X453120Y129134D01*
X453135Y129120D01*
X453328Y128971D01*
X453521Y128867D01*
X453714Y128778D01*
X453907Y128733D01*
X454056Y128703D01*
X454190Y128674D01*
X454309D01*
X454561Y128689D01*
X454784Y128748D01*
X454977Y128807D01*
X455141Y128897D01*
X455274Y128971D01*
X455378Y129045D01*
X455438Y129105D01*
X455453Y129120D01*
X455601Y129283D01*
X455705Y129476D01*
X455794Y129655D01*
X455839Y129818D01*
X455869Y129981D01*
X455898Y130100D01*
Y130175D01*
Y130189D01*
Y130204D01*
X455869Y130501D01*
X455794Y130754D01*
X455705Y130962D01*
X455586Y131125D01*
X455467Y131259D01*
X455378Y131363D01*
X455304Y131423D01*
X455274Y131438D01*
X455037Y131571D01*
X454799Y131660D01*
X454576Y131735D01*
X454368Y131779D01*
X454175Y131809D01*
X454041Y131824D01*
X453848D01*
X453788Y131809D01*
X453714D01*
X453580Y132864D01*
X453759Y132819D01*
X453922Y132790D01*
X454071Y132775D01*
X454190Y132760D01*
X454294Y132745D01*
X454427D01*
X454725Y132775D01*
X454977Y132834D01*
X455215Y132909D01*
X455408Y133013D01*
X455572Y133117D01*
X455690Y133191D01*
X455750Y133250D01*
X455779Y133280D01*
X455958Y133488D01*
X456091Y133711D01*
X456196Y133949D01*
X456255Y134157D01*
X456300Y134350D01*
X456314Y134499D01*
X456329Y134558D01*
Y134602D01*
Y134617D01*
Y134632D01*
X456300Y134944D01*
X456240Y135227D01*
X456151Y135479D01*
X456047Y135687D01*
X455928Y135865D01*
X455839Y135984D01*
X455779Y136059D01*
X455750Y136088D01*
X455527Y136282D01*
X455289Y136430D01*
X455051Y136519D01*
X454814Y136594D01*
X454621Y136638D01*
X454472Y136653D01*
X454412Y136668D01*
X454323D01*
X454071Y136653D01*
X453833Y136594D01*
X453625Y136519D01*
X453461Y136445D01*
X453313Y136356D01*
X453209Y136296D01*
X453149Y136237D01*
X453120Y136222D01*
X452956Y136029D01*
X452808Y135806D01*
X452689Y135554D01*
X452600Y135316D01*
X452525Y135093D01*
X452481Y134915D01*
X452451Y134855D01*
Y134796D01*
X452436Y134766D01*
Y134751D01*
X451233Y134915D01*
X451262Y135137D01*
X451307Y135345D01*
X451441Y135732D01*
X451589Y136074D01*
X451768Y136371D01*
X451842Y136490D01*
X451931Y136594D01*
X452005Y136683D01*
X452065Y136772D01*
X452124Y136831D01*
X452169Y136876D01*
X452184Y136891D01*
X452198Y136906D01*
X452362Y137039D01*
X452540Y137158D01*
X452704Y137262D01*
X452882Y137337D01*
X453239Y137485D01*
X453580Y137574D01*
X453729Y137604D01*
X453878Y137619D01*
X453996Y137634D01*
X454115Y137649D01*
X454204Y137663D01*
X454323D01*
X454576Y137649D01*
D02*
G37*
G36*
X446359D02*
X446626Y137634D01*
X447117Y137530D01*
X447340Y137470D01*
X447562Y137396D01*
X447756Y137322D01*
X447934Y137247D01*
X448097Y137173D01*
X448231Y137099D01*
X448350Y137024D01*
X448454Y136965D01*
X448543Y136906D01*
X448603Y136861D01*
X448632Y136846D01*
X448647Y136831D01*
X448840Y136668D01*
X449019Y136490D01*
X449316Y136103D01*
X449583Y135702D01*
X449776Y135301D01*
X449866Y135123D01*
X449925Y134959D01*
X449985Y134796D01*
X450044Y134677D01*
X450074Y134558D01*
X450103Y134484D01*
X450118Y134424D01*
Y134409D01*
X448825Y134082D01*
X448707Y134513D01*
X448558Y134900D01*
X448380Y135212D01*
X448216Y135479D01*
X448053Y135672D01*
X447919Y135821D01*
X447830Y135910D01*
X447815Y135925D01*
X447800Y135940D01*
X447503Y136148D01*
X447206Y136296D01*
X446894Y136415D01*
X446612Y136490D01*
X446359Y136534D01*
X446240Y136549D01*
X446151D01*
X446077Y136564D01*
X445973D01*
X445646Y136549D01*
X445334Y136490D01*
X445051Y136415D01*
X444814Y136341D01*
X444605Y136252D01*
X444442Y136192D01*
X444383Y136163D01*
X444338Y136133D01*
X444323Y136118D01*
X444308D01*
X444041Y135925D01*
X443818Y135702D01*
X443625Y135479D01*
X443461Y135241D01*
X443343Y135048D01*
X443268Y134870D01*
X443238Y134810D01*
X443209Y134766D01*
X443194Y134736D01*
Y134721D01*
X443075Y134365D01*
X442986Y133993D01*
X442926Y133622D01*
X442882Y133280D01*
X442867Y133132D01*
X442852Y132998D01*
Y132864D01*
X442837Y132760D01*
Y132671D01*
Y132611D01*
Y132567D01*
Y132552D01*
X442852Y132195D01*
X442882Y131854D01*
X442926Y131542D01*
X442986Y131259D01*
X443045Y131021D01*
X443060Y130918D01*
X443090Y130843D01*
X443105Y130769D01*
X443120Y130724D01*
X443134Y130695D01*
Y130680D01*
X443268Y130353D01*
X443432Y130056D01*
X443610Y129818D01*
X443773Y129610D01*
X443937Y129446D01*
X444071Y129328D01*
X444160Y129253D01*
X444175Y129223D01*
X444189D01*
X444487Y129045D01*
X444799Y128912D01*
X445111Y128807D01*
X445408Y128748D01*
X445675Y128703D01*
X445779Y128689D01*
X445883D01*
X445958Y128674D01*
X446062D01*
X446418Y128689D01*
X446730Y128748D01*
X447013Y128822D01*
X447236Y128912D01*
X447429Y129016D01*
X447562Y129090D01*
X447652Y129149D01*
X447681Y129164D01*
X447919Y129372D01*
X448112Y129610D01*
X448291Y129877D01*
X448424Y130130D01*
X448528Y130353D01*
X448573Y130457D01*
X448618Y130546D01*
X448647Y130620D01*
X448662Y130680D01*
X448677Y130709D01*
Y130724D01*
X449955Y130427D01*
X449776Y129952D01*
X449673Y129729D01*
X449568Y129536D01*
X449450Y129342D01*
X449331Y129164D01*
X449227Y129016D01*
X449108Y128867D01*
X449004Y128748D01*
X448900Y128644D01*
X448796Y128540D01*
X448722Y128466D01*
X448647Y128406D01*
X448603Y128362D01*
X448573Y128347D01*
X448558Y128332D01*
X448365Y128198D01*
X448172Y128079D01*
X447964Y127975D01*
X447756Y127886D01*
X447340Y127753D01*
X446953Y127663D01*
X446775Y127634D01*
X446612Y127619D01*
X446463Y127604D01*
X446344Y127589D01*
X446240Y127574D01*
X446091D01*
X445616Y127604D01*
X445170Y127663D01*
X444769Y127767D01*
X444591Y127812D01*
X444427Y127871D01*
X444279Y127931D01*
X444130Y127975D01*
X444011Y128035D01*
X443922Y128079D01*
X443833Y128109D01*
X443773Y128139D01*
X443744Y128169D01*
X443729D01*
X443357Y128406D01*
X443016Y128689D01*
X442733Y128971D01*
X442510Y129253D01*
X442317Y129506D01*
X442243Y129610D01*
X442183Y129699D01*
X442139Y129788D01*
X442109Y129848D01*
X442080Y129877D01*
Y129892D01*
X441886Y130323D01*
X441738Y130784D01*
X441649Y131229D01*
X441574Y131646D01*
X441545Y131839D01*
X441530Y132002D01*
X441515Y132166D01*
Y132299D01*
X441500Y132403D01*
Y132478D01*
Y132537D01*
Y132552D01*
X441515Y133072D01*
X441574Y133547D01*
X441664Y133993D01*
X441708Y134201D01*
X441753Y134380D01*
X441797Y134558D01*
X441842Y134706D01*
X441886Y134840D01*
X441931Y134959D01*
X441961Y135048D01*
X441990Y135108D01*
X442005Y135152D01*
Y135167D01*
X442213Y135598D01*
X442466Y135969D01*
X442704Y136296D01*
X442956Y136549D01*
X443164Y136757D01*
X443343Y136906D01*
X443417Y136950D01*
X443461Y136995D01*
X443491Y137010D01*
X443506Y137024D01*
X443699Y137143D01*
X443907Y137233D01*
X444323Y137396D01*
X444754Y137500D01*
X445170Y137589D01*
X445349Y137604D01*
X445527Y137634D01*
X445675Y137649D01*
X445809D01*
X445928Y137663D01*
X446077D01*
X446359Y137649D01*
D02*
G37*
G36*
X224844Y307499D02*
X220060D01*
X220401Y307083D01*
X220714Y306652D01*
X221011Y306222D01*
X221278Y305820D01*
X221382Y305627D01*
X221486Y305464D01*
X221575Y305315D01*
X221650Y305181D01*
X221709Y305077D01*
X221754Y305003D01*
X221783Y304944D01*
X221798Y304929D01*
X222080Y304364D01*
X222333Y303799D01*
X222541Y303265D01*
X222630Y303012D01*
X222719Y302789D01*
X222794Y302566D01*
X222853Y302373D01*
X222913Y302210D01*
X222957Y302061D01*
X222987Y301942D01*
X223017Y301853D01*
X223032Y301793D01*
Y301779D01*
X223180Y301184D01*
X223239Y300917D01*
X223284Y300649D01*
X223329Y300412D01*
X223358Y300189D01*
X223388Y299966D01*
X223418Y299773D01*
X223433Y299609D01*
X223447Y299446D01*
X223462Y299312D01*
Y299208D01*
X223477Y299119D01*
Y299059D01*
Y299015D01*
Y299000D01*
X222244D01*
X222199Y299535D01*
X222140Y300040D01*
X222066Y300486D01*
X222021Y300694D01*
X221991Y300887D01*
X221947Y301051D01*
X221917Y301214D01*
X221887Y301348D01*
X221858Y301467D01*
X221828Y301556D01*
X221813Y301615D01*
X221798Y301660D01*
Y301675D01*
X221590Y302328D01*
X221367Y302938D01*
X221248Y303235D01*
X221129Y303517D01*
X221011Y303785D01*
X220907Y304022D01*
X220803Y304245D01*
X220699Y304453D01*
X220609Y304632D01*
X220535Y304780D01*
X220476Y304899D01*
X220431Y304988D01*
X220401Y305048D01*
X220387Y305063D01*
X220208Y305360D01*
X220045Y305657D01*
X219867Y305924D01*
X219703Y306177D01*
X219555Y306415D01*
X219391Y306623D01*
X219242Y306831D01*
X219109Y307009D01*
X218990Y307158D01*
X218871Y307306D01*
X218767Y307425D01*
X218693Y307529D01*
X218618Y307603D01*
X218574Y307663D01*
X218544Y307693D01*
X218529Y307707D01*
Y308643D01*
X224844D01*
Y307499D01*
D02*
G37*
%LPC*%
G36*
X239957Y267428D02*
X236881D01*
X236495Y267413D01*
X236168Y267353D01*
X235901Y267294D01*
X235678Y267205D01*
X235514Y267131D01*
X235381Y267056D01*
X235321Y266997D01*
X235292Y266982D01*
X235128Y266804D01*
X234994Y266610D01*
X234905Y266417D01*
X234846Y266239D01*
X234816Y266075D01*
X234786Y265957D01*
Y265868D01*
Y265853D01*
Y265838D01*
X234801Y265659D01*
X234831Y265496D01*
X234876Y265347D01*
X234920Y265229D01*
X234965Y265110D01*
X235009Y265035D01*
X235039Y264976D01*
X235054Y264961D01*
X235158Y264827D01*
X235277Y264708D01*
X235410Y264604D01*
X235529Y264515D01*
X235633Y264456D01*
X235722Y264411D01*
X235782Y264396D01*
X235812Y264382D01*
X236005Y264322D01*
X236228Y264278D01*
X236465Y264248D01*
X236688Y264233D01*
X236881Y264218D01*
X237045Y264203D01*
X239957D01*
Y267428D01*
D02*
G37*
G36*
X91145Y400056D02*
X88069D01*
X87683Y400041D01*
X87356Y399981D01*
X87089Y399922D01*
X86866Y399833D01*
X86702Y399758D01*
X86569Y399684D01*
X86509Y399625D01*
X86480Y399610D01*
X86316Y399432D01*
X86182Y399238D01*
X86093Y399045D01*
X86034Y398867D01*
X86004Y398703D01*
X85974Y398585D01*
Y398495D01*
Y398481D01*
Y398466D01*
X85989Y398287D01*
X86019Y398124D01*
X86063Y397975D01*
X86108Y397856D01*
X86153Y397738D01*
X86197Y397663D01*
X86227Y397604D01*
X86242Y397589D01*
X86346Y397455D01*
X86465Y397337D01*
X86598Y397233D01*
X86717Y397143D01*
X86821Y397084D01*
X86910Y397039D01*
X86970Y397024D01*
X87000Y397010D01*
X87193Y396950D01*
X87416Y396906D01*
X87653Y396876D01*
X87876Y396861D01*
X88069Y396846D01*
X88233Y396831D01*
X91145D01*
Y400056D01*
D02*
G37*
G36*
X221250Y267561D02*
X221175D01*
X221027Y267547D01*
X220878Y267532D01*
X220611Y267442D01*
X220373Y267309D01*
X220165Y267160D01*
X220002Y267012D01*
X219883Y266878D01*
X219809Y266789D01*
X219779Y266774D01*
Y266759D01*
X219675Y266596D01*
X219586Y266402D01*
X219511Y266180D01*
X219452Y265927D01*
X219348Y265407D01*
X219288Y264872D01*
X219259Y264604D01*
X219244Y264367D01*
X219229Y264144D01*
Y263951D01*
X219214Y263787D01*
Y263668D01*
Y263594D01*
Y263564D01*
Y263133D01*
X219244Y262732D01*
X219259Y262376D01*
X219303Y262049D01*
X219348Y261751D01*
X219392Y261484D01*
X219437Y261261D01*
X219496Y261053D01*
X219556Y260890D01*
X219600Y260741D01*
X219645Y260607D01*
X219690Y260518D01*
X219719Y260444D01*
X219749Y260399D01*
X219779Y260370D01*
Y260355D01*
X219883Y260221D01*
X220002Y260102D01*
X220121Y259983D01*
X220239Y259894D01*
X220462Y259760D01*
X220685Y259671D01*
X220878Y259612D01*
X221027Y259582D01*
X221086Y259567D01*
X221161D01*
X221309Y259582D01*
X221458Y259597D01*
X221725Y259686D01*
X221963Y259820D01*
X222171Y259968D01*
X222334Y260102D01*
X222453Y260236D01*
X222528Y260325D01*
X222557Y260340D01*
Y260355D01*
X222647Y260518D01*
X222736Y260726D01*
X222810Y260949D01*
X222869Y261187D01*
X222973Y261722D01*
X223033Y262257D01*
X223063Y262509D01*
X223077Y262762D01*
X223092Y262985D01*
Y263178D01*
X223107Y263341D01*
Y263460D01*
Y263535D01*
Y263564D01*
Y263995D01*
X223077Y264396D01*
X223048Y264753D01*
X223018Y265080D01*
X222959Y265392D01*
X222914Y265659D01*
X222854Y265897D01*
X222795Y266105D01*
X222750Y266283D01*
X222691Y266447D01*
X222632Y266566D01*
X222587Y266670D01*
X222557Y266744D01*
X222528Y266804D01*
X222498Y266833D01*
Y266848D01*
X222409Y266967D01*
X222305Y267086D01*
X222082Y267264D01*
X221859Y267383D01*
X221651Y267472D01*
X221458Y267532D01*
X221309Y267547D01*
X221250Y267561D01*
D02*
G37*
G36*
X3207Y110428D02*
X131D01*
X-255Y110413D01*
X-582Y110353D01*
X-849Y110294D01*
X-1072Y110205D01*
X-1236Y110131D01*
X-1369Y110056D01*
X-1429Y109997D01*
X-1459Y109982D01*
X-1622Y109804D01*
X-1756Y109610D01*
X-1845Y109417D01*
X-1904Y109239D01*
X-1934Y109075D01*
X-1964Y108957D01*
Y108868D01*
Y108853D01*
Y108838D01*
X-1949Y108659D01*
X-1919Y108496D01*
X-1875Y108347D01*
X-1830Y108229D01*
X-1785Y108110D01*
X-1741Y108035D01*
X-1711Y107976D01*
X-1696Y107961D01*
X-1592Y107827D01*
X-1473Y107709D01*
X-1340Y107605D01*
X-1221Y107515D01*
X-1117Y107456D01*
X-1028Y107411D01*
X-968Y107396D01*
X-938Y107382D01*
X-745Y107322D01*
X-522Y107278D01*
X-285Y107248D01*
X-62Y107233D01*
X131Y107218D01*
X295Y107203D01*
X3207D01*
Y110428D01*
D02*
G37*
G36*
X-8665Y109551D02*
Y105182D01*
X-5604D01*
X-8665Y109551D01*
D02*
G37*
G36*
X72259Y400204D02*
X72155D01*
X71903Y400189D01*
X71864Y400180D01*
Y397699D01*
X71918Y397708D01*
X72037D01*
X72289Y397693D01*
X72527Y397663D01*
X72750Y397604D01*
X72943Y397545D01*
X73106Y397485D01*
X73240Y397426D01*
X73314Y397396D01*
X73344Y397381D01*
X73567Y397247D01*
X73775Y397099D01*
X73953Y396935D01*
X74102Y396772D01*
X74236Y396623D01*
X74325Y396504D01*
X74384Y396430D01*
X74399Y396415D01*
Y396668D01*
X74384Y396920D01*
X74369Y397158D01*
X74355Y397381D01*
X74325Y397574D01*
X74295Y397767D01*
X74265Y397931D01*
X74236Y398079D01*
X74206Y398213D01*
X74176Y398332D01*
X74147Y398436D01*
X74117Y398510D01*
X74102Y398570D01*
X74087Y398629D01*
X74072Y398644D01*
Y398659D01*
X73938Y398941D01*
X73790Y399194D01*
X73641Y399402D01*
X73493Y399565D01*
X73374Y399699D01*
X73270Y399803D01*
X73210Y399863D01*
X73181Y399877D01*
X73002Y399981D01*
X72839Y400070D01*
X72661Y400130D01*
X72497Y400160D01*
X72364Y400189D01*
X72259Y400204D01*
D02*
G37*
G36*
X69637Y399802D02*
X67495D01*
X67109Y399787D01*
X66782Y399727D01*
X66515Y399668D01*
X66292Y399579D01*
X66128Y399505D01*
X65995Y399430D01*
X65935Y399371D01*
X65905Y399356D01*
X65742Y399178D01*
X65608Y398984D01*
X65519Y398791D01*
X65460Y398613D01*
X65430Y398450D01*
X65400Y398331D01*
Y398242D01*
Y398227D01*
Y398212D01*
X65415Y398033D01*
X65445Y397870D01*
X65490Y397721D01*
X65534Y397603D01*
X65579Y397484D01*
X65623Y397409D01*
X65653Y397350D01*
X65668Y397335D01*
X65772Y397201D01*
X65891Y397082D01*
X66024Y396978D01*
X66143Y396889D01*
X66247Y396830D01*
X66336Y396785D01*
X66396Y396770D01*
X66426Y396756D01*
X66619Y396696D01*
X66842Y396652D01*
X67079Y396622D01*
X67302Y396607D01*
X67495Y396592D01*
X67659Y396577D01*
X69802D01*
X69852Y396653D01*
X69912Y396727D01*
X69956Y396772D01*
X69971Y396801D01*
X69986Y396816D01*
X70149Y396980D01*
X70313Y397114D01*
X70491Y397233D01*
X70571Y397279D01*
Y398931D01*
X70566Y398912D01*
X70521Y398793D01*
X70491Y398703D01*
Y398689D01*
Y398674D01*
X69303Y398763D01*
X69377Y399164D01*
X69511Y399521D01*
X69637Y399802D01*
D02*
G37*
G36*
X70571Y395463D02*
X70560D01*
X70506Y395301D01*
X70432Y395048D01*
X70402Y394825D01*
X70387Y394721D01*
Y394632D01*
X70372Y394573D01*
Y394513D01*
Y394483D01*
Y394469D01*
X70402Y394097D01*
X70462Y393770D01*
X70551Y393473D01*
X70571Y393418D01*
Y395463D01*
D02*
G37*
G36*
X72349Y396653D02*
X72274D01*
X71977Y396623D01*
X71864Y396598D01*
Y392248D01*
X71962Y392225D01*
X72096Y392210D01*
X72155Y392195D01*
X72230D01*
X72423Y392210D01*
X72601Y392240D01*
X72779Y392284D01*
X72928Y392344D01*
X73047Y392388D01*
X73136Y392433D01*
X73210Y392463D01*
X73225Y392478D01*
X73389Y392596D01*
X73537Y392745D01*
X73656Y392879D01*
X73760Y393027D01*
X73849Y393146D01*
X73909Y393250D01*
X73938Y393310D01*
X73953Y393339D01*
X74043Y393562D01*
X74102Y393770D01*
X74147Y393964D01*
X74176Y394157D01*
X74191Y394305D01*
X74206Y394424D01*
Y394498D01*
Y394528D01*
X74176Y394870D01*
X74117Y395167D01*
X74028Y395434D01*
X73924Y395657D01*
X73820Y395821D01*
X73731Y395955D01*
X73671Y396029D01*
X73641Y396059D01*
X73418Y396252D01*
X73196Y396400D01*
X72958Y396504D01*
X72750Y396579D01*
X72557Y396623D01*
X72408Y396638D01*
X72349Y396653D01*
D02*
G37*
G36*
X223783Y286811D02*
X223709D01*
X223427Y286782D01*
X223174Y286722D01*
X222951Y286618D01*
X222758Y286514D01*
X222595Y286395D01*
X222491Y286291D01*
X222416Y286232D01*
X222387Y286202D01*
X222208Y285950D01*
X222075Y285682D01*
X221971Y285415D01*
X221911Y285147D01*
X221866Y284909D01*
X221852Y284820D01*
Y284731D01*
X221837Y284657D01*
Y284597D01*
Y284568D01*
Y284553D01*
X221866Y284196D01*
X221926Y283869D01*
X222015Y283602D01*
X222104Y283364D01*
X222208Y283186D01*
X222297Y283052D01*
X222357Y282978D01*
X222387Y282948D01*
X222595Y282755D01*
X222817Y282606D01*
X223055Y282517D01*
X223263Y282443D01*
X223456Y282398D01*
X223605Y282383D01*
X223664Y282369D01*
X223739D01*
X224036Y282398D01*
X224303Y282458D01*
X224541Y282547D01*
X224749Y282666D01*
X224913Y282770D01*
X225032Y282859D01*
X225106Y282918D01*
X225135Y282948D01*
X225314Y283186D01*
X225448Y283424D01*
X225551Y283676D01*
X225611Y283929D01*
X225655Y284137D01*
X225670Y284315D01*
X225685Y284375D01*
Y284419D01*
Y284449D01*
Y284464D01*
X225655Y284835D01*
X225596Y285162D01*
X225507Y285459D01*
X225388Y285697D01*
X225284Y285890D01*
X225195Y286039D01*
X225135Y286128D01*
X225106Y286158D01*
X224987Y286276D01*
X224868Y286381D01*
X224630Y286529D01*
X224407Y286648D01*
X224184Y286737D01*
X223991Y286782D01*
X223843Y286796D01*
X223783Y286811D01*
D02*
G37*
G36*
X446357Y66454D02*
X444054D01*
X443742Y66424D01*
X443489Y66410D01*
X443282Y66380D01*
X443133Y66350D01*
X443029Y66335D01*
X442955Y66306D01*
X442940D01*
X442791Y66246D01*
X442657Y66172D01*
X442538Y66083D01*
X442449Y66009D01*
X442375Y65919D01*
X442316Y65860D01*
X442286Y65815D01*
X442271Y65800D01*
X442197Y65652D01*
X442137Y65503D01*
X442093Y65370D01*
X442063Y65236D01*
X442048Y65117D01*
X442033Y65028D01*
Y64953D01*
Y64939D01*
X442048Y64745D01*
X442078Y64582D01*
X442108Y64433D01*
X442152Y64314D01*
X442212Y64211D01*
X442241Y64136D01*
X442271Y64092D01*
X442286Y64077D01*
X442390Y63958D01*
X442509Y63854D01*
X442628Y63765D01*
X442747Y63705D01*
X442865Y63646D01*
X442955Y63616D01*
X443014Y63601D01*
X443029Y63586D01*
X443192Y63557D01*
X443371Y63527D01*
X443579Y63512D01*
X443787Y63497D01*
X443965Y63482D01*
X446357D01*
Y66454D01*
D02*
G37*
G36*
Y62338D02*
X443787D01*
X443489Y62309D01*
X443252Y62294D01*
X443044Y62264D01*
X442895Y62234D01*
X442776Y62204D01*
X442717Y62190D01*
X442687Y62175D01*
X442509Y62101D01*
X442360Y62011D01*
X442226Y61922D01*
X442122Y61818D01*
X442033Y61729D01*
X441959Y61670D01*
X441929Y61610D01*
X441914Y61595D01*
X441810Y61447D01*
X441736Y61283D01*
X441692Y61120D01*
X441647Y60971D01*
X441632Y60852D01*
X441617Y60748D01*
Y60689D01*
Y60659D01*
X441632Y60481D01*
X441647Y60332D01*
X441677Y60184D01*
X441706Y60065D01*
X441751Y59961D01*
X441781Y59886D01*
X441796Y59842D01*
X441810Y59827D01*
X441885Y59708D01*
X441974Y59589D01*
X442048Y59500D01*
X442137Y59426D01*
X442212Y59352D01*
X442256Y59307D01*
X442301Y59292D01*
X442316Y59277D01*
X442553Y59159D01*
X442791Y59084D01*
X442895Y59054D01*
X442984Y59040D01*
X443044Y59025D01*
X443059D01*
X443163Y59010D01*
X443296Y58995D01*
X443593Y58980D01*
X446357D01*
Y62338D01*
D02*
G37*
G36*
X510531Y262735D02*
X510412D01*
X510160Y262720D01*
X509937Y262660D01*
X509729Y262601D01*
X509566Y262512D01*
X509432Y262437D01*
X509328Y262363D01*
X509268Y262319D01*
X509254Y262304D01*
X509105Y262125D01*
X509001Y261932D01*
X508927Y261754D01*
X508882Y261576D01*
X508852Y261412D01*
X508823Y261293D01*
Y261204D01*
Y261175D01*
X508837Y260952D01*
X508897Y260758D01*
X508971Y260565D01*
X509045Y260417D01*
X509135Y260298D01*
X509194Y260194D01*
X509254Y260134D01*
X509268Y260119D01*
X509447Y259971D01*
X509640Y259867D01*
X509833Y259778D01*
X510011Y259733D01*
X510175Y259704D01*
X510294Y259674D01*
X510412D01*
X510665Y259689D01*
X510873Y259748D01*
X511066Y259822D01*
X511230Y259897D01*
X511363Y259986D01*
X511468Y260060D01*
X511527Y260119D01*
X511542Y260134D01*
X511690Y260313D01*
X511809Y260491D01*
X511884Y260684D01*
X511943Y260848D01*
X511973Y260996D01*
X512002Y261130D01*
Y261204D01*
Y261219D01*
Y261234D01*
X511987Y261457D01*
X511928Y261665D01*
X511869Y261858D01*
X511780Y262007D01*
X511705Y262140D01*
X511631Y262229D01*
X511572Y262289D01*
X511557Y262304D01*
X511378Y262452D01*
X511185Y262556D01*
X510992Y262631D01*
X510814Y262675D01*
X510650Y262705D01*
X510531Y262735D01*
D02*
G37*
G36*
X510517Y267683D02*
X510427D01*
X510219Y267668D01*
X510026Y267638D01*
X509863Y267609D01*
X509699Y267549D01*
X509566Y267504D01*
X509476Y267475D01*
X509417Y267445D01*
X509387Y267430D01*
X509224Y267326D01*
X509075Y267207D01*
X508956Y267073D01*
X508852Y266955D01*
X508778Y266851D01*
X508718Y266761D01*
X508689Y266702D01*
X508674Y266687D01*
X508600Y266509D01*
X508540Y266331D01*
X508496Y266152D01*
X508466Y266004D01*
X508451Y265870D01*
X508436Y265781D01*
Y265707D01*
Y265692D01*
X508466Y265394D01*
X508525Y265112D01*
X508615Y264874D01*
X508718Y264666D01*
X508808Y264503D01*
X508897Y264384D01*
X508956Y264310D01*
X508986Y264280D01*
X509209Y264087D01*
X509432Y263953D01*
X509669Y263849D01*
X509892Y263790D01*
X510086Y263745D01*
X510249Y263730D01*
X510308Y263715D01*
X510383D01*
X510695Y263745D01*
X510977Y263805D01*
X511230Y263894D01*
X511438Y263998D01*
X511601Y264117D01*
X511720Y264206D01*
X511794Y264265D01*
X511824Y264295D01*
X512017Y264518D01*
X512166Y264755D01*
X512270Y264993D01*
X512329Y265216D01*
X512374Y265424D01*
X512389Y265573D01*
X512404Y265632D01*
Y265677D01*
Y265707D01*
Y265721D01*
X512374Y266033D01*
X512314Y266301D01*
X512225Y266553D01*
X512121Y266747D01*
X512017Y266910D01*
X511928Y267029D01*
X511869Y267103D01*
X511839Y267133D01*
X511616Y267311D01*
X511393Y267445D01*
X511155Y267549D01*
X510933Y267609D01*
X510724Y267653D01*
X510576Y267668D01*
X510517Y267683D01*
D02*
G37*
G36*
X234957Y286678D02*
X231882D01*
X231495Y286663D01*
X231168Y286603D01*
X230901Y286544D01*
X230678Y286455D01*
X230514Y286381D01*
X230381Y286306D01*
X230321Y286247D01*
X230292Y286232D01*
X230128Y286054D01*
X229994Y285860D01*
X229905Y285667D01*
X229846Y285489D01*
X229816Y285326D01*
X229786Y285207D01*
Y285117D01*
Y285103D01*
Y285088D01*
X229801Y284909D01*
X229831Y284746D01*
X229876Y284597D01*
X229920Y284478D01*
X229965Y284360D01*
X230009Y284285D01*
X230039Y284226D01*
X230054Y284211D01*
X230158Y284077D01*
X230277Y283958D01*
X230410Y283854D01*
X230529Y283765D01*
X230633Y283706D01*
X230722Y283661D01*
X230782Y283646D01*
X230812Y283632D01*
X231005Y283572D01*
X231228Y283528D01*
X231465Y283498D01*
X231688Y283483D01*
X231882Y283468D01*
X232045Y283453D01*
X234957D01*
Y286678D01*
D02*
G37*
G36*
X435168Y66588D02*
X435064Y66261D01*
X434960Y65919D01*
X434841Y65578D01*
X434723Y65251D01*
X434633Y64968D01*
X434589Y64850D01*
X434544Y64745D01*
X434515Y64656D01*
X434485Y64597D01*
X434470Y64552D01*
Y64537D01*
X433460Y61848D01*
X436773D01*
X435703Y64701D01*
X435584Y65043D01*
X435480Y65384D01*
X435391Y65696D01*
X435317Y65994D01*
X435258Y66231D01*
X435228Y66335D01*
X435198Y66424D01*
X435183Y66499D01*
Y66543D01*
X435168Y66573D01*
Y66588D01*
D02*
G37*
G36*
X139659Y153422D02*
X136583D01*
X136197Y153407D01*
X135870Y153347D01*
X135603Y153288D01*
X135380Y153199D01*
X135216Y153125D01*
X135083Y153050D01*
X135023Y152991D01*
X134993Y152976D01*
X134830Y152798D01*
X134696Y152604D01*
X134607Y152411D01*
X134548Y152233D01*
X134518Y152070D01*
X134488Y151951D01*
Y151861D01*
Y151847D01*
Y151832D01*
X134503Y151653D01*
X134533Y151490D01*
X134578Y151341D01*
X134622Y151222D01*
X134667Y151104D01*
X134711Y151029D01*
X134741Y150970D01*
X134756Y150955D01*
X134860Y150821D01*
X134979Y150702D01*
X135112Y150598D01*
X135231Y150509D01*
X135335Y150450D01*
X135424Y150405D01*
X135484Y150390D01*
X135514Y150376D01*
X135707Y150316D01*
X135930Y150272D01*
X136167Y150242D01*
X136390Y150227D01*
X136583Y150212D01*
X136747Y150197D01*
X139659D01*
Y153422D01*
D02*
G37*
G36*
X128545Y153570D02*
X128426D01*
X128173Y153555D01*
X127965Y153496D01*
X127772Y153422D01*
X127609Y153347D01*
X127475Y153258D01*
X127371Y153184D01*
X127311Y153125D01*
X127297Y153110D01*
X127148Y152931D01*
X127029Y152753D01*
X126955Y152560D01*
X126895Y152396D01*
X126866Y152248D01*
X126836Y152114D01*
Y152040D01*
Y152025D01*
Y152010D01*
X126851Y151787D01*
X126910Y151579D01*
X126970Y151386D01*
X127059Y151237D01*
X127133Y151104D01*
X127207Y151014D01*
X127267Y150955D01*
X127282Y150940D01*
X127460Y150792D01*
X127653Y150688D01*
X127846Y150613D01*
X128025Y150569D01*
X128188Y150539D01*
X128307Y150509D01*
X128426D01*
X128679Y150524D01*
X128901Y150584D01*
X129109Y150643D01*
X129273Y150732D01*
X129406Y150807D01*
X129511Y150881D01*
X129570Y150925D01*
X129585Y150940D01*
X129733Y151118D01*
X129838Y151312D01*
X129912Y151490D01*
X129956Y151668D01*
X129986Y151832D01*
X130016Y151951D01*
Y152040D01*
Y152070D01*
X130001Y152292D01*
X129942Y152486D01*
X129867Y152679D01*
X129793Y152827D01*
X129704Y152946D01*
X129644Y153050D01*
X129585Y153110D01*
X129570Y153125D01*
X129392Y153273D01*
X129199Y153377D01*
X129005Y153466D01*
X128827Y153511D01*
X128664Y153540D01*
X128545Y153570D01*
D02*
G37*
G36*
X128530Y149529D02*
X128456D01*
X128144Y149499D01*
X127861Y149439D01*
X127609Y149350D01*
X127401Y149246D01*
X127237Y149127D01*
X127118Y149038D01*
X127044Y148979D01*
X127014Y148949D01*
X126821Y148726D01*
X126672Y148489D01*
X126568Y148251D01*
X126509Y148028D01*
X126465Y147820D01*
X126450Y147671D01*
X126435Y147612D01*
Y147567D01*
Y147537D01*
Y147523D01*
X126465Y147211D01*
X126524Y146943D01*
X126613Y146691D01*
X126717Y146497D01*
X126821Y146334D01*
X126910Y146215D01*
X126970Y146141D01*
X126999Y146111D01*
X127222Y145933D01*
X127445Y145799D01*
X127683Y145695D01*
X127906Y145635D01*
X128114Y145591D01*
X128262Y145576D01*
X128322Y145561D01*
X128411D01*
X128619Y145576D01*
X128812Y145606D01*
X128976Y145635D01*
X129139Y145695D01*
X129273Y145740D01*
X129362Y145769D01*
X129421Y145799D01*
X129451Y145814D01*
X129615Y145918D01*
X129763Y146037D01*
X129882Y146171D01*
X129986Y146289D01*
X130060Y146393D01*
X130120Y146482D01*
X130149Y146542D01*
X130164Y146557D01*
X130239Y146735D01*
X130298Y146913D01*
X130343Y147092D01*
X130372Y147240D01*
X130387Y147374D01*
X130402Y147463D01*
Y147537D01*
Y147552D01*
X130372Y147850D01*
X130313Y148132D01*
X130224Y148370D01*
X130120Y148578D01*
X130031Y148741D01*
X129942Y148860D01*
X129882Y148934D01*
X129852Y148964D01*
X129629Y149157D01*
X129406Y149291D01*
X129169Y149395D01*
X128946Y149454D01*
X128753Y149499D01*
X128589Y149514D01*
X128530Y149529D01*
D02*
G37*
G36*
X3457Y52428D02*
X382D01*
X-5Y52413D01*
X-332Y52353D01*
X-599Y52294D01*
X-822Y52205D01*
X-986Y52130D01*
X-1119Y52056D01*
X-1179Y51997D01*
X-1208Y51982D01*
X-1372Y51804D01*
X-1506Y51610D01*
X-1595Y51417D01*
X-1654Y51239D01*
X-1684Y51076D01*
X-1714Y50957D01*
Y50868D01*
Y50853D01*
Y50838D01*
X-1699Y50659D01*
X-1669Y50496D01*
X-1625Y50347D01*
X-1580Y50229D01*
X-1535Y50110D01*
X-1491Y50035D01*
X-1461Y49976D01*
X-1446Y49961D01*
X-1342Y49827D01*
X-1223Y49708D01*
X-1090Y49604D01*
X-971Y49515D01*
X-867Y49456D01*
X-777Y49411D01*
X-718Y49396D01*
X-688Y49382D01*
X-495Y49322D01*
X-272Y49278D01*
X-35Y49248D01*
X188Y49233D01*
X382Y49218D01*
X545Y49203D01*
X3457D01*
Y52428D01*
D02*
G37*
G36*
X239957Y246428D02*
X236881D01*
X236495Y246413D01*
X236168Y246353D01*
X235901Y246294D01*
X235678Y246205D01*
X235514Y246131D01*
X235381Y246056D01*
X235321Y245997D01*
X235292Y245982D01*
X235128Y245804D01*
X234994Y245610D01*
X234905Y245417D01*
X234846Y245239D01*
X234816Y245075D01*
X234786Y244957D01*
Y244867D01*
Y244853D01*
Y244838D01*
X234801Y244659D01*
X234831Y244496D01*
X234876Y244347D01*
X234920Y244228D01*
X234965Y244110D01*
X235009Y244035D01*
X235039Y243976D01*
X235054Y243961D01*
X235158Y243827D01*
X235277Y243708D01*
X235410Y243604D01*
X235529Y243515D01*
X235633Y243456D01*
X235722Y243411D01*
X235782Y243396D01*
X235812Y243382D01*
X236005Y243322D01*
X236228Y243277D01*
X236465Y243248D01*
X236688Y243233D01*
X236881Y243218D01*
X237045Y243203D01*
X239957D01*
Y246428D01*
D02*
G37*
G36*
Y226678D02*
X236881D01*
X236495Y226663D01*
X236168Y226603D01*
X235901Y226544D01*
X235678Y226455D01*
X235514Y226381D01*
X235381Y226306D01*
X235321Y226247D01*
X235292Y226232D01*
X235128Y226054D01*
X234994Y225860D01*
X234905Y225667D01*
X234846Y225489D01*
X234816Y225326D01*
X234786Y225207D01*
Y225117D01*
Y225103D01*
Y225088D01*
X234801Y224909D01*
X234831Y224746D01*
X234876Y224597D01*
X234920Y224478D01*
X234965Y224360D01*
X235009Y224285D01*
X235039Y224226D01*
X235054Y224211D01*
X235158Y224077D01*
X235277Y223958D01*
X235410Y223854D01*
X235529Y223765D01*
X235633Y223706D01*
X235722Y223661D01*
X235782Y223646D01*
X235812Y223632D01*
X236005Y223572D01*
X236228Y223528D01*
X236465Y223498D01*
X236688Y223483D01*
X236881Y223468D01*
X237045Y223453D01*
X239957D01*
Y226678D01*
D02*
G37*
G36*
X-52897Y384788D02*
X-55973D01*
X-56359Y384773D01*
X-56686Y384713D01*
X-56953Y384654D01*
X-57176Y384565D01*
X-57340Y384491D01*
X-57473Y384416D01*
X-57533Y384357D01*
X-57562Y384342D01*
X-57726Y384164D01*
X-57860Y383970D01*
X-57949Y383777D01*
X-58008Y383599D01*
X-58038Y383436D01*
X-58068Y383317D01*
Y383228D01*
Y383213D01*
Y383198D01*
X-58053Y383019D01*
X-58023Y382856D01*
X-57979Y382707D01*
X-57934Y382589D01*
X-57889Y382470D01*
X-57845Y382395D01*
X-57815Y382336D01*
X-57800Y382321D01*
X-57696Y382187D01*
X-57577Y382068D01*
X-57444Y381964D01*
X-57325Y381875D01*
X-57221Y381816D01*
X-57132Y381771D01*
X-57072Y381756D01*
X-57042Y381742D01*
X-56849Y381682D01*
X-56626Y381638D01*
X-56389Y381608D01*
X-56166Y381593D01*
X-55973Y381578D01*
X-55809Y381563D01*
X-52897D01*
Y384788D01*
D02*
G37*
G36*
X-147876Y278300D02*
X-151368D01*
Y275818D01*
Y275521D01*
X-151353Y275254D01*
X-151339Y275045D01*
X-151324Y274882D01*
X-151309Y274763D01*
X-151294Y274674D01*
X-151279Y274629D01*
Y274615D01*
X-151205Y274436D01*
X-151131Y274273D01*
X-151026Y274139D01*
X-150937Y274020D01*
X-150848Y273916D01*
X-150774Y273857D01*
X-150714Y273812D01*
X-150700Y273797D01*
X-150536Y273693D01*
X-150358Y273619D01*
X-150180Y273559D01*
X-150016Y273530D01*
X-149867Y273500D01*
X-149749Y273485D01*
X-149645D01*
X-149347Y273515D01*
X-149080Y273574D01*
X-148857Y273649D01*
X-148679Y273753D01*
X-148530Y273857D01*
X-148426Y273931D01*
X-148352Y273990D01*
X-148337Y274020D01*
X-148263Y274124D01*
X-148188Y274243D01*
X-148069Y274510D01*
X-147995Y274808D01*
X-147936Y275105D01*
X-147906Y275372D01*
X-147891Y275476D01*
Y275580D01*
X-147876Y275669D01*
Y275729D01*
Y275774D01*
Y275788D01*
Y278300D01*
D02*
G37*
G36*
X338707Y174964D02*
X338588D01*
X338409Y174949D01*
X338246Y174919D01*
X338097Y174874D01*
X337979Y174830D01*
X337860Y174785D01*
X337785Y174741D01*
X337726Y174711D01*
X337711Y174696D01*
X337577Y174592D01*
X337458Y174473D01*
X337354Y174340D01*
X337265Y174221D01*
X337206Y174117D01*
X337161Y174028D01*
X337146Y173968D01*
X337132Y173938D01*
X337072Y173745D01*
X337028Y173522D01*
X336998Y173285D01*
X336983Y173062D01*
X336968Y172868D01*
X336953Y172705D01*
Y172646D01*
Y172601D01*
Y172571D01*
Y172556D01*
Y169793D01*
X340178D01*
Y172868D01*
X340163Y173255D01*
X340103Y173582D01*
X340044Y173849D01*
X339955Y174072D01*
X339880Y174236D01*
X339806Y174369D01*
X339747Y174429D01*
X339732Y174459D01*
X339554Y174622D01*
X339360Y174756D01*
X339167Y174845D01*
X338989Y174904D01*
X338825Y174934D01*
X338707Y174964D01*
D02*
G37*
G36*
X573957Y239464D02*
X573838D01*
X573659Y239449D01*
X573496Y239419D01*
X573347Y239375D01*
X573228Y239330D01*
X573110Y239285D01*
X573035Y239241D01*
X572976Y239211D01*
X572961Y239196D01*
X572827Y239092D01*
X572709Y238973D01*
X572604Y238840D01*
X572515Y238721D01*
X572456Y238617D01*
X572411Y238528D01*
X572396Y238468D01*
X572382Y238438D01*
X572322Y238245D01*
X572277Y238022D01*
X572248Y237785D01*
X572233Y237562D01*
X572218Y237369D01*
X572203Y237205D01*
Y237146D01*
Y237101D01*
Y237071D01*
Y237057D01*
Y234293D01*
X575428D01*
Y237369D01*
X575413Y237755D01*
X575353Y238082D01*
X575294Y238349D01*
X575205Y238572D01*
X575131Y238736D01*
X575056Y238869D01*
X574997Y238929D01*
X574982Y238958D01*
X574804Y239122D01*
X574610Y239256D01*
X574417Y239345D01*
X574239Y239404D01*
X574076Y239434D01*
X573957Y239464D01*
D02*
G37*
G36*
X475955Y280930D02*
X472879D01*
X472493Y280915D01*
X472166Y280855D01*
X471899Y280796D01*
X471676Y280707D01*
X471512Y280632D01*
X471379Y280558D01*
X471319Y280499D01*
X471289Y280484D01*
X471126Y280306D01*
X470992Y280112D01*
X470903Y279919D01*
X470844Y279741D01*
X470814Y279578D01*
X470784Y279459D01*
Y279370D01*
Y279355D01*
Y279340D01*
X470799Y279161D01*
X470829Y278998D01*
X470873Y278849D01*
X470918Y278731D01*
X470963Y278612D01*
X471007Y278537D01*
X471037Y278478D01*
X471052Y278463D01*
X471156Y278329D01*
X471275Y278211D01*
X471408Y278106D01*
X471527Y278017D01*
X471631Y277958D01*
X471720Y277913D01*
X471780Y277898D01*
X471810Y277884D01*
X472003Y277824D01*
X472226Y277780D01*
X472463Y277750D01*
X472686Y277735D01*
X472879Y277720D01*
X473043Y277705D01*
X475955D01*
Y280930D01*
D02*
G37*
G36*
X349657Y150800D02*
X349553D01*
X349196Y150770D01*
X348869Y150710D01*
X348602Y150621D01*
X348364Y150532D01*
X348186Y150428D01*
X348052Y150339D01*
X347978Y150280D01*
X347948Y150250D01*
X347755Y150042D01*
X347606Y149819D01*
X347517Y149581D01*
X347443Y149373D01*
X347398Y149180D01*
X347383Y149031D01*
X347369Y148972D01*
Y148927D01*
Y148912D01*
Y148898D01*
X347398Y148600D01*
X347458Y148333D01*
X347547Y148095D01*
X347666Y147887D01*
X347770Y147724D01*
X347859Y147605D01*
X347918Y147531D01*
X347948Y147501D01*
X348186Y147323D01*
X348424Y147189D01*
X348676Y147085D01*
X348929Y147025D01*
X349137Y146981D01*
X349315Y146966D01*
X349375Y146951D01*
X349464D01*
X349835Y146981D01*
X350162Y147040D01*
X350459Y147129D01*
X350697Y147248D01*
X350890Y147352D01*
X351039Y147441D01*
X351128Y147501D01*
X351158Y147531D01*
X351277Y147649D01*
X351381Y147768D01*
X351529Y148006D01*
X351648Y148229D01*
X351737Y148452D01*
X351782Y148645D01*
X351797Y148794D01*
X351811Y148853D01*
Y148898D01*
Y148912D01*
Y148927D01*
X351782Y149210D01*
X351722Y149462D01*
X351618Y149685D01*
X351514Y149878D01*
X351395Y150042D01*
X351291Y150146D01*
X351232Y150220D01*
X351202Y150250D01*
X350950Y150428D01*
X350682Y150562D01*
X350415Y150666D01*
X350147Y150725D01*
X349910Y150770D01*
X349820Y150785D01*
X349731D01*
X349657Y150800D01*
D02*
G37*
G36*
X232957Y307678D02*
X229881D01*
X229495Y307663D01*
X229168Y307603D01*
X228901Y307544D01*
X228678Y307455D01*
X228514Y307381D01*
X228381Y307306D01*
X228321Y307247D01*
X228291Y307232D01*
X228128Y307054D01*
X227994Y306860D01*
X227905Y306667D01*
X227846Y306489D01*
X227816Y306325D01*
X227786Y306207D01*
Y306117D01*
Y306103D01*
Y306088D01*
X227801Y305909D01*
X227831Y305746D01*
X227875Y305597D01*
X227920Y305478D01*
X227965Y305360D01*
X228009Y305285D01*
X228039Y305226D01*
X228054Y305211D01*
X228158Y305077D01*
X228277Y304958D01*
X228410Y304855D01*
X228529Y304765D01*
X228633Y304706D01*
X228722Y304661D01*
X228782Y304646D01*
X228812Y304632D01*
X229005Y304572D01*
X229228Y304528D01*
X229465Y304498D01*
X229688Y304483D01*
X229881Y304468D01*
X230045Y304453D01*
X232957D01*
Y307678D01*
D02*
G37*
G36*
X354113Y246061D02*
X354039D01*
X353891Y246047D01*
X353742Y246032D01*
X353475Y245942D01*
X353237Y245809D01*
X353029Y245660D01*
X352865Y245512D01*
X352746Y245378D01*
X352672Y245289D01*
X352642Y245274D01*
Y245259D01*
X352538Y245096D01*
X352449Y244902D01*
X352375Y244680D01*
X352315Y244427D01*
X352211Y243907D01*
X352152Y243372D01*
X352122Y243104D01*
X352108Y242867D01*
X352093Y242644D01*
Y242451D01*
X352078Y242287D01*
Y242168D01*
Y242094D01*
Y242064D01*
Y241633D01*
X352108Y241232D01*
X352122Y240876D01*
X352167Y240549D01*
X352211Y240252D01*
X352256Y239984D01*
X352301Y239761D01*
X352360Y239553D01*
X352420Y239390D01*
X352464Y239241D01*
X352509Y239107D01*
X352553Y239018D01*
X352583Y238944D01*
X352613Y238899D01*
X352642Y238870D01*
Y238855D01*
X352746Y238721D01*
X352865Y238602D01*
X352984Y238483D01*
X353103Y238394D01*
X353326Y238260D01*
X353549Y238171D01*
X353742Y238112D01*
X353891Y238082D01*
X353950Y238067D01*
X354024D01*
X354173Y238082D01*
X354322Y238097D01*
X354589Y238186D01*
X354827Y238320D01*
X355035Y238468D01*
X355198Y238602D01*
X355317Y238736D01*
X355391Y238825D01*
X355421Y238840D01*
Y238855D01*
X355510Y239018D01*
X355599Y239226D01*
X355674Y239449D01*
X355733Y239687D01*
X355837Y240222D01*
X355896Y240757D01*
X355926Y241009D01*
X355941Y241262D01*
X355956Y241485D01*
Y241678D01*
X355971Y241841D01*
Y241960D01*
Y242035D01*
Y242064D01*
Y242495D01*
X355941Y242896D01*
X355911Y243253D01*
X355882Y243580D01*
X355822Y243892D01*
X355778Y244159D01*
X355718Y244397D01*
X355659Y244605D01*
X355614Y244783D01*
X355555Y244947D01*
X355495Y245066D01*
X355451Y245170D01*
X355421Y245244D01*
X355391Y245304D01*
X355362Y245333D01*
Y245348D01*
X355272Y245467D01*
X355168Y245586D01*
X354945Y245764D01*
X354723Y245883D01*
X354515Y245972D01*
X354322Y246032D01*
X354173Y246047D01*
X354113Y246061D01*
D02*
G37*
%LPD*%
D21*
X-164592Y131104D02*
Y315762D01*
X87208Y315254D02*
X93726D01*
X-164592Y315762D02*
X-99314D01*
X93726Y308650D02*
Y315254D01*
X85288Y132120D02*
X93726D01*
Y138896D01*
X-164592Y131104D02*
X-99314D01*
X383725Y129197D02*
X393732D01*
Y359194D01*
X383725D02*
X393732D01*
X383725Y129197D02*
Y359194D01*
D47*
X415000Y179950D02*
G03*
X415000Y179950I-1250J0D01*
G01*
X606750Y265249D02*
Y272750D01*
Y192750D02*
Y200251D01*
Y272750D02*
X654751D01*
X606750Y192750D02*
X654751D01*
Y232750D01*
Y272750D01*
D48*
X-18000Y59500D02*
X12000D01*
Y74500D01*
X-18000Y59500D02*
Y74500D01*
X12000D01*
X-18000Y81500D02*
X12000D01*
Y96500D01*
X-18000Y81500D02*
Y96500D01*
X12000D01*
X185900Y311500D02*
X215900D01*
X185900Y296500D02*
Y311500D01*
X215900Y296500D02*
Y311500D01*
X185900Y296500D02*
X215900D01*
X185900Y230500D02*
X215900D01*
X185900Y215500D02*
Y230500D01*
X215900Y215500D02*
Y230500D01*
X185900Y215500D02*
X215900D01*
X185900Y250750D02*
X215900D01*
X185900Y235750D02*
Y250750D01*
X215900Y235750D02*
Y250750D01*
X185900Y235750D02*
X215900D01*
X185900Y271000D02*
X215900D01*
X185900Y256000D02*
Y271000D01*
X215900Y256000D02*
Y271000D01*
X185900Y256000D02*
X215900D01*
X185900Y291250D02*
X215900D01*
X185900Y276250D02*
Y291250D01*
X215900Y276250D02*
Y291250D01*
X185900Y276250D02*
X215900D01*
X487500Y201500D02*
X557500D01*
Y131500D02*
Y201500D01*
X487500Y131500D02*
X557500D01*
X487500D02*
Y201500D01*
X426000Y181500D02*
Y233500D01*
X457000Y181500D02*
Y233500D01*
X426000Y181500D02*
X457000D01*
X426000Y233500D02*
X457000D01*
X70750Y355000D02*
Y385000D01*
X55750D02*
X70750D01*
X55750Y355000D02*
X70750D01*
X55750D02*
Y385000D01*
X-82500Y355000D02*
X-52500D01*
Y370000D01*
X-82500Y355000D02*
Y370000D01*
X-52500D01*
X110000Y138500D02*
X140000D01*
X110000Y123500D02*
Y138500D01*
X140000Y123500D02*
Y138500D01*
X110000Y123500D02*
X140000D01*
X91500Y355250D02*
Y385250D01*
X76500D02*
X91500D01*
X76500Y355250D02*
X91500D01*
X76500D02*
Y385250D01*
X-97500Y337500D02*
Y352500D01*
X-67500Y337500D02*
Y352500D01*
X-97500D02*
X-67500D01*
X-97500Y337500D02*
X-67500D01*
D49*
X446900Y26800D02*
Y52200D01*
X396100Y26800D02*
X446900D01*
X396100D02*
Y52200D01*
X446900D01*
D82*
X-97814Y327160D02*
G03*
X-97814Y327160I-1500J0D01*
G01*
M02*
