G04 Layer_Physical_Order=2*
G04 Layer_Color=16711680*
%FSLAX44Y44*%
%MOMM*%
G71*
G01*
G75*
%ADD11C,0.5000*%
%ADD13R,1.0000X1.0000*%
%ADD15R,1.0000X1.0000*%
%ADD21C,0.2540*%
%ADD22C,0.5500*%
%ADD23C,1.5240*%
%ADD24C,2.0000*%
%ADD25C,1.7000*%
%ADD26R,2.0000X2.0000*%
%ADD27O,1.2000X1.6000*%
%ADD28R,1.5000X1.5000*%
%ADD29C,1.5000*%
%ADD30R,2.0000X2.0000*%
%ADD31R,1.6000X1.6000*%
%ADD32C,1.6000*%
%ADD33O,2.0000X1.5000*%
%ADD34C,1.1999*%
%ADD35C,0.7000*%
G04:AMPARAMS|DCode=36|XSize=2mm|YSize=1mm|CornerRadius=0.25mm|HoleSize=0mm|Usage=FLASHONLY|Rotation=0.000|XOffset=0mm|YOffset=0mm|HoleType=Round|Shape=RoundedRectangle|*
%AMROUNDEDRECTD36*
21,1,2.0000,0.5000,0,0,0.0*
21,1,1.5000,1.0000,0,0,0.0*
1,1,0.5000,0.7500,-0.2500*
1,1,0.5000,-0.7500,-0.2500*
1,1,0.5000,-0.7500,0.2500*
1,1,0.5000,0.7500,0.2500*
%
%ADD36ROUNDEDRECTD36*%
G04:AMPARAMS|DCode=37|XSize=2mm|YSize=1mm|CornerRadius=0.25mm|HoleSize=0mm|Usage=FLASHONLY|Rotation=270.000|XOffset=0mm|YOffset=0mm|HoleType=Round|Shape=RoundedRectangle|*
%AMROUNDEDRECTD37*
21,1,2.0000,0.5000,0,0,270.0*
21,1,1.5000,1.0000,0,0,270.0*
1,1,0.5000,-0.2500,-0.7500*
1,1,0.5000,-0.2500,0.7500*
1,1,0.5000,0.2500,0.7500*
1,1,0.5000,0.2500,-0.7500*
%
%ADD37ROUNDEDRECTD37*%
G04:AMPARAMS|DCode=38|XSize=4.5mm|YSize=4.5mm|CornerRadius=1.125mm|HoleSize=0mm|Usage=FLASHONLY|Rotation=270.000|XOffset=0mm|YOffset=0mm|HoleType=Round|Shape=RoundedRectangle|*
%AMROUNDEDRECTD38*
21,1,4.5000,2.2500,0,0,270.0*
21,1,2.2500,4.5000,0,0,270.0*
1,1,2.2500,-1.1250,-1.1250*
1,1,2.2500,-1.1250,1.1250*
1,1,2.2500,1.1250,1.1250*
1,1,2.2500,1.1250,-1.1250*
%
%ADD38ROUNDEDRECTD38*%
%ADD39R,0.9500X0.9500*%
%ADD40R,2.2000X6.3000*%
%ADD41R,2.7200X1.1600*%
%ADD42R,1.1600X2.7200*%
%ADD43O,1.6500X0.6000*%
%ADD44R,2.3000X4.0000*%
%ADD45R,1.4001X0.4000*%
%ADD46C,0.8000*%
G36*
X54104Y436591D02*
X51956Y434944D01*
X49946Y432324D01*
X48683Y429274D01*
X48581Y428500D01*
X60900D01*
Y426000D01*
X63400D01*
Y413681D01*
X64174Y413783D01*
X67224Y415046D01*
X69844Y417056D01*
X71854Y419676D01*
X72913Y422233D01*
X74287D01*
X75346Y419676D01*
X77356Y417056D01*
X79976Y415046D01*
X81668Y414346D01*
X80825Y411568D01*
X78832Y407839D01*
X76260Y404706D01*
X76114Y404607D01*
X67678Y396171D01*
X67667Y396182D01*
X64686Y392692D01*
X62288Y388779D01*
X60739Y385040D01*
X55710D01*
Y369960D01*
Y358569D01*
X54755Y357731D01*
X53750Y357864D01*
X51521Y357570D01*
X49443Y356710D01*
X47659Y355341D01*
X46290Y353557D01*
X45430Y351479D01*
X45136Y349250D01*
Y345250D01*
X45412Y343156D01*
X42539Y340282D01*
X42528Y340293D01*
X39542Y336797D01*
X37139Y332877D01*
X35380Y328629D01*
X35316Y328363D01*
X33379Y327978D01*
X31712Y326864D01*
X31280D01*
X29613Y327978D01*
X29634Y329268D01*
X30010Y330176D01*
X30436Y330731D01*
X31216Y331678D01*
X31216Y331678D01*
X33955Y335015D01*
X34902Y336788D01*
X35979Y336930D01*
X38057Y337790D01*
X39841Y339159D01*
X41210Y340943D01*
X42070Y343021D01*
X42364Y345250D01*
Y349250D01*
X42070Y351479D01*
X41210Y353557D01*
X39841Y355341D01*
X38057Y356710D01*
X35979Y357570D01*
X33750Y357864D01*
X31521Y357570D01*
X29443Y356710D01*
X27659Y355341D01*
X26290Y353557D01*
X25430Y351479D01*
X25136Y349250D01*
Y345250D01*
X25430Y343021D01*
X26290Y340943D01*
X27477Y339396D01*
X25879Y337313D01*
X25700Y337194D01*
X25691Y337180D01*
X23817Y334896D01*
X22416Y332277D01*
X21554Y329434D01*
X21425Y328126D01*
X20680Y327978D01*
X19012Y326864D01*
X18643D01*
X17635Y327648D01*
Y337616D01*
X18057Y337790D01*
X19841Y339159D01*
X21210Y340943D01*
X22070Y343021D01*
X22364Y345250D01*
Y349250D01*
X22070Y351479D01*
X21210Y353557D01*
X19841Y355341D01*
X18057Y356710D01*
X15979Y357570D01*
X13750Y357864D01*
X11521Y357570D01*
X9443Y356710D01*
X7659Y355341D01*
X6290Y353557D01*
X5430Y351479D01*
X5136Y349250D01*
Y345250D01*
X5430Y343021D01*
X6290Y340943D01*
X7659Y339159D01*
X9443Y337790D01*
X9865Y337616D01*
Y328353D01*
X7980Y327978D01*
X6312Y326864D01*
X5880D01*
X4212Y327978D01*
X3631Y328093D01*
Y329595D01*
X3594Y329780D01*
X3370Y331478D01*
X2644Y333232D01*
X1602Y334590D01*
X1497Y334747D01*
X1340Y334851D01*
X-594Y337373D01*
X-891Y338598D01*
X-159Y339159D01*
X1210Y340943D01*
X2070Y343021D01*
X2364Y345250D01*
Y349250D01*
X2070Y351479D01*
X1210Y353557D01*
X-159Y355341D01*
X-1943Y356710D01*
X-4021Y357570D01*
X-6250Y357864D01*
X-8479Y357570D01*
X-10557Y356710D01*
X-12341Y355341D01*
X-13710Y353557D01*
X-14570Y351479D01*
X-14864Y349250D01*
Y345250D01*
X-14570Y343021D01*
X-13710Y340943D01*
X-12341Y339159D01*
X-10557Y337790D01*
X-8884Y337098D01*
X-8564Y336041D01*
X-6625Y332414D01*
X-4157Y329407D01*
X-4139Y329362D01*
Y328093D01*
X-4721Y327978D01*
X-6388Y326864D01*
X-6820D01*
X-8487Y327978D01*
X-9346Y328148D01*
X-9399Y328687D01*
X-10407Y332009D01*
X-12043Y335071D01*
X-14246Y337754D01*
X-14253Y337747D01*
X-18398Y341891D01*
X-17930Y343021D01*
X-17636Y345250D01*
Y349250D01*
X-17930Y351479D01*
X-18790Y353557D01*
X-20159Y355341D01*
X-21943Y356710D01*
X-24021Y357570D01*
X-26250Y357864D01*
X-28479Y357570D01*
X-30557Y356710D01*
X-32341Y355341D01*
X-33710Y353557D01*
X-34570Y351479D01*
X-34864Y349250D01*
Y345250D01*
X-34570Y343021D01*
X-34280Y342319D01*
X-35356Y341600D01*
X-37796Y344039D01*
X-37636Y345250D01*
Y349250D01*
X-37930Y351479D01*
X-38790Y353557D01*
X-40159Y355341D01*
X-41943Y356710D01*
X-44021Y357570D01*
X-46250Y357864D01*
X-48479Y357570D01*
X-50557Y356710D01*
X-51190Y356224D01*
X-52460Y356850D01*
Y370040D01*
X-67033D01*
X-67519Y371213D01*
X-65872Y372861D01*
X-26863D01*
X-25246Y370754D01*
X-23124Y369125D01*
X-20652Y368102D01*
X-18000Y367752D01*
X-15348Y368102D01*
X-12876Y369125D01*
X-10754Y370754D01*
X-9125Y372876D01*
X-8102Y375348D01*
X-7752Y378000D01*
X-8099Y380634D01*
X49128Y437861D01*
X53672D01*
X54104Y436591D01*
D02*
G37*
G36*
X-86654Y303091D02*
X-86654D01*
X-84688Y303482D01*
X-83020Y304596D01*
X-82588D01*
X-81593Y303932D01*
Y223675D01*
X-91634Y213634D01*
X-92748Y211966D01*
X-93139Y210000D01*
Y208644D01*
X-93480Y208353D01*
X-94750Y208939D01*
Y302890D01*
X-93872Y303360D01*
X-93480Y303454D01*
X-91654Y303091D01*
Y315730D01*
X-86654D01*
Y303091D01*
D02*
G37*
G36*
X495955Y474802D02*
X497870Y474550D01*
X499655Y473811D01*
X501188Y472635D01*
X502364Y471102D01*
X503103Y469317D01*
X503355Y467402D01*
X503359D01*
Y400823D01*
X503311D01*
X503741Y397551D01*
X505005Y394501D01*
X507014Y391882D01*
X509633Y389873D01*
X512682Y388610D01*
X514759Y388336D01*
X515948Y388180D01*
X515955Y388137D01*
X515955Y387941D01*
X515983Y387952D01*
X516256Y388228D01*
X558268D01*
X558520Y386958D01*
X558318Y386874D01*
X555698Y384864D01*
X553688Y382244D01*
X552425Y379194D01*
X551994Y375920D01*
X552425Y372646D01*
X553688Y369596D01*
X555698Y366976D01*
X558318Y364966D01*
X560757Y363956D01*
Y329413D01*
X560792Y329240D01*
X560395Y325205D01*
X559167Y321160D01*
X557174Y317431D01*
X554603Y314298D01*
X554456Y314199D01*
X511693Y271436D01*
X511595Y271290D01*
X508461Y268718D01*
X504732Y266725D01*
X500686Y265497D01*
X496652Y265100D01*
X496479Y265135D01*
X478790D01*
Y268540D01*
X464210D01*
Y253960D01*
Y239460D01*
X465365D01*
Y232199D01*
X464000D01*
X461838Y231768D01*
X460006Y230544D01*
X458781Y228712D01*
X458352Y226550D01*
X458781Y224388D01*
X460006Y222556D01*
X461838Y221331D01*
X464000Y220902D01*
X470291D01*
X470930Y219632D01*
X470831Y219499D01*
X464000D01*
X461838Y219069D01*
X460006Y217844D01*
X458781Y216012D01*
X458352Y213850D01*
X458781Y211688D01*
X460006Y209856D01*
X461838Y208631D01*
X464000Y208202D01*
X473242D01*
X473925Y206931D01*
X473837Y206798D01*
X464000D01*
X461838Y206369D01*
X460006Y205144D01*
X458781Y203312D01*
X458352Y201150D01*
X458781Y198988D01*
X460006Y197156D01*
X461838Y195931D01*
X464000Y195501D01*
X474500D01*
X476555Y195910D01*
X477436D01*
X477655Y195900D01*
X478146Y195802D01*
X478549Y195635D01*
X478965Y195357D01*
X479128Y195210D01*
X481624Y192714D01*
X482128Y192157D01*
X482995Y190859D01*
X483569Y189475D01*
X483873Y187943D01*
X483910Y187194D01*
Y142571D01*
Y140890D01*
X483960Y140639D01*
Y140385D01*
X484616Y137086D01*
X484714Y136851D01*
X484763Y136601D01*
X486050Y133494D01*
X486192Y133282D01*
X486290Y133046D01*
X488158Y130250D01*
X488338Y130070D01*
X488480Y129858D01*
X489669Y128669D01*
X489669Y128669D01*
X489906Y128431D01*
X490119Y128289D01*
X490299Y128109D01*
X490858Y127735D01*
X491094Y127638D01*
X491306Y127496D01*
X491927Y127239D01*
X492178Y127189D01*
X492413Y127091D01*
X493073Y126960D01*
X493328D01*
X493578Y126910D01*
X515422D01*
X515672Y126960D01*
X515927D01*
X516587Y127091D01*
X516823Y127189D01*
X517073Y127239D01*
X517430Y127387D01*
X517511Y127440D01*
X517604Y127466D01*
X517928Y127719D01*
X518270Y127948D01*
X518324Y128028D01*
X518400Y128088D01*
X518573Y128288D01*
X518773Y128642D01*
X519000Y128979D01*
X519157Y129353D01*
X519223Y129678D01*
X519333Y129992D01*
X519467Y130942D01*
X519457Y131125D01*
X519493Y131305D01*
X519429Y131625D01*
X519411Y131951D01*
X519331Y132116D01*
X519296Y132296D01*
X519137Y132678D01*
X519094Y132897D01*
X519090Y132978D01*
Y195500D01*
Y196213D01*
X519040Y196464D01*
Y196719D01*
X518762Y198118D01*
X518664Y198354D01*
X518614Y198604D01*
X518068Y199922D01*
X517927Y200134D01*
X517829Y200369D01*
X517328Y201120D01*
X517223Y201224D01*
X517151Y201354D01*
X516356Y202294D01*
X516270Y202362D01*
X516210Y202453D01*
X516210Y202453D01*
X515312Y203351D01*
X514380Y204282D01*
X514168Y204424D01*
X514037Y204555D01*
X514039Y204799D01*
X514330Y205903D01*
X514770Y205986D01*
X521507Y199250D01*
X522916Y195847D01*
X523800Y191401D01*
X523910Y189160D01*
Y143571D01*
Y141890D01*
X523960Y141639D01*
Y141384D01*
X524616Y138086D01*
X524714Y137851D01*
X524763Y137600D01*
X526050Y134494D01*
X526192Y134282D01*
X526290Y134046D01*
X528158Y131250D01*
X528338Y131070D01*
X528480Y130858D01*
X529669Y129669D01*
X530144Y129193D01*
X530356Y129052D01*
X530537Y128871D01*
X531655Y128124D01*
X531891Y128026D01*
X532103Y127885D01*
X533345Y127370D01*
X533596Y127320D01*
X533831Y127222D01*
X535151Y126960D01*
X535406D01*
X535656Y126910D01*
X540106D01*
Y94721D01*
X539969Y94311D01*
X538939Y93521D01*
X537330Y91423D01*
X536318Y88981D01*
X535973Y86360D01*
X536318Y83739D01*
X537330Y81297D01*
X538939Y79199D01*
X541037Y77590D01*
X543479Y76578D01*
X546100Y76233D01*
X548721Y76578D01*
X551163Y77590D01*
X553261Y79199D01*
X554870Y81297D01*
X555882Y83739D01*
X556227Y86360D01*
X555882Y88981D01*
X554870Y91423D01*
X553261Y93521D01*
X551163Y95130D01*
X550894Y95242D01*
Y126910D01*
X563188D01*
X563438Y126960D01*
X563693D01*
X566332Y127485D01*
X566567Y127582D01*
X566818Y127632D01*
X569303Y128662D01*
X569515Y128803D01*
X569751Y128901D01*
X571988Y130395D01*
X572168Y130576D01*
X572380Y130718D01*
X573331Y131669D01*
X573331Y131669D01*
X574520Y132858D01*
X574662Y133070D01*
X574842Y133250D01*
X576710Y136046D01*
X576808Y136282D01*
X576950Y136494D01*
X578236Y139600D01*
X578286Y139851D01*
X578384Y140086D01*
X579040Y143384D01*
Y143639D01*
X579090Y143890D01*
X579090Y145570D01*
X579090Y145571D01*
X579090Y196672D01*
X579090Y197344D01*
X579040Y197594D01*
Y206960D01*
Y221540D01*
X565640D01*
Y223590D01*
X533360D01*
Y210518D01*
X532261Y209732D01*
X532090Y209751D01*
X530605Y211782D01*
X529490Y214183D01*
X529152Y215322D01*
X528308Y220655D01*
X528202Y220941D01*
X528143Y221241D01*
X527937Y221738D01*
X527795Y221950D01*
X527698Y222186D01*
X527640Y222272D01*
Y223090D01*
X527090D01*
X526919Y223261D01*
X526777Y223473D01*
X526016Y224235D01*
X525804Y224376D01*
X525624Y224557D01*
X525284Y224784D01*
X525178Y224827D01*
X525090Y224901D01*
X524362Y225300D01*
X519331Y230331D01*
X518491Y230893D01*
X517500Y231090D01*
X494500Y231090D01*
X493787Y231090D01*
X493537Y231040D01*
X493282Y231040D01*
X491882Y230762D01*
X491646Y230664D01*
X491396Y230614D01*
X490078Y230068D01*
X489866Y229927D01*
X489630Y229829D01*
X488880Y229328D01*
X488775Y229223D01*
X488646Y229151D01*
X487706Y228355D01*
X487638Y228270D01*
X487547Y228210D01*
X480835Y221497D01*
X480497Y221191D01*
X479687Y220650D01*
X478847Y220302D01*
X477892Y220112D01*
X477436Y220090D01*
X476915D01*
X476679Y221244D01*
X476704Y221360D01*
X478494Y222556D01*
X479719Y224388D01*
X480149Y226550D01*
X479719Y228712D01*
X478494Y230544D01*
X476662Y231768D01*
X474500Y232199D01*
X473135D01*
Y239460D01*
X478790D01*
Y253960D01*
Y257365D01*
X496479D01*
Y257350D01*
X501063Y257710D01*
X505533Y258784D01*
X509781Y260543D01*
X513701Y262945D01*
X517197Y265931D01*
X517186Y265943D01*
X559949Y308706D01*
X559960Y308695D01*
X562946Y312191D01*
X565349Y316111D01*
X567108Y320359D01*
X568182Y324829D01*
X568542Y329413D01*
X568527D01*
Y363956D01*
X570966Y364966D01*
X573586Y366976D01*
X575596Y369596D01*
X576859Y372646D01*
X577290Y375920D01*
X576859Y379194D01*
X575596Y382244D01*
X573586Y384864D01*
X570966Y386874D01*
X570764Y386958D01*
X571016Y388228D01*
X591892D01*
X592323Y386958D01*
X590188Y385320D01*
X588178Y382700D01*
X586915Y379650D01*
X586484Y376376D01*
X586915Y373102D01*
X588178Y370052D01*
X590188Y367432D01*
X592808Y365422D01*
X595858Y364159D01*
X599132Y363728D01*
X602406Y364159D01*
X605456Y365422D01*
X608076Y367432D01*
X610086Y370052D01*
X611349Y373102D01*
X611780Y376376D01*
X611349Y379650D01*
X610086Y382700D01*
X608076Y385320D01*
X605941Y386958D01*
X606372Y388228D01*
X631300D01*
X631358Y388239D01*
X633920Y387902D01*
X636362Y386890D01*
X638458Y385282D01*
X640067Y383185D01*
X641078Y380743D01*
X641287Y379161D01*
X641293Y377887D01*
X641460Y377482D01*
X641535Y376633D01*
X642989Y360290D01*
X645517Y320429D01*
X647034Y280516D01*
X647052Y279097D01*
X645793Y278244D01*
X644383Y278828D01*
X641762Y279173D01*
X636762D01*
X634141Y278828D01*
X631699Y277817D01*
X629602Y276207D01*
X627992Y274110D01*
X626981Y271668D01*
X626636Y269047D01*
X626981Y266426D01*
X627992Y263983D01*
X629602Y261886D01*
X631699Y260277D01*
X634141Y259265D01*
X636762Y258920D01*
X641762D01*
X644383Y259265D01*
X646025Y259945D01*
X647306Y259101D01*
X647537Y240857D01*
X647481Y240578D01*
X647537Y240299D01*
X647108Y206481D01*
X645827Y205637D01*
X644383Y206235D01*
X641762Y206580D01*
X636762D01*
X634141Y206235D01*
X631699Y205223D01*
X629602Y203614D01*
X627992Y201517D01*
X626981Y199074D01*
X626636Y196453D01*
X626981Y193832D01*
X627992Y191390D01*
X629602Y189293D01*
X631699Y187684D01*
X634141Y186672D01*
X636762Y186327D01*
X641762D01*
X644383Y186672D01*
X645450Y187114D01*
X646492Y186388D01*
X645517Y160728D01*
X642989Y120866D01*
X639451Y81082D01*
X638551Y73222D01*
X638460Y72421D01*
X638436Y72406D01*
X638258Y71976D01*
X638294Y70695D01*
X638078Y69061D01*
X637067Y66619D01*
X635458Y64523D01*
X633362Y62914D01*
X631205Y62021D01*
X630000Y61864D01*
X630000Y61863D01*
X629308Y61577D01*
X515955D01*
X515955Y61577D01*
Y61625D01*
X512682Y61195D01*
X509633Y59931D01*
X507014Y57922D01*
X505005Y55303D01*
X503741Y52253D01*
X503311Y48981D01*
X503359D01*
X503359Y-17598D01*
X503355D01*
X503103Y-19513D01*
X502364Y-21298D01*
X501188Y-22831D01*
X499655Y-24007D01*
X497870Y-24746D01*
X495955Y-24998D01*
Y-25002D01*
X-19045D01*
Y-24998D01*
X-20960Y-24746D01*
X-22745Y-24007D01*
X-24278Y-22831D01*
X-25454Y-21298D01*
X-26193Y-19513D01*
X-26445Y-17598D01*
X-26449D01*
Y48981D01*
X-26449Y48981D01*
X-26400D01*
X-26831Y52253D01*
X-28095Y55303D01*
X-30104Y57922D01*
X-32723Y59931D01*
X-35772Y61195D01*
X-36997Y61356D01*
X-37964Y61492D01*
X-39045Y61863D01*
X-39045Y61864D01*
X-39411Y61734D01*
X-39497Y61734D01*
X-94750D01*
Y118470D01*
X-93872Y118940D01*
X-93480Y119035D01*
X-91654Y118671D01*
Y131310D01*
Y143949D01*
X-93480Y143586D01*
X-93872Y143680D01*
X-94750Y144150D01*
Y201710D01*
X-93480Y202080D01*
X-92355Y200395D01*
X-90357Y199060D01*
X-88000Y198592D01*
X-86403Y198909D01*
X-84747Y197253D01*
X-83487Y196411D01*
X-82000Y196115D01*
X20000D01*
X21487Y196411D01*
X22747Y197253D01*
X23777Y198284D01*
X26000Y197842D01*
X26554Y197952D01*
X32115Y192391D01*
Y184000D01*
X32411Y182513D01*
X33253Y181253D01*
X65253Y149253D01*
X66513Y148411D01*
X68000Y148115D01*
X119391D01*
X127696Y139810D01*
X127170Y138540D01*
X109960D01*
Y128954D01*
X107891Y126885D01*
X96669D01*
X96355Y127355D01*
X94357Y128690D01*
X92000Y129158D01*
X91446Y129048D01*
X86437Y134057D01*
X85177Y134899D01*
X83690Y135195D01*
X83585D01*
Y138810D01*
X83194Y140777D01*
X82080Y142444D01*
X80413Y143558D01*
X78446Y143949D01*
X73446D01*
X71480Y143558D01*
X69812Y142444D01*
X69380D01*
X67712Y143558D01*
X65746Y143949D01*
X60746D01*
X58780Y143558D01*
X57112Y142444D01*
X56680D01*
X55012Y143558D01*
X53046Y143949D01*
X48046D01*
X46080Y143558D01*
X44412Y142444D01*
X43980D01*
X42312Y143558D01*
X40346Y143949D01*
X35346D01*
X33379Y143558D01*
X31712Y142444D01*
X31280D01*
X29613Y143558D01*
X29031Y143673D01*
Y175331D01*
X29501Y175645D01*
X30835Y177643D01*
X31304Y180000D01*
X30835Y182357D01*
X29501Y184355D01*
X27503Y185690D01*
X25146Y186158D01*
X22789Y185690D01*
X20791Y184355D01*
X19456Y182357D01*
X18988Y180000D01*
X19456Y177643D01*
X20791Y175645D01*
X21261Y175331D01*
Y143673D01*
X20680Y143558D01*
X19012Y142444D01*
X18580D01*
X16912Y143558D01*
X16885Y143563D01*
Y153331D01*
X17355Y153645D01*
X18690Y155643D01*
X19158Y158000D01*
X18690Y160357D01*
X17355Y162355D01*
X15357Y163689D01*
X13000Y164158D01*
X10643Y163689D01*
X8645Y162355D01*
X7311Y160357D01*
X6842Y158000D01*
X7311Y155643D01*
X8645Y153645D01*
X9115Y153331D01*
Y143784D01*
X7980Y143558D01*
X6312Y142444D01*
X5880D01*
X4212Y143558D01*
X2246Y143949D01*
X-2754D01*
X-4721Y143558D01*
X-6388Y142444D01*
X-6820D01*
X-8487Y143558D01*
X-10454Y143949D01*
X-15454D01*
X-17421Y143558D01*
X-19088Y142444D01*
X-19520D01*
X-21188Y143558D01*
X-21769Y143673D01*
Y150563D01*
X-21645Y150645D01*
X-20310Y152643D01*
X-19842Y155000D01*
X-20310Y157357D01*
X-21645Y159355D01*
X-23643Y160690D01*
X-26000Y161158D01*
X-28357Y160690D01*
X-30355Y159355D01*
X-31690Y157357D01*
X-32158Y155000D01*
X-31690Y152643D01*
X-30355Y150645D01*
X-29539Y150100D01*
Y143673D01*
X-30120Y143558D01*
X-31788Y142444D01*
X-32220D01*
X-33888Y143558D01*
X-35854Y143949D01*
X-40854D01*
X-42821Y143558D01*
X-44488Y142444D01*
X-44920D01*
X-46588Y143558D01*
X-48554Y143949D01*
X-53554D01*
X-55521Y143558D01*
X-57188Y142444D01*
X-57620D01*
X-59288Y143558D01*
X-59869Y143673D01*
Y150085D01*
X-59399Y150399D01*
X-58064Y152397D01*
X-57596Y154754D01*
X-58064Y157111D01*
X-59399Y159109D01*
X-61397Y160443D01*
X-63754Y160912D01*
X-66111Y160443D01*
X-68109Y159109D01*
X-69443Y157111D01*
X-69912Y154754D01*
X-69443Y152397D01*
X-68109Y150399D01*
X-67639Y150085D01*
Y143673D01*
X-68221Y143558D01*
X-69888Y142444D01*
X-70320D01*
X-71988Y143558D01*
X-73954Y143949D01*
X-78954D01*
X-80920Y143558D01*
X-82588Y142444D01*
X-83020D01*
X-84688Y143558D01*
X-86654Y143949D01*
X-86654D01*
Y131310D01*
Y118671D01*
X-86654D01*
X-84688Y119062D01*
X-83020Y120176D01*
X-82588D01*
X-80920Y119062D01*
X-80339Y118947D01*
Y107882D01*
X-80690Y107357D01*
X-81158Y105000D01*
X-80690Y102643D01*
X-79355Y100645D01*
X-77357Y99310D01*
X-75000Y98842D01*
X-72643Y99310D01*
X-70645Y100645D01*
X-69310Y102643D01*
X-68842Y105000D01*
X-69310Y107357D01*
X-70645Y109355D01*
X-72569Y110640D01*
Y118947D01*
X-71988Y119062D01*
X-70320Y120176D01*
X-69888D01*
X-68221Y119062D01*
X-66254Y118671D01*
X-61254D01*
X-59288Y119062D01*
X-57620Y120176D01*
X-57188D01*
X-55521Y119062D01*
X-54939Y118947D01*
Y92575D01*
X-54954D01*
X-54594Y87991D01*
X-53520Y83521D01*
X-51761Y79273D01*
X-49358Y75353D01*
X-47017Y72612D01*
X-46372Y71857D01*
X-46372Y71857D01*
X-46197Y71681D01*
X-46197Y71681D01*
X-45442Y71037D01*
X-42701Y68696D01*
X-38781Y66293D01*
X-34533Y64534D01*
X-30063Y63460D01*
X-25479Y63100D01*
Y63115D01*
X-18040D01*
Y59460D01*
X615D01*
Y44450D01*
X614D01*
X918Y41360D01*
X1819Y38390D01*
X3283Y35652D01*
X5252Y33252D01*
X5241Y33241D01*
X7463Y31536D01*
X10051Y30464D01*
X12828Y30098D01*
Y30115D01*
X31757D01*
Y30069D01*
X34245Y30396D01*
X35726Y29783D01*
X39000Y29352D01*
X42274Y29783D01*
X45324Y31046D01*
X47944Y33056D01*
X49954Y35676D01*
X51217Y38726D01*
X51648Y42000D01*
X51217Y45274D01*
X49954Y48324D01*
X47944Y50944D01*
X45324Y52954D01*
X43788Y53590D01*
X44040Y54860D01*
X51540D01*
Y64900D01*
X39000D01*
X26460D01*
Y54860D01*
X33960D01*
X34212Y53590D01*
X32676Y52954D01*
X30056Y50944D01*
X28046Y48324D01*
X26783Y45274D01*
X26352Y42000D01*
X26726Y39155D01*
X25914Y37885D01*
X12828D01*
X12818Y37882D01*
X11700Y38105D01*
X10753Y38738D01*
X10747Y38747D01*
X10704Y38776D01*
X9451Y40409D01*
X8643Y42358D01*
X8375Y44399D01*
X8385Y44450D01*
Y59460D01*
X12040D01*
Y74540D01*
X-18040D01*
Y70885D01*
X-25479D01*
X-25652Y70850D01*
X-29687Y71248D01*
X-33732Y72475D01*
X-37461Y74468D01*
X-40595Y77039D01*
X-40693Y77186D01*
X-40868Y77361D01*
X-41014Y77460D01*
X-43586Y80593D01*
X-45579Y84322D01*
X-46807Y88368D01*
X-47204Y92402D01*
X-47169Y92575D01*
Y118947D01*
X-46588Y119062D01*
X-44920Y120176D01*
X-44488D01*
X-42821Y119062D01*
X-42239Y118947D01*
Y95683D01*
X-42266D01*
X-41859Y92590D01*
X-40665Y89708D01*
X-38766Y87234D01*
X-38747Y87253D01*
X-38592Y87149D01*
X-37229Y86104D01*
X-35472Y85376D01*
X-33769Y85152D01*
X-33586Y85115D01*
X-18040D01*
Y81460D01*
X12040D01*
Y85115D01*
X29090D01*
X30056Y83856D01*
X32676Y81846D01*
X34212Y81210D01*
X33960Y79940D01*
X26460D01*
Y69900D01*
X39000D01*
X51540D01*
Y79940D01*
X44040D01*
X43788Y81210D01*
X45324Y81846D01*
X47944Y83856D01*
X49954Y86476D01*
X51217Y89526D01*
X51648Y92800D01*
X51305Y95405D01*
X52508Y95998D01*
X64253Y84253D01*
X65513Y83411D01*
X67000Y83115D01*
X79391D01*
X107139Y55368D01*
Y43771D01*
X105960Y43283D01*
X103863Y41674D01*
X102253Y39577D01*
X101242Y37134D01*
X100897Y34513D01*
X101242Y31892D01*
X102253Y29450D01*
X103863Y27353D01*
X105960Y25743D01*
X108402Y24732D01*
X111023Y24387D01*
X113644Y24732D01*
X116087Y25743D01*
X118184Y27353D01*
X119793Y29450D01*
X120281Y30629D01*
X166765D01*
X167253Y29450D01*
X168863Y27353D01*
X170960Y25743D01*
X173402Y24732D01*
X176023Y24387D01*
X178644Y24732D01*
X181087Y25743D01*
X183184Y27353D01*
X184793Y29450D01*
X185805Y31892D01*
X186150Y34513D01*
X185805Y37134D01*
X184793Y39577D01*
X183184Y41674D01*
X181087Y43283D01*
X178644Y44295D01*
X176023Y44640D01*
X173402Y44295D01*
X170960Y43283D01*
X168863Y41674D01*
X167253Y39577D01*
X166765Y38398D01*
X120281D01*
X119793Y39577D01*
X118184Y41674D01*
X116087Y43283D01*
X114908Y43771D01*
Y56977D01*
X114612Y58463D01*
X113770Y59724D01*
X83747Y89747D01*
X82487Y90589D01*
X81000Y90885D01*
X68609D01*
X41747Y117747D01*
X41872Y118975D01*
X42312Y119062D01*
X43980Y120176D01*
X44412D01*
X46080Y119062D01*
X46661Y118947D01*
Y116454D01*
X46957Y114967D01*
X47799Y113707D01*
X65253Y96253D01*
X66513Y95411D01*
X68000Y95115D01*
X182391D01*
X187115Y90391D01*
Y81909D01*
X185845Y81826D01*
X185805Y82134D01*
X184793Y84577D01*
X183184Y86674D01*
X181087Y88283D01*
X178644Y89295D01*
X178523Y89311D01*
Y79513D01*
Y69716D01*
X178644Y69732D01*
X181087Y70743D01*
X183184Y72353D01*
X184793Y74450D01*
X185805Y76892D01*
X185845Y77201D01*
X187115Y77117D01*
Y55000D01*
X187411Y53513D01*
X188253Y52253D01*
X198849Y41657D01*
X197253Y39577D01*
X196241Y37134D01*
X195896Y34513D01*
X196241Y31892D01*
X197253Y29450D01*
X198862Y27353D01*
X200960Y25743D01*
X203402Y24732D01*
X206023Y24387D01*
X208644Y24732D01*
X211086Y25743D01*
X213184Y27353D01*
X214793Y29450D01*
X215281Y30629D01*
X261765D01*
X262253Y29450D01*
X263862Y27353D01*
X265960Y25743D01*
X268402Y24732D01*
X271023Y24387D01*
X273644Y24732D01*
X276086Y25743D01*
X278184Y27353D01*
X279793Y29450D01*
X280805Y31892D01*
X281150Y34513D01*
X280805Y37134D01*
X279793Y39577D01*
X278184Y41674D01*
X276086Y43283D01*
X273644Y44295D01*
X271023Y44640D01*
X268402Y44295D01*
X265960Y43283D01*
X263862Y41674D01*
X262253Y39577D01*
X261765Y38398D01*
X215281D01*
X214793Y39577D01*
X213184Y41674D01*
X211086Y43283D01*
X208644Y44295D01*
X206980Y44514D01*
X194885Y56609D01*
Y77468D01*
X196155Y77551D01*
X196241Y76892D01*
X197253Y74450D01*
X198862Y72353D01*
X200960Y70743D01*
X203402Y69732D01*
X203523Y69716D01*
Y79513D01*
Y89311D01*
X203402Y89295D01*
X200960Y88283D01*
X198862Y86674D01*
X197253Y84577D01*
X196241Y82134D01*
X196155Y81475D01*
X194885Y81558D01*
Y92000D01*
X194589Y93487D01*
X193747Y94747D01*
X186747Y101747D01*
X186600Y101845D01*
X186985Y103115D01*
X273391D01*
X284115Y92391D01*
Y47536D01*
X284411Y46049D01*
X285253Y44789D01*
X291729Y38313D01*
X291241Y37134D01*
X290896Y34513D01*
X291241Y31892D01*
X292253Y29450D01*
X293862Y27353D01*
X295959Y25743D01*
X298402Y24732D01*
X301023Y24387D01*
X303644Y24732D01*
X306086Y25743D01*
X308183Y27353D01*
X309793Y29450D01*
X310281Y30629D01*
X356765D01*
X357253Y29450D01*
X358862Y27353D01*
X360960Y25743D01*
X363402Y24732D01*
X366023Y24387D01*
X368644Y24732D01*
X371086Y25743D01*
X373183Y27353D01*
X374793Y29450D01*
X375804Y31892D01*
X376149Y34513D01*
X375804Y37134D01*
X374793Y39577D01*
X373183Y41674D01*
X371086Y43283D01*
X368644Y44295D01*
X366023Y44640D01*
X363402Y44295D01*
X360960Y43283D01*
X358862Y41674D01*
X357253Y39577D01*
X356765Y38398D01*
X310281D01*
X309793Y39577D01*
X308183Y41674D01*
X306086Y43283D01*
X303644Y44295D01*
X301023Y44640D01*
X298402Y44295D01*
X297223Y43807D01*
X291885Y49145D01*
Y72844D01*
X293155Y73275D01*
X293862Y72353D01*
X295959Y70743D01*
X298402Y69732D01*
X298523Y69716D01*
Y79513D01*
Y89311D01*
X298402Y89295D01*
X295959Y88283D01*
X293862Y86674D01*
X293155Y85752D01*
X291885Y86183D01*
Y94000D01*
X291589Y95487D01*
X290747Y96747D01*
X277747Y109747D01*
X276487Y110589D01*
X275000Y110885D01*
X74609D01*
X67724Y117770D01*
X67721Y118149D01*
X68017Y119266D01*
X69380Y120176D01*
X69812D01*
X71480Y119062D01*
X73446Y118671D01*
X78446D01*
X80413Y119062D01*
X82080Y120176D01*
X83194Y121844D01*
X83585Y123810D01*
Y124262D01*
X84758Y124748D01*
X85952Y123554D01*
X85842Y123000D01*
X86310Y120643D01*
X87645Y118645D01*
X89643Y117310D01*
X92000Y116842D01*
X94357Y117310D01*
X96355Y118645D01*
X96669Y119115D01*
X109500D01*
X110987Y119411D01*
X112247Y120253D01*
X115454Y123460D01*
X140040D01*
Y138540D01*
X136385D01*
Y140500D01*
X136089Y141987D01*
X135247Y143247D01*
X123747Y154747D01*
X122487Y155589D01*
X121000Y155885D01*
X69609D01*
X39885Y185609D01*
Y194000D01*
X39589Y195487D01*
X38747Y196747D01*
X32048Y203446D01*
X32158Y204000D01*
X31690Y206357D01*
X30355Y208355D01*
X28357Y209690D01*
X26000Y210158D01*
X23643Y209690D01*
X21645Y208355D01*
X20310Y206357D01*
X20173Y205667D01*
X18391Y203885D01*
X-80391D01*
X-81987Y205481D01*
X-82310Y207107D01*
X-82837Y207895D01*
X-72820Y217912D01*
X-71706Y219580D01*
X-71315Y221546D01*
Y303932D01*
X-70320Y304596D01*
X-69888D01*
X-68221Y303482D01*
X-67639Y303367D01*
Y299754D01*
X-67343Y298267D01*
X-66501Y297007D01*
X-51897Y282403D01*
X-50637Y281561D01*
X-49150Y281265D01*
X73644D01*
X75130Y281561D01*
X76391Y282403D01*
X80379Y286391D01*
X80577Y286303D01*
X81426Y285642D01*
X81087Y283940D01*
D01*
X91226D01*
Y289079D01*
X86226D01*
X84524Y288740D01*
X83863Y289589D01*
X83775Y289788D01*
X111853Y317865D01*
X359641D01*
X388503Y289003D01*
X389763Y288161D01*
X391250Y287865D01*
X485750D01*
X487237Y288161D01*
X488497Y289003D01*
X536667Y337173D01*
X537357Y337310D01*
X539355Y338645D01*
X540690Y340643D01*
X541158Y343000D01*
X540690Y345357D01*
X539355Y347355D01*
X537357Y348689D01*
X535000Y349158D01*
X532643Y348689D01*
X530645Y347355D01*
X529310Y345357D01*
X528842Y343000D01*
X529284Y340778D01*
X484141Y295635D01*
X453954D01*
X453528Y296905D01*
X454690Y298643D01*
X455158Y301000D01*
X454690Y303357D01*
X453355Y305355D01*
X451357Y306690D01*
X449000Y307158D01*
X446643Y306690D01*
X445819Y306139D01*
X414128D01*
X407139Y313129D01*
Y379319D01*
X407690Y380143D01*
X408158Y382500D01*
X407690Y384857D01*
X406355Y386855D01*
X404357Y388190D01*
X402000Y388658D01*
X399643Y388190D01*
X397645Y386855D01*
X396311Y384857D01*
X395842Y382500D01*
X396311Y380143D01*
X396861Y379319D01*
Y311000D01*
X397252Y309034D01*
X398366Y307366D01*
X408366Y297366D01*
X409057Y296905D01*
X408672Y295635D01*
X392859D01*
X367110Y321384D01*
X367740Y322550D01*
X370000Y322252D01*
X372652Y322602D01*
X375124Y323625D01*
X377246Y325254D01*
X378875Y327376D01*
X379898Y329848D01*
X380248Y332500D01*
X379898Y335152D01*
X378875Y337624D01*
X377246Y339746D01*
X375124Y341375D01*
X372652Y342398D01*
X370000Y342748D01*
X367348Y342398D01*
X364876Y341375D01*
X362754Y339746D01*
X361125Y337624D01*
X360687Y336567D01*
X359313D01*
X358875Y337624D01*
X357246Y339746D01*
X355124Y341375D01*
X352652Y342398D01*
X350000Y342748D01*
X347348Y342398D01*
X344876Y341375D01*
X342754Y339746D01*
X341125Y337624D01*
X340102Y335152D01*
X339752Y332500D01*
X340102Y329848D01*
X341125Y327376D01*
X341587Y326774D01*
X341026Y325635D01*
X115568D01*
X115082Y326808D01*
X121889Y333615D01*
X180331D01*
X180645Y333145D01*
X182643Y331810D01*
X185000Y331342D01*
X187357Y331810D01*
X189355Y333145D01*
X190690Y335143D01*
X191158Y337500D01*
X190690Y339857D01*
X189355Y341855D01*
X187357Y343190D01*
X185000Y343658D01*
X182643Y343190D01*
X180645Y341855D01*
X180331Y341385D01*
X120280D01*
X118794Y341089D01*
X117534Y340247D01*
X84721Y307435D01*
X83551Y308060D01*
X83585Y308230D01*
Y323230D01*
X83194Y325196D01*
X82080Y326864D01*
X80413Y327978D01*
X79831Y328093D01*
Y339041D01*
X79827Y339061D01*
X80062Y340241D01*
X80066Y340247D01*
X80777Y341223D01*
X80777Y341223D01*
X83813Y344922D01*
X86069Y349143D01*
X87458Y353723D01*
X87605Y355210D01*
X91540D01*
Y370210D01*
Y384046D01*
X107007Y399514D01*
X107018Y399503D01*
X110005Y402999D01*
X112407Y406919D01*
X114166Y411167D01*
X114789Y413758D01*
X114974Y413783D01*
X118024Y415046D01*
X120644Y417056D01*
X122654Y419676D01*
X123713Y422233D01*
X125087D01*
X126146Y419676D01*
X128156Y417056D01*
X130776Y415046D01*
X133826Y413783D01*
X137100Y413352D01*
X140374Y413783D01*
X143424Y415046D01*
X146044Y417056D01*
X148054Y419676D01*
X149317Y422726D01*
X149748Y426000D01*
X149317Y429274D01*
X148054Y432324D01*
X146044Y434944D01*
X143424Y436954D01*
X140374Y438217D01*
X137100Y438648D01*
X135791Y438476D01*
X127634Y446634D01*
X125967Y447748D01*
X124000Y448139D01*
X47000D01*
X45033Y447748D01*
X43366Y446634D01*
X-15366Y387901D01*
X-18000Y388248D01*
X-20652Y387898D01*
X-23124Y386875D01*
X-25246Y385246D01*
X-26863Y383139D01*
X-68000D01*
X-69967Y382748D01*
X-71634Y381634D01*
X-80134Y373134D01*
X-81248Y371466D01*
X-81531Y370040D01*
X-82540D01*
Y354960D01*
X-81639D01*
Y352540D01*
X-87500D01*
Y345000D01*
X-92500D01*
Y352540D01*
X-94750D01*
Y388478D01*
X-39295D01*
Y388429D01*
X-36022Y388860D01*
X-32973Y390123D01*
X-30354Y392132D01*
X-28345Y394751D01*
X-27081Y397801D01*
X-26968Y398659D01*
X-26797Y399705D01*
X-26749Y399963D01*
X-26412Y401073D01*
X-26412Y401073D01*
X-26449Y401508D01*
X-26449Y401508D01*
X-26449Y401580D01*
X-26449Y402287D01*
Y403653D01*
X-26449Y404335D01*
X-26162Y404622D01*
X-26162Y404622D01*
X-26167Y404643D01*
X-26449Y405843D01*
Y405892D01*
X-26449D01*
X-26449Y405892D01*
Y467402D01*
X-26445D01*
X-26193Y469317D01*
X-25454Y471102D01*
X-24278Y472635D01*
X-22745Y473811D01*
X-20960Y474550D01*
X-19045Y474802D01*
Y474806D01*
X495955D01*
Y474802D01*
D02*
G37*
G36*
X100746Y419676D02*
X102756Y417056D01*
X105376Y415046D01*
X106960Y414390D01*
X106225Y411968D01*
X104232Y408239D01*
X101660Y405106D01*
X101514Y405007D01*
X85849Y389343D01*
X85835Y389357D01*
X83398Y386387D01*
X82812Y385290D01*
X76460D01*
Y370210D01*
Y355210D01*
X78748D01*
X79505Y354190D01*
X78877Y352122D01*
X77341Y349247D01*
X76062Y347689D01*
X75240Y346760D01*
X75240Y346760D01*
X73505Y344499D01*
X72415Y341866D01*
X72043Y339041D01*
X72061D01*
Y328093D01*
X71480Y327978D01*
X69812Y326864D01*
X69380D01*
X67712Y327978D01*
X66885Y328142D01*
Y354960D01*
X70790D01*
Y369960D01*
Y385040D01*
X70405D01*
X69752Y386129D01*
X70459Y387454D01*
X73025Y390580D01*
X73172Y390678D01*
X81607Y399114D01*
X81607Y399114D01*
X81618Y399103D01*
X84605Y402599D01*
X87007Y406519D01*
X88766Y410767D01*
X89488Y413772D01*
X89574Y413783D01*
X92624Y415046D01*
X95244Y417056D01*
X97254Y419676D01*
X98313Y422233D01*
X99687D01*
X100746Y419676D01*
D02*
G37*
G36*
X494500Y228500D02*
X517500Y228500D01*
X522793Y223207D01*
X522793Y223207D01*
X522793Y223207D01*
X522793Y223207D01*
X523846Y222630D01*
X524185Y222403D01*
X524946Y221642D01*
X525544Y220747D01*
X525750Y220250D01*
X526621Y214750D01*
X527061Y213265D01*
X528364Y210459D01*
X530190Y207962D01*
X532468Y205869D01*
X533750Y205000D01*
X567257Y204500D01*
X567257Y204500D01*
X567257Y204500D01*
X567266D01*
X568434Y204466D01*
X570245Y204106D01*
X572109Y203334D01*
X573607Y202333D01*
X574500Y201500D01*
X575304Y200532D01*
X575723Y199906D01*
X576238Y198663D01*
X576500Y197344D01*
X576500Y196672D01*
X576500Y145571D01*
X576500Y145571D01*
X576500Y143890D01*
X575844Y140591D01*
X574557Y137485D01*
X572689Y134689D01*
X571500Y133500D01*
X571500Y133500D01*
X570549Y132549D01*
X568312Y131054D01*
X565827Y130025D01*
X563188Y129500D01*
X535656D01*
X534337Y129762D01*
X533094Y130277D01*
X531976Y131024D01*
X531500Y131500D01*
X530311Y132689D01*
X528443Y135485D01*
X527156Y138592D01*
X526500Y141890D01*
Y143571D01*
Y189229D01*
X526500Y189229D01*
X526500Y189229D01*
X526377Y191718D01*
X525406Y196602D01*
X523501Y201202D01*
X520734Y205343D01*
X519566Y206631D01*
X519565Y206633D01*
X519564Y206634D01*
X519061Y207189D01*
X518750Y207500D01*
X517850Y208315D01*
X517757Y208400D01*
X515531Y209887D01*
X513058Y210912D01*
X510432Y211434D01*
X509093Y211500D01*
X471569Y211500D01*
X470814Y212522D01*
X471500Y214750D01*
X471500D01*
X471877Y215864D01*
X471904Y215904D01*
X472030Y216030D01*
X473500Y217500D01*
X477500D01*
X478210Y217535D01*
X479602Y217812D01*
X480914Y218355D01*
X482095Y219144D01*
X482621Y219621D01*
X489379Y226379D01*
X489379Y226379D01*
X490319Y227174D01*
X491069Y227676D01*
X492387Y228222D01*
X493787Y228500D01*
X494500Y228500D01*
D02*
G37*
G36*
X507827Y204975D02*
X510312Y203946D01*
X512549Y202451D01*
X513481Y201519D01*
X514379Y200621D01*
X514379D01*
X515174Y199681D01*
X515676Y198931D01*
X516222Y197613D01*
X516500Y196213D01*
Y195500D01*
Y132914D01*
X516516Y132579D01*
X516647Y131923D01*
X516903Y131305D01*
X516769Y130354D01*
X516612Y129979D01*
X516439Y129779D01*
X516082Y129631D01*
X515422Y129500D01*
X493578D01*
X492918Y129631D01*
X492297Y129889D01*
X491738Y130262D01*
X491500Y130500D01*
X491500Y130500D01*
X490311Y131689D01*
X488443Y134485D01*
X487156Y137592D01*
X486500Y140890D01*
Y142571D01*
Y187257D01*
X486451Y188261D01*
X486059Y190231D01*
X485290Y192086D01*
X484175Y193755D01*
X483500Y194500D01*
X480914Y197086D01*
X480563Y197404D01*
X479776Y197930D01*
X478902Y198292D01*
X477973Y198477D01*
X477500Y198500D01*
X471159D01*
X470673Y199673D01*
X474500Y203500D01*
X474500D01*
X475443Y204288D01*
X476094Y204723D01*
X477337Y205238D01*
X478656Y205500D01*
X505188D01*
X507827Y204975D01*
D02*
G37*
G36*
X71480Y303482D02*
X73446Y303091D01*
X78446D01*
X78615Y303125D01*
X79241Y301954D01*
X70361Y293075D01*
X12419D01*
X3631Y301863D01*
Y303367D01*
X4212Y303482D01*
X5880Y304596D01*
X6312D01*
X7980Y303482D01*
X9946Y303091D01*
X14946D01*
X16912Y303482D01*
X18580Y304596D01*
X19012D01*
X20680Y303482D01*
X22646Y303091D01*
X27646D01*
X29613Y303482D01*
X31280Y304596D01*
X31712D01*
X33379Y303482D01*
X35346Y303091D01*
X40346D01*
X42312Y303482D01*
X43980Y304596D01*
X44412D01*
X46080Y303482D01*
X48046Y303091D01*
X53046D01*
X55012Y303482D01*
X56680Y304596D01*
X57112D01*
X58780Y303482D01*
X60746Y303091D01*
X65746D01*
X67712Y303482D01*
X69380Y304596D01*
X69812D01*
X71480Y303482D01*
D02*
G37*
G36*
X-4721D02*
X-4139Y303367D01*
Y300254D01*
X-3843Y298767D01*
X-3001Y297507D01*
X4298Y290208D01*
X3812Y289035D01*
X-47541D01*
X-59869Y301363D01*
Y303367D01*
X-59288Y303482D01*
X-57620Y304596D01*
X-57188D01*
X-55521Y303482D01*
X-53554Y303091D01*
X-48554D01*
X-46588Y303482D01*
X-44920Y304596D01*
X-44488D01*
X-42821Y303482D01*
X-40854Y303091D01*
X-35854D01*
X-33888Y303482D01*
X-32220Y304596D01*
X-31788D01*
X-30120Y303482D01*
X-28154Y303091D01*
X-23154D01*
X-21188Y303482D01*
X-19520Y304596D01*
X-19088D01*
X-17421Y303482D01*
X-15454Y303091D01*
X-10454D01*
X-8487Y303482D01*
X-6820Y304596D01*
X-6388D01*
X-4721Y303482D01*
D02*
G37*
%LPC*%
G36*
X19169Y376000D02*
X11750D01*
Y368582D01*
X11902Y368601D01*
X14374Y369625D01*
X16496Y371254D01*
X18125Y373376D01*
X19148Y375848D01*
X19169Y376000D01*
D02*
G37*
G36*
X6750D02*
X-668D01*
X-649Y375848D01*
X375Y373376D01*
X2004Y371254D01*
X4126Y369625D01*
X6598Y368601D01*
X6750Y368581D01*
Y376000D01*
D02*
G37*
G36*
X46419Y376500D02*
X39000D01*
Y369081D01*
X39152Y369101D01*
X41624Y370125D01*
X43746Y371754D01*
X45375Y373876D01*
X46399Y376348D01*
X46419Y376500D01*
D02*
G37*
G36*
X11750Y388419D02*
Y381000D01*
X19169D01*
X19148Y381152D01*
X18125Y383624D01*
X16496Y385746D01*
X14374Y387375D01*
X11902Y388399D01*
X11750Y388419D01*
D02*
G37*
G36*
X6750Y388419D02*
X6598Y388399D01*
X4126Y387375D01*
X2004Y385746D01*
X375Y383624D01*
X-649Y381152D01*
X-668Y381000D01*
X6750D01*
Y388419D01*
D02*
G37*
G36*
X34000Y376500D02*
X26581D01*
X26602Y376348D01*
X27625Y373876D01*
X29254Y371754D01*
X31376Y370125D01*
X33848Y369101D01*
X34000Y369081D01*
Y376500D01*
D02*
G37*
G36*
Y388919D02*
X33848Y388899D01*
X31376Y387875D01*
X29254Y386246D01*
X27625Y384124D01*
X26602Y381652D01*
X26581Y381500D01*
X34000D01*
Y388919D01*
D02*
G37*
G36*
X39000Y388919D02*
Y381500D01*
X46419D01*
X46399Y381652D01*
X45375Y384124D01*
X43746Y386246D01*
X41624Y387875D01*
X39152Y388899D01*
X39000Y388919D01*
D02*
G37*
G36*
X58400Y423500D02*
X48581D01*
X48683Y422726D01*
X49946Y419676D01*
X51956Y417056D01*
X54576Y415046D01*
X57626Y413783D01*
X58400Y413681D01*
Y423500D01*
D02*
G37*
G36*
X599400Y96158D02*
Y88860D01*
X606698D01*
X606682Y88981D01*
X605670Y91423D01*
X604061Y93521D01*
X601963Y95130D01*
X599521Y96142D01*
X599400Y96158D01*
D02*
G37*
G36*
X574000D02*
Y88860D01*
X581297D01*
X581282Y88981D01*
X580270Y91423D01*
X578661Y93521D01*
X576563Y95130D01*
X574121Y96142D01*
X574000Y96158D01*
D02*
G37*
G36*
X569000D02*
X568879Y96142D01*
X566437Y95130D01*
X564339Y93521D01*
X562730Y91423D01*
X561718Y88981D01*
X561702Y88860D01*
X569000D01*
Y96158D01*
D02*
G37*
G36*
X523200D02*
Y88860D01*
X530498D01*
X530482Y88981D01*
X529470Y91423D01*
X527861Y93521D01*
X525763Y95130D01*
X523321Y96142D01*
X523200Y96158D01*
D02*
G37*
G36*
X439250Y155000D02*
X433410D01*
Y141360D01*
X439250D01*
Y155000D01*
D02*
G37*
G36*
X393140Y137750D02*
X379500D01*
Y131910D01*
X393140D01*
Y137750D01*
D02*
G37*
G36*
X374500D02*
X360860D01*
Y131910D01*
X374500D01*
Y137750D01*
D02*
G37*
G36*
X303523Y89311D02*
Y82013D01*
X310820D01*
X310804Y82134D01*
X309793Y84577D01*
X308183Y86674D01*
X306086Y88283D01*
X303644Y89295D01*
X303523Y89311D01*
D02*
G37*
G36*
X273523D02*
Y82013D01*
X280821D01*
X280805Y82134D01*
X279793Y84577D01*
X278184Y86674D01*
X276086Y88283D01*
X273644Y89295D01*
X273523Y89311D01*
D02*
G37*
G36*
X268523D02*
X268402Y89295D01*
X265960Y88283D01*
X263862Y86674D01*
X262253Y84577D01*
X261241Y82134D01*
X261225Y82013D01*
X268523D01*
Y89311D01*
D02*
G37*
G36*
X363523D02*
X363402Y89295D01*
X360960Y88283D01*
X358862Y86674D01*
X357253Y84577D01*
X356241Y82134D01*
X356225Y82013D01*
X363523D01*
Y89311D01*
D02*
G37*
G36*
X518200Y96158D02*
X518079Y96142D01*
X515637Y95130D01*
X513539Y93521D01*
X511930Y91423D01*
X510918Y88981D01*
X510902Y88860D01*
X518200D01*
Y96158D01*
D02*
G37*
G36*
X594400D02*
X594279Y96142D01*
X591837Y95130D01*
X589739Y93521D01*
X588130Y91423D01*
X587118Y88981D01*
X587103Y88860D01*
X594400D01*
Y96158D01*
D02*
G37*
G36*
X368523Y89311D02*
Y82013D01*
X375820D01*
X375804Y82134D01*
X374793Y84577D01*
X373183Y86674D01*
X371086Y88283D01*
X368644Y89295D01*
X368523Y89311D01*
D02*
G37*
G36*
X450090Y155000D02*
X444250D01*
Y141360D01*
X450090D01*
Y155000D01*
D02*
G37*
G36*
X-15474Y229554D02*
X-38133D01*
Y220804D01*
X-37659Y217204D01*
X-36270Y213850D01*
X-34059Y210969D01*
X-31179Y208758D01*
X-27824Y207369D01*
X-24224Y206895D01*
X-15474D01*
Y229554D01*
D02*
G37*
G36*
X174000Y457169D02*
Y449750D01*
X181419D01*
X181399Y449902D01*
X180375Y452374D01*
X178746Y454496D01*
X176624Y456125D01*
X174152Y457149D01*
X174000Y457169D01*
D02*
G37*
G36*
X616280Y217240D02*
X606740D01*
X597200D01*
Y215200D01*
X599571D01*
X600197Y213930D01*
X599291Y212749D01*
X598430Y210672D01*
X598137Y208442D01*
X598430Y206213D01*
X599291Y204136D01*
X600660Y202352D01*
X602444Y200983D01*
X604521Y200123D01*
X606750Y199829D01*
X608979Y200123D01*
X611057Y200983D01*
X612840Y202352D01*
X614209Y204136D01*
X615070Y206213D01*
X615363Y208442D01*
X615070Y210672D01*
X614209Y212749D01*
X613303Y213930D01*
X613929Y215200D01*
X616280D01*
Y217240D01*
D02*
G37*
G36*
X12185Y229554D02*
X-10474D01*
Y206895D01*
X-1724D01*
X1876Y207369D01*
X5231Y208758D01*
X8111Y210969D01*
X10322Y213850D01*
X11711Y217204D01*
X12185Y220804D01*
Y229554D01*
D02*
G37*
G36*
X455540Y230040D02*
X444000D01*
Y210000D01*
X455540D01*
Y230040D01*
D02*
G37*
G36*
X439000D02*
X427460D01*
Y210000D01*
X439000D01*
Y230040D01*
D02*
G37*
G36*
X419000Y219499D02*
X408500D01*
X406338Y219069D01*
X404506Y217844D01*
X403281Y216012D01*
X402851Y213850D01*
X403281Y211688D01*
X404506Y209856D01*
X406338Y208631D01*
X408500Y208202D01*
X419000D01*
X421162Y208631D01*
X422994Y209856D01*
X424219Y211688D01*
X424649Y213850D01*
X424219Y216012D01*
X422994Y217844D01*
X421162Y219069D01*
X419000Y219499D01*
D02*
G37*
G36*
X439250Y173640D02*
X433410D01*
Y160000D01*
X439250D01*
Y173640D01*
D02*
G37*
G36*
X393140Y148590D02*
X379500D01*
Y142750D01*
X393140D01*
Y148590D01*
D02*
G37*
G36*
X374500D02*
X360860D01*
Y142750D01*
X374500D01*
Y148590D01*
D02*
G37*
G36*
X450090Y173640D02*
X444250D01*
Y160000D01*
X450090D01*
Y173640D01*
D02*
G37*
G36*
X419000Y206798D02*
X408500D01*
X406338Y206369D01*
X404506Y205144D01*
X403281Y203312D01*
X402851Y201150D01*
X403281Y198988D01*
X404506Y197156D01*
X406338Y195931D01*
X408500Y195501D01*
X419000D01*
X421162Y195931D01*
X422994Y197156D01*
X424219Y198988D01*
X424649Y201150D01*
X424219Y203312D01*
X422994Y205144D01*
X421162Y206369D01*
X419000Y206798D01*
D02*
G37*
G36*
X455540Y205000D02*
X444000D01*
Y184960D01*
X455540D01*
Y205000D01*
D02*
G37*
G36*
X439000D02*
X427460D01*
Y184960D01*
X439000D01*
Y205000D01*
D02*
G37*
G36*
X208523Y89311D02*
Y82013D01*
X215821D01*
X215805Y82134D01*
X214793Y84577D01*
X213184Y86674D01*
X211086Y88283D01*
X208644Y89295D01*
X208523Y89311D01*
D02*
G37*
G36*
X77000Y71331D02*
X74248Y70969D01*
X71684Y69907D01*
X69483Y68217D01*
X67793Y66016D01*
X66731Y63451D01*
X66369Y60700D01*
X66731Y57948D01*
X67793Y55384D01*
X69483Y53183D01*
X71684Y51493D01*
X74248Y50431D01*
X77000Y50069D01*
X79752Y50431D01*
X82316Y51493D01*
X84517Y53183D01*
X86207Y55384D01*
X87269Y57948D01*
X87631Y60700D01*
X87269Y63451D01*
X86207Y66016D01*
X84517Y68217D01*
X82316Y69907D01*
X79752Y70969D01*
X77000Y71331D01*
D02*
G37*
G36*
X434200Y52148D02*
X430926Y51717D01*
X427876Y50454D01*
X425256Y48444D01*
X423246Y45824D01*
X422610Y44288D01*
X421340Y44541D01*
Y52040D01*
X411300D01*
Y39500D01*
Y26960D01*
X421340D01*
Y34460D01*
X422610Y34712D01*
X423246Y33176D01*
X425256Y30556D01*
X427876Y28546D01*
X430926Y27283D01*
X434200Y26852D01*
X437474Y27283D01*
X440524Y28546D01*
X443144Y30556D01*
X445154Y33176D01*
X446417Y36226D01*
X446848Y39500D01*
X446417Y42774D01*
X445154Y45824D01*
X443144Y48444D01*
X440524Y50454D01*
X437474Y51717D01*
X434200Y52148D01*
D02*
G37*
G36*
X406300Y52040D02*
X396260D01*
Y42000D01*
X406300D01*
Y52040D01*
D02*
G37*
G36*
X108523Y77013D02*
X101226D01*
X101242Y76892D01*
X102253Y74450D01*
X103863Y72353D01*
X105960Y70743D01*
X108402Y69732D01*
X108523Y69716D01*
Y77013D01*
D02*
G37*
G36*
X215821D02*
X208523D01*
Y69716D01*
X208644Y69732D01*
X211086Y70743D01*
X213184Y72353D01*
X214793Y74450D01*
X215805Y76892D01*
X215821Y77013D01*
D02*
G37*
G36*
X173523D02*
X166226D01*
X166242Y76892D01*
X167253Y74450D01*
X168863Y72353D01*
X170960Y70743D01*
X173402Y69732D01*
X173523Y69716D01*
Y77013D01*
D02*
G37*
G36*
X120821D02*
X113523D01*
Y69716D01*
X113644Y69732D01*
X116087Y70743D01*
X118184Y72353D01*
X119793Y74450D01*
X120805Y76892D01*
X120821Y77013D01*
D02*
G37*
G36*
X74500Y32800D02*
X66460D01*
Y24760D01*
X74500D01*
Y32800D01*
D02*
G37*
G36*
X475955Y18520D02*
X472811Y18210D01*
X469787Y17293D01*
X467001Y15803D01*
X464558Y13799D01*
X462554Y11357D01*
X461064Y8570D01*
X460147Y5547D01*
X459837Y2402D01*
X460147Y-742D01*
X461064Y-3766D01*
X462554Y-6552D01*
X464558Y-8995D01*
X467001Y-10999D01*
X469787Y-12489D01*
X472811Y-13406D01*
X475955Y-13715D01*
X479100Y-13406D01*
X482123Y-12489D01*
X484910Y-10999D01*
X487352Y-8995D01*
X489356Y-6552D01*
X490846Y-3766D01*
X491763Y-742D01*
X492073Y2402D01*
X491763Y5547D01*
X490846Y8570D01*
X489356Y11357D01*
X487352Y13799D01*
X484910Y15803D01*
X482123Y17293D01*
X479100Y18210D01*
X475955Y18520D01*
D02*
G37*
G36*
X955D02*
X-2189Y18210D01*
X-5213Y17293D01*
X-7999Y15803D01*
X-10442Y13799D01*
X-12446Y11357D01*
X-13936Y8570D01*
X-14853Y5547D01*
X-15163Y2402D01*
X-14853Y-742D01*
X-13936Y-3766D01*
X-12446Y-6552D01*
X-10442Y-8995D01*
X-7999Y-10999D01*
X-5213Y-12489D01*
X-2189Y-13406D01*
X955Y-13715D01*
X4099Y-13406D01*
X7123Y-12489D01*
X9910Y-10999D01*
X12352Y-8995D01*
X14356Y-6552D01*
X15846Y-3766D01*
X16763Y-742D01*
X17073Y2402D01*
X16763Y5547D01*
X15846Y8570D01*
X14356Y11357D01*
X12352Y13799D01*
X9910Y15803D01*
X7123Y17293D01*
X4099Y18210D01*
X955Y18520D01*
D02*
G37*
G36*
X87540Y32800D02*
X79500D01*
Y24760D01*
X87540D01*
Y32800D01*
D02*
G37*
G36*
Y45840D02*
X79500D01*
Y37800D01*
X87540D01*
Y45840D01*
D02*
G37*
G36*
X74500D02*
X66460D01*
Y37800D01*
X74500D01*
Y45840D01*
D02*
G37*
G36*
X406300Y37000D02*
X396260D01*
Y26960D01*
X406300D01*
Y37000D01*
D02*
G37*
G36*
X268523Y77013D02*
X261225D01*
X261241Y76892D01*
X262253Y74450D01*
X263862Y72353D01*
X265960Y70743D01*
X268402Y69732D01*
X268523Y69716D01*
Y77013D01*
D02*
G37*
G36*
X569000Y83860D02*
X561702D01*
X561718Y83739D01*
X562730Y81297D01*
X564339Y79199D01*
X566437Y77590D01*
X568879Y76578D01*
X569000Y76562D01*
Y83860D01*
D02*
G37*
G36*
X518200D02*
X510902D01*
X510918Y83739D01*
X511930Y81297D01*
X513539Y79199D01*
X515637Y77590D01*
X518079Y76578D01*
X518200Y76562D01*
Y83860D01*
D02*
G37*
G36*
X606698D02*
X599400D01*
Y76562D01*
X599521Y76578D01*
X601963Y77590D01*
X604061Y79199D01*
X605670Y81297D01*
X606682Y83739D01*
X606698Y83860D01*
D02*
G37*
G36*
X594400D02*
X587103D01*
X587118Y83739D01*
X588130Y81297D01*
X589739Y79199D01*
X591837Y77590D01*
X594279Y76578D01*
X594400Y76562D01*
Y83860D01*
D02*
G37*
G36*
X173523Y89311D02*
X173402Y89295D01*
X170960Y88283D01*
X168863Y86674D01*
X167253Y84577D01*
X166242Y82134D01*
X166226Y82013D01*
X173523D01*
Y89311D01*
D02*
G37*
G36*
X113523D02*
Y82013D01*
X120821D01*
X120805Y82134D01*
X119793Y84577D01*
X118184Y86674D01*
X116087Y88283D01*
X113644Y89295D01*
X113523Y89311D01*
D02*
G37*
G36*
X108523D02*
X108402Y89295D01*
X105960Y88283D01*
X103863Y86674D01*
X102253Y84577D01*
X101242Y82134D01*
X101226Y82013D01*
X108523D01*
Y89311D01*
D02*
G37*
G36*
X363523Y77013D02*
X356225D01*
X356241Y76892D01*
X357253Y74450D01*
X358862Y72353D01*
X360960Y70743D01*
X363402Y69732D01*
X363523Y69716D01*
Y77013D01*
D02*
G37*
G36*
X310820D02*
X303523D01*
Y69716D01*
X303644Y69732D01*
X306086Y70743D01*
X308183Y72353D01*
X309793Y74450D01*
X310804Y76892D01*
X310820Y77013D01*
D02*
G37*
G36*
X280821D02*
X273523D01*
Y69716D01*
X273644Y69732D01*
X276086Y70743D01*
X278184Y72353D01*
X279793Y74450D01*
X280805Y76892D01*
X280821Y77013D01*
D02*
G37*
G36*
X375820D02*
X368523D01*
Y69716D01*
X368644Y69732D01*
X371086Y70743D01*
X373183Y72353D01*
X374793Y74450D01*
X375804Y76892D01*
X375820Y77013D01*
D02*
G37*
G36*
X581297Y83860D02*
X574000D01*
Y76562D01*
X574121Y76578D01*
X576563Y77590D01*
X578661Y79199D01*
X580270Y81297D01*
X581282Y83739D01*
X581297Y83860D01*
D02*
G37*
G36*
X530498D02*
X523200D01*
Y76562D01*
X523321Y76578D01*
X525763Y77590D01*
X527861Y79199D01*
X529470Y81297D01*
X530482Y83739D01*
X530498Y83860D01*
D02*
G37*
G36*
X474500Y194098D02*
X464000D01*
X461838Y193668D01*
X460006Y192444D01*
X458781Y190612D01*
X458352Y188450D01*
X458781Y186288D01*
X460006Y184456D01*
X461838Y183231D01*
X464000Y182801D01*
X464654D01*
Y173640D01*
X462910D01*
Y141360D01*
X464654D01*
Y110410D01*
X464878Y108703D01*
X465537Y107112D01*
X466586Y105746D01*
X485266Y87065D01*
X485173Y86360D01*
X485518Y83739D01*
X486530Y81297D01*
X488139Y79199D01*
X490237Y77590D01*
X492679Y76578D01*
X495300Y76233D01*
X497921Y76578D01*
X500363Y77590D01*
X502461Y79199D01*
X504070Y81297D01*
X505082Y83739D01*
X505427Y86360D01*
X505082Y88981D01*
X504070Y91423D01*
X502461Y93521D01*
X500363Y95130D01*
X497921Y96142D01*
X495300Y96487D01*
X494595Y96394D01*
X477846Y113142D01*
Y141360D01*
X479590D01*
Y173640D01*
X477846D01*
Y184023D01*
X478494Y184456D01*
X479719Y186288D01*
X480149Y188450D01*
X479719Y190612D01*
X478494Y192444D01*
X476662Y193668D01*
X474500Y194098D01*
D02*
G37*
G36*
X624132Y375011D02*
X621250Y374632D01*
X618564Y373519D01*
X616258Y371750D01*
X614489Y369444D01*
X613376Y366758D01*
X612997Y363876D01*
X613376Y360994D01*
X614489Y358308D01*
X616258Y356002D01*
X618564Y354233D01*
X621250Y353120D01*
X624132Y352741D01*
X627014Y353120D01*
X629700Y354233D01*
X632006Y356002D01*
X633775Y358308D01*
X634888Y360994D01*
X635267Y363876D01*
X634888Y366758D01*
X633775Y369444D01*
X632006Y371750D01*
X629700Y373519D01*
X627014Y374632D01*
X624132Y375011D01*
D02*
G37*
G36*
X446000Y338658D02*
X443643Y338190D01*
X441645Y336855D01*
X440311Y334857D01*
X439842Y332500D01*
X440311Y330143D01*
X441645Y328145D01*
X443643Y326810D01*
X446000Y326342D01*
X448357Y326810D01*
X450355Y328145D01*
X450669Y328615D01*
X453891D01*
X466253Y316253D01*
X467513Y315411D01*
X469000Y315115D01*
X490331D01*
X490645Y314645D01*
X492643Y313310D01*
X495000Y312842D01*
X497357Y313310D01*
X499355Y314645D01*
X500690Y316643D01*
X501158Y319000D01*
X500690Y321357D01*
X499355Y323355D01*
X497357Y324689D01*
X495000Y325158D01*
X492643Y324689D01*
X490645Y323355D01*
X490331Y322885D01*
X470609D01*
X458247Y335247D01*
X456987Y336089D01*
X455500Y336385D01*
X450669D01*
X450355Y336855D01*
X448357Y338190D01*
X446000Y338658D01*
D02*
G37*
G36*
X601632Y318695D02*
Y308876D01*
X611451D01*
X611349Y309650D01*
X610086Y312700D01*
X608076Y315320D01*
X605456Y317330D01*
X602406Y318593D01*
X601632Y318695D01*
D02*
G37*
G36*
X596632D02*
X595858Y318593D01*
X592808Y317330D01*
X590188Y315320D01*
X588178Y312700D01*
X586915Y309650D01*
X586813Y308876D01*
X596632D01*
Y318695D01*
D02*
G37*
G36*
X621632Y329682D02*
X621250Y329632D01*
X618564Y328519D01*
X616258Y326750D01*
X614489Y324444D01*
X613376Y321758D01*
X613326Y321376D01*
X621632D01*
Y329682D01*
D02*
G37*
G36*
X334750Y360498D02*
X332098Y360149D01*
X329626Y359125D01*
X327504Y357496D01*
X325875Y355374D01*
X324851Y352902D01*
X324502Y350250D01*
X324851Y347598D01*
X325875Y345126D01*
X327504Y343004D01*
X329626Y341375D01*
X332098Y340351D01*
X334750Y340002D01*
X337402Y340351D01*
X339874Y341375D01*
X341996Y343004D01*
X343625Y345126D01*
X344649Y347598D01*
X344998Y350250D01*
X344649Y352902D01*
X343625Y355374D01*
X341996Y357496D01*
X339874Y359125D01*
X337402Y360149D01*
X334750Y360498D01*
D02*
G37*
G36*
X312250D02*
X309598Y360149D01*
X307126Y359125D01*
X305004Y357496D01*
X303375Y355374D01*
X302351Y352902D01*
X302002Y350250D01*
X302351Y347598D01*
X303375Y345126D01*
X305004Y343004D01*
X307126Y341375D01*
X309598Y340351D01*
X312250Y340002D01*
X314902Y340351D01*
X317374Y341375D01*
X319496Y343004D01*
X321125Y345126D01*
X322149Y347598D01*
X322498Y350250D01*
X322149Y352902D01*
X321125Y355374D01*
X319496Y357496D01*
X317374Y359125D01*
X314902Y360149D01*
X312250Y360498D01*
D02*
G37*
G36*
X626632Y329682D02*
Y321376D01*
X634938D01*
X634888Y321758D01*
X633775Y324444D01*
X632006Y326750D01*
X629700Y328519D01*
X627014Y329632D01*
X626632Y329682D01*
D02*
G37*
G36*
X475955Y463520D02*
X472811Y463210D01*
X469787Y462293D01*
X467001Y460803D01*
X464558Y458799D01*
X462554Y456357D01*
X461064Y453570D01*
X460147Y450546D01*
X459837Y447402D01*
X460147Y444258D01*
X461064Y441234D01*
X462554Y438448D01*
X464558Y436005D01*
X467001Y434001D01*
X469787Y432511D01*
X472811Y431594D01*
X475955Y431284D01*
X479100Y431594D01*
X482123Y432511D01*
X484910Y434001D01*
X487352Y436005D01*
X489356Y438448D01*
X490846Y441234D01*
X491763Y444258D01*
X492073Y447402D01*
X491763Y450546D01*
X490846Y453570D01*
X489356Y456357D01*
X487352Y458799D01*
X484910Y460803D01*
X482123Y462293D01*
X479100Y463210D01*
X475955Y463520D01*
D02*
G37*
G36*
X955D02*
X-2189Y463210D01*
X-5213Y462293D01*
X-7999Y460803D01*
X-10442Y458799D01*
X-12446Y456357D01*
X-13936Y453570D01*
X-14853Y450546D01*
X-15163Y447402D01*
X-14853Y444258D01*
X-13936Y441234D01*
X-12446Y438448D01*
X-10442Y436005D01*
X-7999Y434001D01*
X-5213Y432511D01*
X-2189Y431594D01*
X955Y431284D01*
X4099Y431594D01*
X7123Y432511D01*
X9910Y434001D01*
X12352Y436005D01*
X14356Y438448D01*
X15846Y441234D01*
X16763Y444258D01*
X17073Y447402D01*
X16763Y450546D01*
X15846Y453570D01*
X14356Y456357D01*
X12352Y458799D01*
X9910Y460803D01*
X7123Y462293D01*
X4099Y463210D01*
X955Y463520D01*
D02*
G37*
G36*
X195375Y435748D02*
X192723Y435398D01*
X190251Y434375D01*
X188129Y432746D01*
X186500Y430624D01*
X185476Y428152D01*
X185127Y425500D01*
X185476Y422848D01*
X186500Y420376D01*
X188129Y418254D01*
X190251Y416625D01*
X192723Y415602D01*
X195375Y415252D01*
X198027Y415602D01*
X200499Y416625D01*
X202621Y418254D01*
X204250Y420376D01*
X205273Y422848D01*
X205623Y425500D01*
X205273Y428152D01*
X204250Y430624D01*
X202621Y432746D01*
X200499Y434375D01*
X198027Y435398D01*
X195375Y435748D01*
D02*
G37*
G36*
X169000Y444750D02*
X161581D01*
X161602Y444598D01*
X162625Y442126D01*
X164254Y440004D01*
X166376Y438375D01*
X168848Y437351D01*
X169000Y437331D01*
Y444750D01*
D02*
G37*
G36*
X228919D02*
X221500D01*
Y437332D01*
X221652Y437351D01*
X224124Y438375D01*
X226246Y440004D01*
X227875Y442126D01*
X228899Y444598D01*
X228919Y444750D01*
D02*
G37*
G36*
X216500D02*
X209081D01*
X209102Y444598D01*
X210125Y442126D01*
X211754Y440004D01*
X213876Y438375D01*
X216348Y437351D01*
X216500Y437332D01*
Y444750D01*
D02*
G37*
G36*
X205169D02*
X197750D01*
Y437331D01*
X197902Y437351D01*
X200374Y438375D01*
X202496Y440004D01*
X204125Y442126D01*
X205149Y444598D01*
X205169Y444750D01*
D02*
G37*
G36*
X181419D02*
X174000D01*
Y437332D01*
X174152Y437351D01*
X176624Y438375D01*
X178746Y440004D01*
X180375Y442126D01*
X181399Y444598D01*
X181419Y444750D01*
D02*
G37*
G36*
X169000Y457169D02*
X168848Y457149D01*
X166376Y456125D01*
X164254Y454496D01*
X162625Y452374D01*
X161602Y449902D01*
X161581Y449750D01*
X169000D01*
Y457169D01*
D02*
G37*
G36*
X192750Y444750D02*
X185331D01*
X185352Y444598D01*
X186375Y442126D01*
X188004Y440004D01*
X190126Y438375D01*
X192598Y437351D01*
X192750Y437332D01*
Y444750D01*
D02*
G37*
G36*
X219000Y435498D02*
X216348Y435149D01*
X213876Y434125D01*
X211754Y432496D01*
X210125Y430374D01*
X209102Y427902D01*
X208752Y425250D01*
X209102Y422598D01*
X210125Y420126D01*
X211754Y418004D01*
X213876Y416375D01*
X216348Y415351D01*
X219000Y415002D01*
X221652Y415351D01*
X224124Y416375D01*
X226246Y418004D01*
X227875Y420126D01*
X228899Y422598D01*
X229248Y425250D01*
X228899Y427902D01*
X227875Y430374D01*
X226246Y432496D01*
X224124Y434125D01*
X221652Y435149D01*
X219000Y435498D01*
D02*
G37*
G36*
X171750D02*
X169098Y435149D01*
X166626Y434125D01*
X164504Y432496D01*
X162875Y430374D01*
X161852Y427902D01*
X161502Y425250D01*
X161852Y422598D01*
X162875Y420126D01*
X164504Y418004D01*
X166626Y416375D01*
X169098Y415351D01*
X171750Y415002D01*
X174402Y415351D01*
X176874Y416375D01*
X178996Y418004D01*
X180625Y420126D01*
X181649Y422598D01*
X181998Y425250D01*
X181649Y427902D01*
X180625Y430374D01*
X178996Y432496D01*
X176874Y434125D01*
X174402Y435149D01*
X171750Y435498D01*
D02*
G37*
G36*
X634938Y316376D02*
X626632D01*
Y308070D01*
X627014Y308120D01*
X629700Y309233D01*
X632006Y311002D01*
X633775Y313308D01*
X634888Y315994D01*
X634938Y316376D01*
D02*
G37*
G36*
X509000Y241750D02*
X495360D01*
Y235910D01*
X509000D01*
Y241750D01*
D02*
G37*
G36*
X-1724Y257213D02*
X-10474D01*
Y234554D01*
X12185D01*
Y243304D01*
X11711Y246904D01*
X10322Y250259D01*
X8111Y253139D01*
X5231Y255350D01*
X1876Y256739D01*
X-1724Y257213D01*
D02*
G37*
G36*
X-15474D02*
X-24224D01*
X-27824Y256739D01*
X-31179Y255350D01*
X-34059Y253139D01*
X-36270Y250259D01*
X-37659Y246904D01*
X-38133Y243304D01*
Y234554D01*
X-15474D01*
Y257213D01*
D02*
G37*
G36*
X527640Y241750D02*
X514000D01*
Y235910D01*
X527640D01*
Y241750D01*
D02*
G37*
G36*
X509000Y252590D02*
X495360D01*
Y246750D01*
X509000D01*
Y252590D01*
D02*
G37*
G36*
X565640Y242250D02*
X552000D01*
Y236410D01*
X565640D01*
Y242250D01*
D02*
G37*
G36*
X547000D02*
X533360D01*
Y236410D01*
X547000D01*
Y242250D01*
D02*
G37*
G36*
X106365Y278940D02*
X93726D01*
X81087D01*
X81478Y276973D01*
X82592Y275306D01*
Y274874D01*
X81478Y273207D01*
X81087Y271240D01*
Y266240D01*
X81478Y264273D01*
X82592Y262606D01*
Y262174D01*
X81478Y260506D01*
X81087Y258540D01*
Y253540D01*
X81478Y251574D01*
X82592Y249906D01*
Y249474D01*
X81478Y247806D01*
X81087Y245840D01*
Y240840D01*
X81478Y238874D01*
X82592Y237206D01*
Y236774D01*
X81478Y235107D01*
X81087Y233140D01*
Y228140D01*
X81478Y226173D01*
X82592Y224506D01*
Y224074D01*
X81478Y222407D01*
X81087Y220440D01*
Y215440D01*
X81478Y213473D01*
X82592Y211806D01*
Y211374D01*
X81478Y209706D01*
X81087Y207740D01*
Y202740D01*
X81478Y200774D01*
X82592Y199106D01*
Y198674D01*
X81478Y197006D01*
X81087Y195040D01*
Y190040D01*
X81478Y188074D01*
X82592Y186406D01*
Y185974D01*
X81478Y184307D01*
X81087Y182340D01*
Y177340D01*
X81478Y175373D01*
X82592Y173706D01*
Y173274D01*
X81478Y171607D01*
X81087Y169640D01*
Y164640D01*
X81478Y162673D01*
X82592Y161006D01*
X84260Y159892D01*
X86226Y159501D01*
X101226D01*
X103193Y159892D01*
X104860Y161006D01*
X105974Y162673D01*
X106365Y164640D01*
Y169640D01*
X105974Y171607D01*
X104860Y173274D01*
Y173706D01*
X105974Y175373D01*
X106089Y175955D01*
X150240D01*
X151727Y176251D01*
X152987Y177093D01*
X191354Y215460D01*
X215940D01*
Y219115D01*
X222331D01*
X222645Y218645D01*
X224643Y217311D01*
X227000Y216842D01*
X229357Y217311D01*
X231355Y218645D01*
X232690Y220643D01*
X233158Y223000D01*
X232690Y225357D01*
X231355Y227355D01*
X229357Y228690D01*
X227000Y229158D01*
X224643Y228690D01*
X222645Y227355D01*
X222331Y226885D01*
X215940D01*
Y230540D01*
X185860D01*
Y220954D01*
X148631Y183725D01*
X106089D01*
X105974Y184307D01*
X104860Y185974D01*
Y186406D01*
X105974Y188074D01*
X106365Y190040D01*
Y195040D01*
X105974Y197006D01*
X104860Y198674D01*
Y199106D01*
X105974Y200774D01*
X106365Y202740D01*
Y207740D01*
X105974Y209706D01*
X104860Y211374D01*
Y211806D01*
X105974Y213473D01*
X106365Y215440D01*
Y220440D01*
X105974Y222407D01*
X104860Y224074D01*
Y224506D01*
X105974Y226173D01*
X106365Y228140D01*
Y233140D01*
X105974Y235107D01*
X104860Y236774D01*
Y237206D01*
X105974Y238874D01*
X106365Y240840D01*
Y245840D01*
X105974Y247806D01*
X104860Y249474D01*
Y249906D01*
X105974Y251574D01*
X106365Y253540D01*
Y258540D01*
X105974Y260506D01*
X104860Y262174D01*
Y262606D01*
X105974Y264273D01*
X106365Y266240D01*
Y271240D01*
X105974Y273207D01*
X104860Y274874D01*
Y275306D01*
X105974Y276973D01*
X106365Y278940D01*
D01*
D02*
G37*
G36*
X394140Y222250D02*
X380500D01*
Y216410D01*
X394140D01*
Y222250D01*
D02*
G37*
G36*
X375500D02*
X361860D01*
Y216410D01*
X375500D01*
Y222250D01*
D02*
G37*
G36*
X419000Y232199D02*
X408500D01*
X406338Y231768D01*
X404506Y230544D01*
X403281Y228712D01*
X402851Y226550D01*
X403281Y224388D01*
X404506Y222556D01*
X406338Y221331D01*
X408500Y220902D01*
X419000D01*
X421162Y221331D01*
X422994Y222556D01*
X424219Y224388D01*
X424649Y226550D01*
X424219Y228712D01*
X422994Y230544D01*
X421162Y231768D01*
X419000Y232199D01*
D02*
G37*
G36*
X394140Y233090D02*
X380500D01*
Y227250D01*
X394140D01*
Y233090D01*
D02*
G37*
G36*
X375500D02*
X361860D01*
Y227250D01*
X375500D01*
Y233090D01*
D02*
G37*
G36*
X221500Y457169D02*
Y449750D01*
X228918D01*
X228899Y449902D01*
X227875Y452374D01*
X226246Y454496D01*
X224124Y456125D01*
X221652Y457149D01*
X221500Y457169D01*
D02*
G37*
G36*
X527640Y252590D02*
X514000D01*
Y246750D01*
X527640D01*
Y252590D01*
D02*
G37*
G36*
X197750Y457169D02*
Y449750D01*
X205169D01*
X205149Y449902D01*
X204125Y452374D01*
X202496Y454496D01*
X200374Y456125D01*
X197902Y457149D01*
X197750Y457169D01*
D02*
G37*
G36*
X611451Y303876D02*
X601632D01*
Y294057D01*
X602406Y294159D01*
X605456Y295422D01*
X608076Y297432D01*
X610086Y300052D01*
X611349Y303102D01*
X611451Y303876D01*
D02*
G37*
G36*
X596632D02*
X586813D01*
X586915Y303102D01*
X588178Y300052D01*
X590188Y297432D01*
X592808Y295422D01*
X595858Y294159D01*
X596632Y294057D01*
Y303876D01*
D02*
G37*
G36*
X192750Y457169D02*
X192598Y457149D01*
X190126Y456125D01*
X188004Y454496D01*
X186375Y452374D01*
X185352Y449902D01*
X185331Y449750D01*
X192750D01*
Y457169D01*
D02*
G37*
G36*
X621632Y316376D02*
X613326D01*
X613376Y315994D01*
X614489Y313308D01*
X616258Y311002D01*
X618564Y309233D01*
X621250Y308120D01*
X621632Y308070D01*
Y316376D01*
D02*
G37*
G36*
X215940Y311540D02*
X185860D01*
Y307885D01*
X183669D01*
X183355Y308355D01*
X181357Y309690D01*
X179000Y310158D01*
X176643Y309690D01*
X174646Y308355D01*
X173311Y306357D01*
X172842Y304000D01*
X173311Y301643D01*
X174646Y299646D01*
X176643Y298311D01*
X179000Y297842D01*
X181357Y298311D01*
X183355Y299646D01*
X183669Y300116D01*
X185860D01*
Y296460D01*
X215940D01*
Y300116D01*
X222331D01*
X222645Y299645D01*
X224643Y298311D01*
X227000Y297842D01*
X229357Y298311D01*
X231355Y299645D01*
X232690Y301643D01*
X233158Y304000D01*
X232690Y306357D01*
X231355Y308355D01*
X229357Y309690D01*
X227000Y310158D01*
X224643Y309690D01*
X222645Y308355D01*
X222332Y307885D01*
X215940D01*
Y311540D01*
D02*
G37*
G36*
X216500Y457169D02*
X216348Y457149D01*
X213876Y456125D01*
X211754Y454496D01*
X210125Y452374D01*
X209102Y449902D01*
X209081Y449750D01*
X216500D01*
Y457169D01*
D02*
G37*
G36*
X215940Y250790D02*
X185860D01*
Y248012D01*
X184605Y247605D01*
X182607Y248940D01*
X180250Y249408D01*
X177893Y248940D01*
X175895Y247605D01*
X174561Y245607D01*
X174092Y243250D01*
X174561Y240893D01*
X175895Y238895D01*
X177893Y237561D01*
X180250Y237092D01*
X182607Y237561D01*
X184605Y238895D01*
X185860Y238488D01*
Y235710D01*
X215940D01*
Y239365D01*
X222581D01*
X222895Y238895D01*
X224893Y237561D01*
X227250Y237092D01*
X229607Y237561D01*
X231605Y238895D01*
X232940Y240893D01*
X233408Y243250D01*
X232940Y245607D01*
X231605Y247605D01*
X229607Y248940D01*
X227250Y249408D01*
X224893Y248940D01*
X222895Y247605D01*
X222581Y247135D01*
X215940D01*
Y250790D01*
D02*
G37*
G36*
X565640Y253090D02*
X552000D01*
Y247250D01*
X565640D01*
Y253090D01*
D02*
G37*
G36*
X547000D02*
X533360D01*
Y247250D01*
X547000D01*
Y253090D01*
D02*
G37*
G36*
X606750Y265671D02*
X604521Y265378D01*
X602444Y264517D01*
X600660Y263148D01*
X599291Y261364D01*
X598430Y259287D01*
X598137Y257058D01*
X598430Y254829D01*
X599291Y252751D01*
X599746Y252159D01*
X599119Y250889D01*
X594000D01*
Y250891D01*
X590922Y250486D01*
X588054Y249298D01*
X585591Y247409D01*
X583701Y244946D01*
X582514Y242078D01*
X582108Y239000D01*
X582111D01*
Y177250D01*
X582084D01*
X582587Y172145D01*
X584076Y167237D01*
X586494Y162713D01*
X589748Y158748D01*
X593713Y155494D01*
X598237Y153076D01*
X603145Y151587D01*
X608250Y151084D01*
Y151084D01*
X609484Y150997D01*
X610569Y150854D01*
X612730Y149959D01*
X614585Y148535D01*
X616009Y146680D01*
X616904Y144519D01*
X617190Y142346D01*
X617161Y142200D01*
Y96400D01*
X612260D01*
Y79888D01*
X606766Y74394D01*
X460734D01*
X419144Y115984D01*
Y182830D01*
X421162Y183231D01*
X422994Y184456D01*
X424219Y186288D01*
X424649Y188450D01*
X424219Y190612D01*
X422994Y192444D01*
X421162Y193668D01*
X419000Y194098D01*
X408500D01*
X407219Y193844D01*
X394140D01*
Y203590D01*
X361860D01*
Y194144D01*
X358500D01*
X357979Y194040D01*
X349210D01*
Y179460D01*
Y164960D01*
X360860D01*
Y161410D01*
X393140D01*
Y178090D01*
X363790D01*
Y183356D01*
X380292D01*
X381800Y183056D01*
X407219D01*
X408356Y182830D01*
Y113750D01*
X408767Y111686D01*
X409936Y109936D01*
X454686Y65186D01*
X456436Y64017D01*
X458500Y63606D01*
X609000D01*
X611064Y64017D01*
X612814Y65186D01*
X623948Y76320D01*
X632340D01*
Y96400D01*
X627439D01*
Y142200D01*
X627426Y142263D01*
X627064Y145942D01*
X625972Y149541D01*
X624200Y152857D01*
X621814Y155764D01*
X618907Y158150D01*
X615591Y159922D01*
X611992Y161014D01*
X608313Y161376D01*
X608250Y161389D01*
X608088Y161356D01*
X605146Y161646D01*
X602162Y162551D01*
X599411Y164022D01*
X597000Y166000D01*
X595022Y168411D01*
X593551Y171162D01*
X592646Y174146D01*
X592356Y177087D01*
X592389Y177250D01*
Y239000D01*
X592387Y239007D01*
X592509Y239618D01*
X592859Y240141D01*
X593382Y240491D01*
X593993Y240613D01*
X594000Y240611D01*
X597210D01*
Y228210D01*
X597212D01*
Y224280D01*
X597200D01*
Y222240D01*
X597212D01*
Y221705D01*
X606740D01*
X616280D01*
Y221705D01*
X616293D01*
Y230785D01*
X616290D01*
Y241210D01*
Y250290D01*
X613921D01*
X613295Y251560D01*
X614209Y252751D01*
X615070Y254829D01*
X615363Y257058D01*
X615070Y259287D01*
X614209Y261364D01*
X612840Y263148D01*
X611057Y264517D01*
X608979Y265378D01*
X606750Y265671D01*
D02*
G37*
G36*
X215940Y291290D02*
X185860D01*
Y287635D01*
X180750D01*
X179263Y287339D01*
X178003Y286497D01*
X175554Y284048D01*
X175000Y284158D01*
X172643Y283690D01*
X170645Y282355D01*
X169310Y280357D01*
X168842Y278000D01*
X169310Y275643D01*
X170645Y273645D01*
X172643Y272311D01*
X175000Y271842D01*
X177357Y272311D01*
X179355Y273645D01*
X180690Y275643D01*
X181158Y278000D01*
X181048Y278554D01*
X182359Y279865D01*
X185860D01*
Y276210D01*
X215940D01*
Y279865D01*
X222498D01*
X222645Y279645D01*
X224643Y278310D01*
X227000Y277842D01*
X229357Y278310D01*
X231355Y279645D01*
X232690Y281643D01*
X233158Y284000D01*
X232690Y286357D01*
X231355Y288355D01*
X229357Y289690D01*
X227000Y290158D01*
X224643Y289690D01*
X222645Y288355D01*
X222164Y287635D01*
X215940D01*
Y291290D01*
D02*
G37*
G36*
X101226Y289079D02*
X96226D01*
Y283940D01*
X106365D01*
X105974Y285907D01*
X104860Y287574D01*
X103193Y288688D01*
X101226Y289079D01*
D02*
G37*
G36*
X215940Y271040D02*
X185860D01*
Y267385D01*
X177500D01*
X176014Y267089D01*
X174753Y266247D01*
X161253Y252747D01*
X160411Y251487D01*
X160115Y250000D01*
Y217669D01*
X159645Y217355D01*
X158310Y215357D01*
X157842Y213000D01*
X158310Y210643D01*
X159645Y208645D01*
X161643Y207311D01*
X164000Y206842D01*
X166357Y207311D01*
X168355Y208645D01*
X169690Y210643D01*
X170158Y213000D01*
X169690Y215357D01*
X168355Y217355D01*
X167885Y217669D01*
Y248391D01*
X179109Y259615D01*
X185860D01*
Y255960D01*
X215940D01*
Y259615D01*
X222831D01*
X223145Y259146D01*
X225143Y257810D01*
X227500Y257342D01*
X229857Y257810D01*
X231855Y259146D01*
X233190Y261143D01*
X233658Y263500D01*
X233190Y265857D01*
X231855Y267855D01*
X229857Y269190D01*
X227500Y269658D01*
X225143Y269190D01*
X223145Y267855D01*
X222831Y267385D01*
X215940D01*
Y271040D01*
D02*
G37*
%LPD*%
D11*
X622300Y142200D02*
G03*
X608250Y156250I-14050J0D01*
G01*
X594000Y245750D02*
G03*
X587250Y239000I0J-6750D01*
G01*
Y177250D02*
G03*
X608250Y156250I21000J0D01*
G01*
X-76500Y315776D02*
Y369500D01*
X-76454Y221546D02*
Y315730D01*
X-88000Y204750D02*
Y210000D01*
X-76454Y221546D01*
X-76500Y315776D02*
X-76454Y315730D01*
X137100Y426000D02*
Y429900D01*
X124000Y443000D02*
X137100Y429900D01*
X47000Y443000D02*
X124000D01*
X-18000Y378000D02*
X47000Y443000D01*
X-68000Y378000D02*
X-18000D01*
X-76500Y369500D02*
X-68000Y378000D01*
X402000Y311000D02*
Y382500D01*
Y311000D02*
X412000Y301000D01*
X449000D01*
X622300Y86360D02*
Y142200D01*
X587250Y177250D02*
Y239000D01*
X594000Y245750D02*
X606750D01*
D13*
X63250Y362500D02*
D03*
Y377500D02*
D03*
X84000Y362750D02*
D03*
Y377750D02*
D03*
D15*
X-10500Y67000D02*
D03*
X4500D02*
D03*
X-10500Y89000D02*
D03*
X4500D02*
D03*
X208400Y304000D02*
D03*
X193400D02*
D03*
X208400Y223000D02*
D03*
X193400D02*
D03*
X208400Y243250D02*
D03*
X193400D02*
D03*
X208400Y263500D02*
D03*
X193400D02*
D03*
X208400Y283750D02*
D03*
X193400D02*
D03*
X-75000Y362500D02*
D03*
X-60000D02*
D03*
X132500Y131000D02*
D03*
X117500D02*
D03*
X-75000Y345000D02*
D03*
X-90000D02*
D03*
D21*
X544000Y89353D02*
G03*
X546100Y86360I9584J4491D01*
G01*
X-254Y329595D02*
G03*
X-1250Y332000I-3401J0D01*
G01*
X-6250Y344071D02*
G03*
X-1250Y332000I17071J0D01*
G01*
X-51054Y92575D02*
G03*
X-43615Y74615I25400J0D01*
G01*
X-43439Y74440D02*
G03*
X-25479Y67000I17960J17960D01*
G01*
X-46075Y346825D02*
G03*
X-46073Y346823I428J425D01*
G01*
X-46250Y347250D02*
G03*
X-46075Y346825I604J0D01*
G01*
X-25654Y315883D02*
G03*
X-33094Y333843I-25400J0D01*
G01*
X63000Y316324D02*
G03*
X63246Y315730I840J0D01*
G01*
X28447Y334447D02*
G03*
X25146Y326478I7969J-7969D01*
G01*
X-26250Y347250D02*
G03*
X-24129Y342129I7243J0D01*
G01*
X-12954Y325232D02*
G03*
X-17000Y335000I-13814J0D01*
G01*
X78000Y344000D02*
G03*
X75946Y339041I4959J-4959D01*
G01*
X78000Y344000D02*
G03*
X84000Y358485I-14485J14485D01*
G01*
X45286Y337536D02*
G03*
X37846Y319575I17960J-17960D01*
G01*
X-38354Y95683D02*
G03*
X-36000Y90000I8037J0D01*
G01*
D02*
G03*
X-33586Y89000I2414J2414D01*
G01*
X557202Y311453D02*
G03*
X564642Y329413I-17960J17960D01*
G01*
X496479Y261250D02*
G03*
X514440Y268689I0J25400D01*
G01*
X104261Y402261D02*
G03*
X111700Y420221I-17960J17960D01*
G01*
X78861Y401861D02*
G03*
X86300Y419821I-17960J17960D01*
G01*
X70425Y393425D02*
G03*
X63000Y375500I17925J-17925D01*
G01*
X12446Y315730D02*
G03*
X13750Y318878I-3148J3148D01*
G01*
X28447Y334447D02*
G03*
X33750Y347250I-12803J12803D01*
G01*
X52866Y345116D02*
G03*
X53750Y347250I-2134J2134D01*
G01*
X88596Y386596D02*
G03*
X84000Y375500I11096J-11096D01*
G01*
X39000Y87800D02*
G03*
X36103Y89000I-2897J-2897D01*
G01*
X4500Y44450D02*
G03*
X8000Y36000I11950J0D01*
G01*
D02*
G03*
X12828Y34000I4828J4828D01*
G01*
X31757D02*
G03*
X39000Y37000I0J10243D01*
G01*
X543000Y173750D02*
X545234Y167271D01*
X-254Y315730D02*
Y329595D01*
X-6250Y344071D02*
Y347250D01*
X110244Y321750D02*
X361250D01*
X73644Y285150D02*
X110244Y321750D01*
X-254Y300254D02*
Y315730D01*
Y300254D02*
X10810Y289190D01*
X71970D01*
X120280Y337500D01*
X-63754Y299754D02*
X-49150Y285150D01*
X73644D01*
X120280Y337500D02*
X185000D01*
X361250Y321750D02*
X391250Y291750D01*
X68000Y152000D02*
X121000D01*
X36000Y184000D02*
X68000Y152000D01*
X36000Y184000D02*
Y194000D01*
X-254Y131310D02*
X0Y131056D01*
Y105000D02*
Y131056D01*
X25146Y131310D02*
Y180000D01*
X13000Y131864D02*
Y158000D01*
X20000Y200000D02*
X24000Y204000D01*
X-82000Y200000D02*
X20000D01*
X73000Y107000D02*
X275000D01*
X68000Y99000D02*
X184000D01*
X275000Y107000D02*
X288000Y94000D01*
X50546Y116454D02*
X68000Y99000D01*
X111023Y34513D02*
X176023D01*
X164000Y250000D02*
X177500Y263500D01*
X164000Y213000D02*
Y250000D01*
X150240Y179840D02*
X193400Y223000D01*
X93726Y179840D02*
X150240D01*
X121000Y152000D02*
X132500Y140500D01*
X-51054Y92575D02*
Y131310D01*
X-25479Y67000D02*
X-10500D01*
X-43615Y74615D02*
X-43439Y74440D01*
X63246Y116754D02*
Y131310D01*
X-46075Y346825D02*
X-46073Y346823D01*
X-25654Y315730D02*
Y315883D01*
X-46073Y346823D02*
X-33094Y333843D01*
X63000Y316324D02*
Y360500D01*
X25146Y315730D02*
Y326478D01*
X-24129Y342129D02*
X-17000Y335000D01*
X-12954Y315730D02*
Y325232D01*
X75946Y315730D02*
Y339041D01*
X37846Y315730D02*
Y319575D01*
X45286Y337536D02*
X52866Y345116D01*
X-76454Y106454D02*
Y131310D01*
X50546Y116454D02*
Y131310D01*
X-63754Y299754D02*
Y315730D01*
X-38354Y95683D02*
Y131310D01*
X-33586Y89000D02*
X-10500D01*
X37846Y116154D02*
Y131310D01*
X514440Y268689D02*
X557202Y311453D01*
X471500Y261250D02*
X496479D01*
X469250Y226550D02*
Y246750D01*
X485750Y291750D02*
X535000Y341000D01*
X391250Y291750D02*
X485750D01*
X469250Y246750D02*
X471500D01*
X356500Y172250D02*
X383500D01*
X88596Y386596D02*
X104261Y402261D01*
X545500Y213750D02*
X568500D01*
X70425Y393425D02*
X78861Y401861D01*
X13750Y318878D02*
Y347250D01*
X564642Y329413D02*
Y375920D01*
X545234Y167271D02*
X545500Y166500D01*
X383500Y172250D02*
X385500Y170250D01*
X544500Y214750D02*
X545500Y213750D01*
X469250Y213850D02*
X470150Y214750D01*
X511500D01*
X543000Y173750D02*
Y183250D01*
X511500Y214750D02*
X543000Y183250D01*
Y173750D02*
X568500Y199250D01*
X484850Y201150D02*
X502000Y184000D01*
Y166500D02*
Y184000D01*
X469250Y201150D02*
X484850D01*
X208400Y304000D02*
X227000D01*
X227000Y304000D01*
X208400Y283750D02*
X226750D01*
X227000Y284000D01*
X208400Y263500D02*
X227500D01*
X208400Y243250D02*
X227250D01*
X208400Y223000D02*
X227000D01*
X179000Y304000D02*
X193400D01*
X180250Y243250D02*
X193400D01*
X12446Y131310D02*
X13000Y131864D01*
X180750Y283750D02*
X193400D01*
X175000Y278000D02*
X180750Y283750D01*
X177500Y263500D02*
X193400D01*
X84000Y358485D02*
Y360500D01*
X86300Y419821D02*
Y426000D01*
X111700Y420221D02*
Y426000D01*
X-76454Y106454D02*
X-75000Y105000D01*
X-63754Y131310D02*
Y154754D01*
X-25654Y131310D02*
Y154654D01*
X-26000Y155000D02*
X-25654Y154654D01*
X-61500Y344500D02*
Y357000D01*
X-63754Y342246D02*
X-61500Y344500D01*
X-63754Y315730D02*
Y342246D01*
X469000Y319000D02*
X495000D01*
X535000Y341000D02*
Y343000D01*
X63246Y116754D02*
X73000Y107000D01*
X288000Y47536D02*
Y94000D01*
Y47536D02*
X301023Y34513D01*
X366023D01*
X206023D02*
X271023D01*
X206023D02*
Y39977D01*
X191000Y55000D02*
X206023Y39977D01*
X191000Y55000D02*
Y92000D01*
X184000Y99000D02*
X191000Y92000D01*
X37846Y116154D02*
X67000Y87000D01*
X81000D01*
X111023Y56977D01*
Y34513D02*
Y56977D01*
X75946Y131310D02*
X83690D01*
X92000Y123000D01*
X109500D01*
X117500Y131000D01*
X132500D02*
Y140500D01*
X26000Y204000D02*
X36000Y194000D01*
X24000Y204000D02*
X26000D01*
X-90000Y316576D02*
Y345000D01*
Y316576D02*
X-89154Y315730D01*
X-88000Y204750D02*
X-86750D01*
X-82000Y200000D01*
X4500Y89000D02*
X32700D01*
X39000Y95300D01*
X4500Y44450D02*
Y67000D01*
X12828Y34000D02*
X31757D01*
X455500Y332500D02*
X469000Y319000D01*
X446000Y332500D02*
X455500D01*
D22*
X544000Y89353D02*
X545500Y93844D01*
X544000Y89353D02*
Y89353D01*
X545500Y93844D02*
Y166500D01*
X543311Y87292D02*
X544000Y89353D01*
X543000Y86360D02*
X543311Y87292D01*
X458500Y69000D02*
X609000D01*
X413750Y113750D02*
X458500Y69000D01*
X413750Y113750D02*
Y188450D01*
X543311Y87292D02*
Y87292D01*
X609000Y69000D02*
X623000Y83000D01*
X381800Y188450D02*
X413750D01*
X356500Y186750D02*
X358500Y188750D01*
X381500D02*
X381800Y188450D01*
X469250D02*
X471250Y186450D01*
X358500Y188750D02*
X381500D01*
D23*
X-18000Y378000D02*
D03*
X370000Y332500D02*
D03*
X334750Y350250D02*
D03*
X219000Y447250D02*
D03*
X195250D02*
D03*
X171500D02*
D03*
X219000Y425250D02*
D03*
X195375Y425500D02*
D03*
X171750Y425250D02*
D03*
X36500Y379000D02*
D03*
X9250Y378500D02*
D03*
X312250Y350250D02*
D03*
X350000Y332500D02*
D03*
D24*
X564642Y375920D02*
D03*
X599132Y376376D02*
D03*
Y306376D02*
D03*
X434200Y39500D02*
D03*
X39000Y42000D02*
D03*
Y92800D02*
D03*
X137100Y426000D02*
D03*
X111700D02*
D03*
X86300D02*
D03*
X60900D02*
D03*
D25*
X624132Y363876D02*
D03*
Y318876D02*
D03*
D26*
X408800Y39500D02*
D03*
D27*
X-6250Y347250D02*
D03*
X13750D02*
D03*
X33750D02*
D03*
X-26250D02*
D03*
X-46250D02*
D03*
X53750D02*
D03*
D28*
X622300Y86360D02*
D03*
D29*
X596900D02*
D03*
X571500D02*
D03*
X546100D02*
D03*
X520700D02*
D03*
X495300D02*
D03*
X206023Y79513D02*
D03*
X271023D02*
D03*
X206023Y34513D02*
D03*
X271023D02*
D03*
X111023Y79513D02*
D03*
X176023D02*
D03*
X111023Y34513D02*
D03*
X176023D02*
D03*
X301023Y79513D02*
D03*
X366023D02*
D03*
X301023Y34513D02*
D03*
X366023D02*
D03*
D30*
X39000Y67400D02*
D03*
D31*
X77000Y35300D02*
D03*
D32*
Y60700D02*
D03*
D33*
X639262Y269047D02*
D03*
Y196453D02*
D03*
D34*
X606750Y257058D02*
D03*
Y208442D02*
D03*
D35*
X185000Y337500D02*
D03*
X63250Y297250D02*
D03*
X0Y105000D02*
D03*
X179000Y304000D02*
D03*
X25146Y180000D02*
D03*
X-88000Y204750D02*
D03*
X457750Y315750D02*
D03*
X-89000Y110750D02*
D03*
X-89250Y153250D02*
D03*
X95000Y406250D02*
D03*
X-15000Y297500D02*
D03*
X-38750Y297250D02*
D03*
X460000Y284250D02*
D03*
Y276500D02*
D03*
X425750Y249000D02*
D03*
X436000Y191000D02*
D03*
X447000D02*
D03*
X436000Y202000D02*
D03*
X447000D02*
D03*
X436000Y213000D02*
D03*
X447000D02*
D03*
X436000Y224000D02*
D03*
X447000D02*
D03*
X227000Y304000D02*
D03*
Y284000D02*
D03*
X227500Y263500D02*
D03*
X227250Y243250D02*
D03*
X227000Y223000D02*
D03*
X180250Y243250D02*
D03*
X164000Y213000D02*
D03*
X13000Y158000D02*
D03*
X175000Y278000D02*
D03*
X-75000Y105000D02*
D03*
X-63754Y154754D02*
D03*
X-26000Y155000D02*
D03*
X495000Y319000D02*
D03*
X449000Y301000D02*
D03*
X402000Y382500D02*
D03*
X535000Y343000D02*
D03*
X92000Y123000D02*
D03*
X26000Y204000D02*
D03*
X446000Y332500D02*
D03*
D36*
X93726Y179840D02*
D03*
Y167140D02*
D03*
Y192540D02*
D03*
Y205240D02*
D03*
Y217940D02*
D03*
Y230640D02*
D03*
Y243340D02*
D03*
Y256040D02*
D03*
Y268740D02*
D03*
Y281440D02*
D03*
D37*
X75946Y131310D02*
D03*
X63246D02*
D03*
X50546D02*
D03*
X37846D02*
D03*
X25146D02*
D03*
X12446D02*
D03*
X-254D02*
D03*
X-12954D02*
D03*
X-25654D02*
D03*
X-38354D02*
D03*
X-51054D02*
D03*
X-63754D02*
D03*
X-76454D02*
D03*
X-89154D02*
D03*
X12446Y315730D02*
D03*
X25146D02*
D03*
X37846D02*
D03*
X50546D02*
D03*
X63246D02*
D03*
X75946D02*
D03*
X-12954D02*
D03*
X-25654D02*
D03*
X-38354D02*
D03*
X-51054D02*
D03*
X-63754D02*
D03*
X-76454D02*
D03*
X-89154D02*
D03*
X-254D02*
D03*
D38*
X-12974Y232054D02*
D03*
D39*
X471500Y246750D02*
D03*
Y261250D02*
D03*
X571750Y199750D02*
D03*
Y214250D02*
D03*
X356500Y186750D02*
D03*
Y172250D02*
D03*
D40*
X543000Y166500D02*
D03*
X502000D02*
D03*
D41*
X511500Y214750D02*
D03*
Y244250D02*
D03*
X377000Y169750D02*
D03*
Y140250D02*
D03*
X378000Y195250D02*
D03*
Y224750D02*
D03*
X549500Y215250D02*
D03*
Y244750D02*
D03*
D42*
X471250Y157500D02*
D03*
X441750D02*
D03*
D43*
X413750Y188450D02*
D03*
Y201150D02*
D03*
Y213850D02*
D03*
Y226550D02*
D03*
X469250Y188450D02*
D03*
Y201150D02*
D03*
Y213850D02*
D03*
Y226550D02*
D03*
D44*
X441500Y207500D02*
D03*
D45*
X606750Y245750D02*
D03*
Y239250D02*
D03*
Y232750D02*
D03*
X606753Y226245D02*
D03*
X606740Y219740D02*
D03*
D46*
X471250Y110410D02*
X495300Y86360D01*
X471250Y110410D02*
Y157500D01*
Y186450D01*
M02*
