M48
;Layer_Color=9474304
;FILE_FORMAT=4:4
METRIC,LZ
;TYPE=PLATED
T1F00S00C0.4000
T2F00S00C0.5000
T3F00S00C0.7620
T4F00S00C0.8000
T6F00S00C0.9000
T7F00S00C1.0000
T8F00S00C1.3000
%
T01
X00447Y00191
Y00202
Y00213
Y00224
X00436
Y00213
Y00202
Y00191
X00227Y00223
X00164Y00213
X00092Y00123
X0Y00105
X00013Y00158
X00025146Y0018
X00026Y00204
X-00026Y00155
X-00063754Y00154754
X-0008925Y0015325
X-00089Y0011075
X-00075Y00105
X-00088Y0020475
X-0003875Y0029725
X-00015Y002975
X0006325Y0029725
X00179Y00304
X00175Y00278
X0018025Y0024325
X0022725
X002275Y002635
X00227Y00284
Y00304
X00185Y003375
X00095Y0040625
X00402Y003825
X00446Y003325
X0045775Y0031575
X00449Y00301
X0046Y0028425
Y002765
X00495Y00319
X00535Y00343
T02
X0042575Y00249
T03
X-00018Y00378
X0000925Y003785
X000365Y00379
X0017175Y0042525
X001715Y0044725
X0019525
X00195375Y004255
X00219Y0042525
Y0044725
X0031225Y0035025
X0033475
X0035Y003325
X0037
T04
X0060675Y00208442
X0003375Y0034725
X0001375
X-0000625
X-0002625
X-0004625
X0005375
X0060675Y00257058
T06
X004953Y0008636
X005207
X005461
X005715
X005969
X006223
X004342Y000395
X004088
X00039Y00042
Y000674
Y000928
X00564642Y0037592
T07
X00077Y000353
Y000607
X00111023Y00079513
Y00034513
X00176023
X00206023
Y00079513
X00176023
X00271023
X00301023
Y00034513
X00271023
X00366023
Y00079513
X001371Y00426
X001117
X000863
X000609
X00624132Y00363876
Y00318876
T08
X00599132Y00306376
Y00376376
M30
